<svg width="349" height="364" viewBox="0 0 349 364" fill="none" xmlns="http://www.w3.org/2000/svg">
<mask id="mask0_38_76" style="mask-type:alpha" maskUnits="userSpaceOnUse" x="20" y="22" width="329" height="328">
<circle cx="184.5" cy="186" r="164" fill="#FFCDCF"/>
</mask>
<g mask="url(#mask0_38_76)">
<circle cx="184.5" cy="186" r="164" fill="#FFCDCF"/>
<path d="M311.5 69.5H172.5C169.739 69.5 167.5 71.7386 167.5 74.5V76C167.5 78.7614 169.739 81 172.5 81H180.5M180.5 81H311.5V81C313.433 81 315 82.567 315 84.5V122.5M180.5 81V153M294.5 177.5H185.5C182.739 177.5 180.5 175.261 180.5 172.5V153M294.5 177.5V127.5C294.5 124.739 296.739 122.5 299.5 122.5H315M294.5 177.5V197.5M345.5 122.5H315M294.5 314.5V303.5M350.5 197.5H317.5C314.739 197.5 312.5 199.739 312.5 202.5V211M312.5 296V211M312.5 211H340M361 211H340M340 211V250M294.5 197.5H153.5C150.739 197.5 148.5 199.739 148.5 202.5C148.5 207.08 148.5 211.383 148.5 215.5M294.5 197.5V215.5M148.5 320.5H294.5M148.5 320.5H129M148.5 320.5V303.5M60.5 320.5H71M129 320.5V295M129 320.5H71M180.5 153H134C131.239 153 129 155.239 129 158V295M129 295C128.725 294.786 128.36 294.557 127.917 294.342C124.238 292.558 118.858 289.197 117.821 285.242C116.166 278.932 111.699 273.554 101.601 276.327C101.209 276.435 100.795 276.506 100.39 276.54C94.2764 277.059 85.1974 281.167 88.2052 293.644C88.9932 296.912 87.1192 300.497 83.933 301.57C76.0622 304.22 67.612 310.028 71 320.5M148.5 303.5H294.5M148.5 303.5V281M294.5 303.5V281M294.5 281H148.5M294.5 281V259M148.5 281C148.5 272.935 148.5 265.746 148.5 259M148.5 259H294.5M148.5 259C148.5 251.126 148.5 243.856 148.5 236.5M294.5 259V236.5M294.5 236.5H148.5M294.5 236.5V215.5M148.5 236.5C148.5 229.75 148.5 222.927 148.5 215.5M148.5 215.5H294.5M257.5 93H200.5C197.739 93 195.5 95.2386 195.5 98V154.5C195.5 157.261 197.739 159.5 200.5 159.5H252.5H256C258.761 159.5 261 157.261 261 154.5V96.5C261 94.567 259.433 93 257.5 93V93ZM321.5 285H327.5C329.709 285 331.5 283.209 331.5 281V281C331.5 278.791 329.709 277 327.5 277H321.5C319.291 277 317.5 278.791 317.5 281V281C317.5 283.209 319.291 285 321.5 285ZM321.5 271H327.5C329.709 271 331.5 269.209 331.5 267V267C331.5 264.791 329.709 263 327.5 263H321.5C319.291 263 317.5 264.791 317.5 267V267C317.5 269.209 319.291 271 321.5 271ZM331.5 253V253C331.5 250.791 329.709 249 327.5 249H321.5C319.291 249 317.5 250.791 317.5 253V253C317.5 255.209 319.291 257 321.5 257H327.5C329.709 257 331.5 255.209 331.5 253ZM331.5 238V238C331.5 235.791 329.709 234 327.5 234H321.5C319.291 234 317.5 235.791 317.5 238V238C317.5 240.209 319.291 242 321.5 242H327.5C329.709 242 331.5 240.209 331.5 238ZM321.5 227H327.5C329.709 227 331.5 225.209 331.5 223V223C331.5 220.791 329.709 219 327.5 219H321.5C319.291 219 317.5 220.791 317.5 223V223C317.5 225.209 319.291 227 321.5 227Z" stroke="#18376B" stroke-linecap="round"/>
</g>
<path d="M1 363H341.5" stroke="#18376B" stroke-linecap="round"/>
<path d="M80 99C77.8333 98.8333 73.5 97.4 73.5 93C73.3333 91.6667 73.7 89 76.5 89C77.5 88.8333 79.7 89.8 80.5 95C80.6667 95.8333 81.6 97.2 84 96C83.3333 95.1667 82 92.6 82 89V87C82.6667 86 84 83 84 79C84.8333 79 87.6 78.4 92 76C94.5684 74.6402 100.533 73.6092 105.5 79.0897C106.012 79.6549 106.514 80.2894 107 81C108.667 78 110 70.9 102 66.5C97.1667 64 85.6 61 78 69C76.5 70.3333 73.7 73.9 74.5 77.5C72.6667 78.3333 69 81.4 69 87C68.6667 91 70.4 99.6 80 102V99Z" fill="#18376B"/>
<path d="M261.5 94C263.333 94.6667 266.9 97.6 266.5 104C267.667 102 270.5 98.9 272.5 102.5C272.833 104.5 272.4 108.6 268 109C266 109.663 265.833 111.943 266 113L265.5 125C266.757 125.354 268.343 125.851 270.066 126.464C275.652 128.449 282.666 131.637 284.5 135C284.733 137.283 284.851 140.917 284.7 145.5C298.4 136 288 125 284 121.5C280.8 118.7 280.667 113.667 281 111.5C282.2 103.5 281.5 96.5 281 94C275.8 79.6 265.833 77.6667 261.5 78.5C253.5 79.3 248.167 85.5 246.5 88.5H250C250.223 88.7226 250.403 88.9387 250.584 89.1543C251.619 90.3915 252.644 91.6156 261.5 94Z" fill="#18376B"/>
<path d="M250 118C244 110 245.167 95 246.5 88.5C242.1 106.9 244 122.486 245.5 127.979L250.696 126.464L254 125.5V118.871C252.254 119.035 250.838 118.558 250 118Z" fill="#18376B"/>
<path d="M95 114.5C94.8333 115.833 93.3 118.5 88.5 118.5C86.5 118.5 82 117.7 80 114.5C75.5 115.833 65.4 119.1 61 121.5C69.4 129.412 68.5 143.463 67 149.5C66.382 151.817 65.1972 154.657 63.8315 157.5L65.1546 169.612L95 172V174C95.8333 174.333 98 174.3 100 171.5C102 168.7 108.5 168 111.5 168C111.667 168.667 111.2 170.2 108 171C106.833 171.667 105.1 173.3 107.5 174.5C107.756 174.61 108.098 174.71 108.5 174.77L109.5 173.5L116 163.326C116 151.717 115.7 127.1 114.5 121.5C113 120.167 107 116.9 95 114.5Z" fill="#FE595F"/>
<path d="M95 184.5C83.3598 185.916 73.7093 186.192 66 185.865L65 208L67 207.894L119.5 205.11L121.5 205L119.5 184.5H110.202C109.678 184.703 109.112 184.871 108.5 185C107.333 185.167 104.4 185.1 102 183.5C100.833 182.833 97.8 181.7 95 182.5V184.5Z" fill="#FE595F"/>
<path d="M61 121.5C53.1667 131.667 38.8 158 44 182C46.8315 183.416 54.1053 185.359 66 185.865C73.7093 186.192 83.3598 185.916 95 184.5V182.5V174V172L65.1546 169.612L57.5 169C59.0344 166.545 61.6613 162.018 63.8315 157.5C65.1972 154.657 66.382 151.817 67 149.5C68.5 143.463 69.4 129.412 61 121.5Z" fill="#FF8387"/>
<path d="M116 163.326L121 155.5H126.5C124.9 141.9 117.833 127.167 114.5 121.5C115.7 127.1 116 151.717 116 163.326Z" fill="#FF8387"/>
<path d="M166 162.5L150.724 164.5L142.224 179C148.803 179.4 162.483 176.167 168.5 174.5L168.188 173L166.5 164.9L166 162.5Z" fill="#FF8387"/>
<path d="M119.5 184.5H139L142.224 179L150.724 164.5L156 155.5H126.5H121L116 163.326L109.5 173.5L108.5 174.77C109.929 174.982 112.127 174.685 114 172.5C114.5 172.167 115.6 171.7 116 172.5C116.613 175.412 116.183 182.185 110.202 184.5H119.5Z" fill="#18376B"/>
<path d="M120 209.5L67 211.5C67.6667 227.5 69.1 263.9 69.5 281.5L71 310.5V351.5H73.5H85H88.5C90.1667 338.167 93.5 308.5 93.5 296.5L96 262C96.5251 259.156 97.188 255.476 97.8802 251.5C99.6859 241.129 101.691 228.749 101.968 223.964C101.978 221.476 102 217.8 102 223C102 223.274 101.989 223.596 101.968 223.964C101.691 228.749 99.6859 241.129 97.8802 251.5L97.5 316L95.5 346L94.5 350.5H97.5H108.5H110.5L110 348.5L113.5 322.5L117 279.5L120 209.5Z" fill="#18376B"/>
<path d="M120 209.5L119.5 205.11L67 207.894V211.5L120 209.5Z" fill="#98BCD1"/>
<path d="M85 351.5H73.5C73.639 352.195 73.6853 353.818 73 355.499C78.1667 355.555 88.9 355.551 90.5 355.084C87.918 354.158 85.4699 352.91 85 351.5Z" fill="#98BCD1"/>
<path d="M110 354L108.5 350.5H97.5L96.1667 354.5C99.9444 354.833 108 355.2 110 354Z" fill="#98BCD1"/>
<path d="M130 360.5L110 354C108 355.2 99.9444 354.833 96.1667 354.5L95.5 356.5C101.9 357.7 105.833 361.667 107 363.5H129C131.8 363.1 130.833 361.333 130 360.5Z" fill="#18376B"/>
<path fill-rule="evenodd" clip-rule="evenodd" d="M105.5 100.5V82V79.0897C100.533 73.6092 94.5684 74.6402 92 76C87.6 78.4 84.8333 79 84 79C84 83 82.6667 86 82 87V89C82 92.6 83.3333 95.1667 84 96C81.6 97.2 80.6667 95.8333 80.5 95C79.7 89.8 77.5 88.8333 76.5 89C73.7 89 73.3333 91.6667 73.5 93C73.5 97.4 77.8333 98.8333 80 99V102V114.5C82 117.7 86.5 118.5 88.5 118.5C93.3 118.5 94.8333 115.833 95 114.5V111.611C95.3827 111.6 95.7185 111.56 96 111.5C102.8 111.5 105.167 104.167 105.5 100.5ZM95 174V182.5C97.8 181.7 100.833 182.833 102 183.5C104.4 185.1 107.333 185.167 108.5 185C109.112 184.871 109.678 184.703 110.202 184.5C116.183 182.185 116.613 175.412 116 172.5C115.6 171.7 114.5 172.167 114 172.5C112.127 174.685 109.929 174.982 108.5 174.77C108.098 174.71 107.756 174.61 107.5 174.5C105.1 173.3 106.833 171.667 108 171C111.2 170.2 111.667 168.667 111.5 168C108.5 168 102 168.7 100 171.5C98 174.3 95.8333 174.333 95 174ZM166.5 164.9L168.188 173C170.292 172.333 175 171.2 177 172C179 172.8 182.5 173 184 173C187.833 172.667 195.9 170.4 197.5 164C199.1 157.6 194.833 158 192.5 159C192.333 159.333 191 160.2 187 161C183 161.8 180.667 161 180 160.5L184.5 157C186.9 155 186.167 154.167 185.5 154C180 153 173.5 159 171 161.5C169 163.5 167.167 164.6 166.5 164.9ZM102 223C102 217.8 101.978 221.476 101.968 223.964C101.989 223.596 102 223.274 102 223Z" fill="white"/>
<path d="M107 363.5C105.833 361.667 101.9 357.7 95.5 356.5C94.1934 356.225 92.3137 355.734 90.5 355.084C88.9 355.551 78.1667 355.555 73 355.499C72.8639 355.833 72.6989 356.169 72.5 356.5C71.6667 357.833 70.1 361.1 70.5 363.5H107Z" fill="#18376B"/>
<path d="M264 184.5L237.5 202L234.5 204C234.853 204.157 235.186 204.35 235.5 204.573C237.847 206.241 239.149 209.59 239.718 212C239.85 212.562 239.943 213.073 240 213.5L251.5 206.859L275.5 193C277.389 187.991 278.916 182.938 280.144 178C283.226 165.61 284.421 153.943 284.7 145.5C284.851 140.917 284.733 137.283 284.5 135C282.9 133 280.5 132.167 279.5 132C271.5 133.2 268.5 145.167 268 151L264 184.5Z" fill="#CFDDE6"/>
<path d="M239.5 139L242 129L221.5 165L217 172L187 183.5L187.455 185.5L188.932 192L189.5 194.5L222 186.5C223.333 186 226.6 184.1 229 180.5L238 166.75L237.5 163.5C233.1 154.3 234 147.667 235 145.5L239.5 139Z" fill="#CFDDE6"/>
<path d="M240 213.5C239.943 213.073 239.85 212.562 239.718 212L237.609 213.5L236.5 263.5V282V349.5H238H249.5H252.5V289.5L257.577 265L262 299.5L267.5 351.5H271H280H282C281.381 342.667 280.516 322 282 310C283.484 298 279.619 274 277.5 263.5L280.144 242.5C283.86 225.3 283.596 210.333 283 205C275.667 205.739 259.1 207.146 251.5 206.859L240 213.5Z" fill="#18376B"/>
<path d="M254 363.5H286C286 360.784 284.103 357.898 282.456 356C272.821 358.4 268.804 357.14 268 356.21C267.087 356.555 265.937 356.831 264.5 357C257.7 357.8 254.667 361.667 254 363.5Z" fill="#18376B"/>
<path fill-rule="evenodd" clip-rule="evenodd" d="M281 354.5L280 351.5H271C271.526 352.683 271.409 354.923 268 356.21C268.804 357.14 272.821 358.4 282.456 356C281.919 355.382 281.409 354.868 281 354.5ZM249.5 352V349.5H238C237.11 352.525 235.067 354.606 232.749 356C233.37 357.333 237.801 358.9 250.556 354.5C250.181 353.469 249.8 352.6 249.5 352ZM237.609 213.5L239.718 212C239.149 209.59 237.847 206.241 235.5 204.573L230.5 207.5L224.994 210.804C223.729 211.562 222.865 212.84 222.63 214.295L220.5 227.5H226C232 224.7 234.833 218 235.5 215L237.609 213.5ZM187.455 185.5L188.932 192L185.5 193.5C184.167 196.833 180 203.5 174 203.5C168 203.5 165.5 201.167 165 200C164.667 198.833 165.1 196.5 169.5 196.5C173.9 196.5 176.333 192.833 177 191L171 192C170 192 168.9 191.4 172.5 189L179 186.5H184L187.455 185.5ZM250.696 126.464C250.841 130.118 254.919 135.235 270.066 126.464C268.343 125.851 266.757 125.354 265.5 125L266 113C265.833 111.943 266 109.663 268 109C272.4 108.6 272.833 104.5 272.5 102.5C270.5 98.9 267.667 102 266.5 104C266.9 97.6 263.333 94.6667 261.5 94C252.644 91.6156 251.619 90.3915 250.584 89.1543C250.403 88.9387 250.223 88.7226 250 88.5H246.5C245.167 95 244 110 250 118C250.838 118.558 252.254 119.035 254 118.871V125.5L250.696 126.464Z" fill="white"/>
<path d="M217 363H252C252.28 360.199 251.433 356.908 250.556 354.5C237.801 358.9 233.37 357.333 232.749 356C229.856 357.74 226.536 358.407 224.5 358.5C219.3 359.7 217.333 362 217 363Z" fill="#18376B"/>
<path d="M242 129L239.5 139L235 145.5C234 147.667 233.1 154.3 237.5 163.5L238 166.75L238.5 170L237.5 202L264 184.5L268 151C268.5 145.167 271.5 133.2 279.5 132C280.5 132.167 282.9 133 284.5 135C282.666 131.637 275.652 128.449 270.066 126.464C254.919 135.235 250.841 130.118 250.696 126.464L245.5 127.979L242 129Z" fill="white"/>
<path d="M280.144 178C278.916 182.938 277.389 187.991 275.5 193L251.5 206.859C259.1 207.146 275.667 205.739 283 205L281.5 197.5L280.144 178Z" fill="white"/>
<path d="M105.5 100.5L105.998 100.545L106 100.523V100.5H105.5ZM96 111.5V111H95.947L95.8952 111.011L96 111.5ZM82.4025 103.203C82.2387 102.981 81.9257 102.934 81.7034 103.097C81.4811 103.261 81.4337 103.574 81.5975 103.797L82.4025 103.203ZM95 111.611L94.9866 111.111L95 111.611ZM80 99H80.5V98.537L80.0384 98.5015L80 99ZM73.5 93H74V92.9689L73.9961 92.938L73.5 93ZM76.5 89V89.5H76.5414L76.5822 89.4932L76.5 89ZM80.5 95L80.0058 95.076L80.0075 95.0871L80.0097 95.0981L80.5 95ZM84 96L84.2236 96.4472L84.7768 96.1706L84.3904 95.6876L84 96ZM82 87L81.584 86.7226L81.5 86.8486V87H82ZM84 79V78.5H83.5V79H84ZM92 76L91.766 75.5581L91.7606 75.561L92 76ZM107 81L106.587 81.2823L107.044 81.95L107.437 81.2428L107 81ZM102 66.5L102.241 66.0618L102.23 66.0559L102 66.5ZM78 69L78.3322 69.3737L78.348 69.3597L78.3625 69.3444L78 69ZM74.5 77.5L74.7069 77.9552L75.0761 77.7874L74.9881 77.3915L74.5 77.5ZM69 87L69.4983 87.0415L69.5 87.0208V87H69ZM105.5 79.0897L105.871 78.754L105.5 79.0897ZM61 121.5L60.7606 121.061L60.6682 121.111L60.6039 121.195L61 121.5ZM44 182L43.5113 182.106L43.5621 182.34L43.7764 182.447L44 182ZM95 184.5L95.0604 184.996L95.5 184.943V184.5H95ZM95 172H95.5V171.538L95.0399 171.502L95 172ZM57.5 169L57.076 168.735L56.6399 169.433L57.4601 169.498L57.5 169ZM67 149.5L67.4832 149.629L67.4852 149.621L67 149.5ZM63.8315 157.5L63.3808 157.284L63.3808 157.284L63.8315 157.5ZM65.1546 169.612L65.1148 170.111L65.1148 170.111L65.1546 169.612ZM65 208L64.5005 207.977L64.4756 208.529L65.0265 208.499L65 208ZM121.5 205L121.527 205.499L122.048 205.471L121.998 204.951L121.5 205ZM139 184.5V185H139.286L139.431 184.753L139 184.5ZM156 155.5L156.431 155.753L156.873 155H156V155.5ZM121 155.5V155H120.726L120.579 155.231L121 155.5ZM109.5 173.5L109.893 173.809L109.908 173.79L109.921 173.769L109.5 173.5ZM116 172.5L116.489 172.397L116.476 172.334L116.447 172.276L116 172.5ZM108.5 185L108.571 185.495L108.587 185.493L108.603 185.489L108.5 185ZM102 183.5L102.277 183.084L102.263 183.074L102.248 183.066L102 183.5ZM111.5 168L111.985 167.879L111.89 167.5H111.5V168ZM108 171L107.879 170.515L107.812 170.532L107.752 170.566L108 171ZM107.5 174.5L107.276 174.947L107.29 174.954L107.303 174.96L107.5 174.5ZM114 172.5L113.723 172.084L113.665 172.122L113.62 172.175L114 172.5ZM110.202 184.5L110.021 184.034L110.021 184.034L110.202 184.5ZM116 163.326L116.421 163.595L116.421 163.595L116 163.326ZM114.5 121.5L114.931 121.246L114.891 121.179L114.832 121.126L114.5 121.5ZM150.724 164.5L150.293 164.247L150.293 164.247L150.724 164.5ZM166 162.5L166.489 162.398L166.395 161.944L165.935 162.004L166 162.5ZM168.5 174.5L168.633 174.982L169.085 174.857L168.989 174.398L168.5 174.5ZM142.224 179L141.793 178.747L141.793 178.747L142.224 179ZM166.5 164.9L166.011 165.002L166.011 165.002L166.5 164.9ZM185.5 154L185.621 153.515L185.605 153.511L185.589 153.508L185.5 154ZM184.5 157L184.807 157.395L184.814 157.39L184.82 157.384L184.5 157ZM180 160.5L179.693 160.105L179.176 160.507L179.7 160.9L180 160.5ZM192.5 159L192.303 158.54L192.135 158.613L192.053 158.776L192.5 159ZM184 173V173.5H184.022L184.043 173.498L184 173ZM120 209.5L120.5 209.521L120.501 209.482L120.497 209.443L120 209.5ZM67 211.5H66.5V211.51L66.5004 211.521L67 211.5ZM69.5 281.5L69.0001 281.511L69.0003 281.519L69.0007 281.526L69.5 281.5ZM71 310.5H71.5V310.487L71.4993 310.474L71 310.5ZM71 351.5H70.5V352H71V351.5ZM88.5 351.5V352H88.9414L88.9961 351.562L88.5 351.5ZM93.5 296.5L93.0013 296.464L93 296.482V296.5H93.5ZM96 262L95.5083 261.909L95.5033 261.936L95.5013 261.964L96 262ZM101.968 223.964L102.467 223.993L101.968 223.964ZM117 279.5L117.498 279.541L117.499 279.531L117.5 279.521L117 279.5ZM113.5 322.5L113.996 322.567L113.997 322.554L113.998 322.541L113.5 322.5ZM110 348.5L109.504 348.433L109.492 348.528L109.515 348.621L110 348.5ZM110.5 350.5V351H111.14L110.985 350.379L110.5 350.5ZM94.5 350.5L94.0119 350.392L93.8767 351H94.5V350.5ZM95.5 346L95.9881 346.108L95.9964 346.071L95.9989 346.033L95.5 346ZM97.5 316L97.9989 316.033L97.9999 316.018L98 316.003L97.5 316ZM97.8802 251.5L97.3876 251.414L97.8802 251.5ZM130 360.5L130.354 360.146L130.269 360.062L130.155 360.024L130 360.5ZM129 363.5V364H129.036L129.071 363.995L129 363.5ZM95.5 356.5L95.397 356.989L95.4079 356.991L95.5 356.5ZM72.5 356.5L72.9241 356.765L72.9287 356.757L72.5 356.5ZM70.5 363.5L70.0068 363.582L70.0764 364H70.5V363.5ZM73 355.499L72.537 355.31L72.537 355.31L73 355.499ZM90.5 355.084L90.6687 354.613L90.6687 354.613L90.5 355.084ZM246.5 88.5L246.063 88.2572L246.03 88.3171L246.014 88.3837L246.5 88.5ZM250 118L249.6 118.3L249.651 118.369L249.723 118.416L250 118ZM262.905 113.293C263.067 113.069 263.017 112.756 262.793 112.595C262.569 112.433 262.256 112.483 262.095 112.707L262.905 113.293ZM254 125.5L254.14 125.98L254.5 125.875V125.5H254ZM242 129L241.86 128.52L241.666 128.577L241.566 128.753L242 129ZM239.5 139L239.911 139.285L239.963 139.21L239.985 139.121L239.5 139ZM235 145.5L234.589 145.215L234.564 145.251L234.546 145.29L235 145.5ZM237.5 163.5L237.994 163.424L237.983 163.351L237.951 163.284L237.5 163.5ZM238.5 170L239 170.016L239.001 169.97L238.994 169.924L238.5 170ZM264 184.5L264.276 184.917L264.469 184.789L264.496 184.559L264 184.5ZM268 151L268.496 151.059L268.497 151.051L268.498 151.043L268 151ZM279.5 132L279.582 131.507L279.504 131.494L279.426 131.506L279.5 132ZM284.5 135L284.997 134.949L284.987 134.849L284.939 134.761L284.5 135ZM275.5 193L275.75 193.433L275.905 193.344L275.968 193.176L275.5 193ZM240 213.5L239.504 213.566L239.603 214.307L240.25 213.933L240 213.5ZM234.5 204L234.223 203.584L233.467 204.088L234.297 204.457L234.5 204ZM235.5 215L235.21 214.593L235.054 214.704L235.012 214.892L235.5 215ZM226 227.5V228H226.111L226.211 227.953L226 227.5ZM220.5 227.5L220.006 227.42L219.913 228H220.5V227.5ZM230.5 207.5L230.247 207.068L230.243 207.071L230.5 207.5ZM280.144 178L279.659 177.879L280.144 178ZM281.5 197.5L281.001 197.535L281.003 197.567L281.01 197.598L281.5 197.5ZM283 205L283.497 204.944L283.495 204.923L283.49 204.902L283 205ZM280.144 242.5L279.656 242.394L279.651 242.416L279.648 242.438L280.144 242.5ZM277.5 263.5L277.004 263.438L276.994 263.519L277.01 263.599L277.5 263.5ZM282 351.5V352H282.536L282.499 351.465L282 351.5ZM267.5 351.5L267.003 351.553L267.05 352H267.5V351.5ZM262 299.5L262.497 299.447L262.496 299.436L262 299.5ZM257 260.5L257.496 260.436L257.495 260.433L257 260.5ZM251.995 219.933C251.958 219.659 251.706 219.467 251.433 219.505C251.159 219.542 250.967 219.794 251.005 220.067L251.995 219.933ZM237.609 213.5L237.319 213.093L237.319 213.093L237.609 213.5ZM236.5 263.5L236 263.489V263.5H236.5ZM236.5 349.5H236V350H236.5V349.5ZM252.5 349.5V350H253V349.5H252.5ZM252.5 289.5L252.01 289.399L252 289.449V289.5H252.5ZM249.5 352H249V352.118L249.053 352.224L249.5 352ZM252 363V363.5H252.452L252.498 363.05L252 363ZM217 363L216.526 362.842L216.306 363.5H217V363ZM224.5 358.5L224.477 358.001L224.432 358.003L224.388 358.013L224.5 358.5ZM232.749 356L232.491 355.571L232.749 356ZM250.556 354.5L251.026 354.329L250.556 354.5ZM281 354.5L280.526 354.658L280.567 354.783L280.666 354.872L281 354.5ZM286 363.5V364H286.5V363.5H286ZM254 363.5L253.53 363.329L253.286 364H254V363.5ZM264.5 357L264.442 356.503L264.5 357ZM268 356.21L267.823 355.742L267.823 355.742L268 356.21ZM221.5 165L221.921 165.27L221.928 165.259L221.934 165.247L221.5 165ZM217 172L217.179 172.467L217.332 172.408L217.421 172.27L217 172ZM187 183.5L186.821 183.033L186.416 183.188L186.512 183.611L187 183.5ZM189.5 194.5L189.012 194.611L189.125 195.107L189.62 194.986L189.5 194.5ZM222 186.5L222.12 186.986L222.148 186.978L222.176 186.968L222 186.5ZM229 180.5L229.416 180.777L229.418 180.774L229 180.5ZM250 88.5L250.354 88.1464L250.207 88H250V88.5ZM261.5 94L261.671 93.5301L261.651 93.5228L261.63 93.5172L261.5 94ZM266.5 104L266.001 103.969L266.932 104.252L266.5 104ZM272.5 102.5L272.993 102.418L272.979 102.333L272.937 102.257L272.5 102.5ZM268 109L267.955 108.502L267.897 108.507L267.843 108.525L268 109ZM266 113L266.5 113.021L266.502 112.971L266.494 112.922L266 113ZM265.5 125L265 124.979L264.984 125.374L265.365 125.481L265.5 125ZM261.5 78.5L261.55 78.9975L261.572 78.9953L261.594 78.991L261.5 78.5ZM281 94L281.49 93.9019L281.483 93.8653L281.47 93.8302L281 94ZM281 111.5L281.494 111.576L281.494 111.574L281 111.5ZM284 121.5L284.329 121.124L284.329 121.124L284 121.5ZM188.932 192L189.419 191.889L189.419 191.889L188.932 192ZM185.5 193.5L185.3 193.042L185.112 193.124L185.036 193.314L185.5 193.5ZM165 200L164.519 200.137L164.528 200.168L164.54 200.197L165 200ZM177 191L177.47 191.171L177.763 190.366L176.918 190.507L177 191ZM171 192V192.5H171.041L171.082 192.493L171 192ZM172.5 189L172.321 188.533L172.269 188.553L172.223 188.584L172.5 189ZM179 186.5V186H178.907L178.821 186.033L179 186.5ZM184 186.5V187H184.071L184.139 186.98L184 186.5ZM250.584 89.1543L250.967 88.8334L250.967 88.8334L250.584 89.1543ZM270.066 126.464L270.233 125.993L270.066 126.464ZM222.63 214.295L222.136 214.216L222.63 214.295ZM105 82V100.5H106V82H105ZM105.002 100.455C104.841 102.229 104.184 104.896 102.755 107.103C101.336 109.295 99.185 111 96 111V112C99.615 112 102.047 110.038 103.595 107.647C105.133 105.271 105.826 102.437 105.998 100.545L105.002 100.455ZM95.8952 111.011C95.6481 111.064 95.3433 111.101 94.9866 111.111L95.0134 112.11C95.4222 112.099 95.789 112.057 96.1048 111.989L95.8952 111.011ZM94.9866 111.111C92.3815 111.181 87.2435 109.773 82.4025 103.203L81.5975 103.797C86.6055 110.593 92.0381 112.19 95.0134 112.11L94.9866 111.111ZM94.5 111.611V114.5H95.5V111.611H94.5ZM94.5039 114.438C94.3718 115.495 93.0755 118 88.5 118V119C93.5246 119 95.2949 116.172 95.4961 114.562L94.5039 114.438ZM88.5 118C87.5534 118 85.9876 117.809 84.4232 117.231C82.8572 116.653 81.3442 115.707 80.424 114.235L79.576 114.765C80.6558 116.493 82.3928 117.547 84.0768 118.169C85.7624 118.791 87.4466 119 88.5 119V118ZM80.0384 98.5015C79.0205 98.4232 77.4856 98.0434 76.2204 97.1752C74.9746 96.3204 74 95.0044 74 93H73C73 95.3956 74.1921 96.9963 75.6546 97.9998C77.0977 98.9899 78.8129 99.4102 79.9617 99.4985L80.0384 98.5015ZM73.9961 92.938C73.9207 92.3347 73.9715 91.4429 74.3338 90.7254C74.5112 90.3741 74.7583 90.0736 75.095 89.8593C75.4302 89.646 75.8823 89.5 76.5 89.5V88.5C75.7177 88.5 75.074 88.6873 74.5581 89.0157C74.0438 89.343 73.6846 89.7926 73.4412 90.2746C72.9618 91.2238 72.9126 92.3319 73.0039 93.062L73.9961 92.938ZM76.5822 89.4932C76.8752 89.4444 77.5129 89.5461 78.2015 90.3199C78.8903 91.0939 79.6144 92.5321 80.0058 95.076L80.9942 94.924C80.5856 92.2679 79.8097 90.6228 78.9485 89.6551C78.0871 88.6872 77.1248 88.389 76.4178 88.5068L76.5822 89.4932ZM80.0097 95.0981C80.1133 95.6162 80.455 96.3181 81.177 96.7036C81.9218 97.1011 82.9347 97.0916 84.2236 96.4472L83.7764 95.5528C82.6653 96.1083 82.0116 96.0155 81.648 95.8214C81.2617 95.6152 81.0533 95.2171 80.9903 94.9019L80.0097 95.0981ZM84.3904 95.6876C83.7956 94.9441 82.5 92.4879 82.5 89H81.5C81.5 92.712 82.8711 95.3892 83.6096 96.3123L84.3904 95.6876ZM82.5 89V87H81.5V89H82.5ZM82.416 87.2773C83.1374 86.1953 84.5 83.0989 84.5 79H83.5C83.5 82.9011 82.196 85.8046 81.584 86.7226L82.416 87.2773ZM84 79.5C84.4973 79.5 85.4579 79.33 86.8211 78.8742C88.1979 78.4138 90.0166 77.6514 92.2394 76.4389L91.7606 75.561C89.5834 76.7486 87.8187 77.4862 86.5039 77.9258C85.1755 78.37 84.336 78.5 84 78.5V79.5ZM107.437 81.2428C108.315 79.6632 109.099 77.0237 108.618 74.1913C108.132 71.3312 106.366 68.3305 102.241 66.0619L101.759 66.9381C105.634 69.0695 107.201 71.8189 107.632 74.3587C108.068 76.9263 107.352 79.3368 106.563 80.7572L107.437 81.2428ZM102.23 66.0559C99.7554 64.7761 95.5796 63.3763 91.0445 63.3126C86.4993 63.2487 81.5581 64.5287 77.6375 68.6556L78.3625 69.3444C82.0419 65.4713 86.6841 64.2514 91.0305 64.3125C95.3871 64.3737 99.4113 65.724 101.77 66.9441L102.23 66.0559ZM77.6678 68.6263C76.8779 69.3284 75.763 70.6004 74.9443 72.1686C74.1264 73.7351 73.5769 75.6511 74.0119 77.6085L74.9881 77.3915C74.6231 75.7489 75.0736 74.0816 75.8307 72.6314C76.587 71.1829 77.6221 70.0049 78.3322 69.3737L77.6678 68.6263ZM74.2931 77.0448C72.3251 77.9394 68.5 81.1599 68.5 87H69.5C69.5 81.64 73.0082 78.7273 74.7069 77.9552L74.2931 77.0448ZM80.5 114.5V102H79.5V114.5H80.5ZM80.5 102V99H79.5V102H80.5ZM68.5017 86.9585C68.3281 89.0414 68.6911 92.2907 70.335 95.3374C71.9883 98.4017 74.9324 101.248 79.8787 102.485L80.1213 101.515C75.4676 100.352 72.745 97.6983 71.215 94.8626C69.6755 92.0093 69.3385 88.9585 69.4983 87.0415L68.5017 86.9585ZM92.2339 76.4419C94.6536 75.1609 100.354 74.1553 105.13 79.4255L105.871 78.754C100.713 73.0631 94.4832 74.1196 91.7661 75.5581L92.2339 76.4419ZM105.13 79.4255C105.626 79.9731 106.113 80.5896 106.587 81.2823L107.413 80.7177C106.914 79.9893 106.399 79.3368 105.871 78.754L105.13 79.4255ZM106 82V79.0897H105V82H106ZM79.858 114.021C75.3682 115.351 65.2153 118.631 60.7606 121.061L61.2394 121.939C65.5847 119.569 75.6318 116.316 80.142 114.979L79.858 114.021ZM60.6039 121.195C56.6575 126.317 51.0816 135.487 47.1422 146.393C43.2039 157.295 40.8841 169.98 43.5113 182.106L44.4887 181.894C41.9159 170.02 44.1795 157.538 48.0828 146.732C51.985 135.93 57.5092 126.85 61.3961 121.805L60.6039 121.195ZM67.4852 149.621C68.2482 146.55 68.8545 141.466 68.2089 136.143C67.5634 130.821 65.6589 125.201 61.3428 121.136L60.6572 121.864C64.7411 125.71 66.5866 131.072 67.2161 136.263C67.8455 141.453 67.2518 146.413 66.5148 149.379L67.4852 149.621ZM57.924 169.265C59.4658 166.798 62.1022 162.255 64.2822 157.716L63.3808 157.284C61.2204 161.781 58.6031 166.292 57.076 168.735L57.924 169.265ZM64.2822 157.716C65.6522 154.864 66.853 151.992 67.4831 149.629L66.5169 149.371C65.911 151.643 64.7422 154.449 63.3808 157.284L64.2822 157.716ZM95.0399 171.502L65.1945 169.114L65.1148 170.111L94.9601 172.498L95.0399 171.502ZM65.1945 169.114L57.5399 168.502L57.4601 169.498L65.1148 170.111L65.1945 169.114ZM63.3345 157.554L64.6576 169.667L65.6517 169.558L64.3285 157.446L63.3345 157.554ZM43.7764 182.447C46.7011 183.91 54.0578 185.858 65.9788 186.364L66.0212 185.365C54.1527 184.861 46.9619 182.922 44.2236 181.553L43.7764 182.447ZM65.9788 186.364C73.7174 186.693 83.3952 186.415 95.0604 184.996L94.9396 184.004C83.3243 185.416 73.7012 185.691 66.0212 185.365L65.9788 186.364ZM65.5005 185.842L64.5005 207.977L65.4995 208.023L66.4995 185.887L65.5005 185.842ZM121.998 204.951L119.998 184.451L119.002 184.549L121.002 205.049L121.998 204.951ZM119.5 185H139V184H119.5V185ZM108.429 184.505C107.34 184.661 104.543 184.594 102.277 183.084L101.723 183.916C104.257 185.606 107.327 185.673 108.571 185.495L108.429 184.505ZM95.5 184.5V182.5H94.5V184.5H95.5ZM102.248 183.066C101.62 182.707 100.521 182.238 99.2165 181.961C97.9117 181.684 96.3657 181.59 94.8626 182.019L95.1374 182.981C96.4343 182.61 97.8049 182.683 99.0085 182.939C100.212 183.195 101.214 183.627 101.752 183.934L102.248 183.066ZM95.5 182.5V174H94.5V182.5H95.5ZM95.5 174V172H94.5V174H95.5ZM94.8143 174.464C95.9031 174.9 98.3008 174.739 100.407 171.791L99.5931 171.209C97.6992 173.861 95.7635 173.767 95.1857 173.536L94.8143 174.464ZM100.407 171.791C100.841 171.183 101.542 170.66 102.439 170.221C103.332 169.783 104.387 169.444 105.489 169.187C107.694 168.672 110.03 168.5 111.5 168.5V167.5C109.97 167.5 107.556 167.678 105.261 168.213C104.113 168.481 102.981 168.842 101.999 169.323C101.02 169.802 100.159 170.417 99.5931 171.209L100.407 171.791ZM111.015 168.121C111.078 168.372 110.988 169.738 107.879 170.515L108.121 171.485C111.412 170.662 112.256 168.961 111.985 167.879L111.015 168.121ZM107.752 170.566C107.433 170.748 107.075 170.997 106.754 171.291C106.437 171.582 106.132 171.942 105.954 172.351C105.771 172.772 105.718 173.263 105.949 173.754C106.172 174.227 106.623 174.621 107.276 174.947L107.724 174.053C107.177 173.779 106.944 173.519 106.854 173.327C106.772 173.153 106.775 172.97 106.871 172.749C106.972 172.517 107.169 172.268 107.431 172.028C107.688 171.791 107.984 171.585 108.248 171.434L107.752 170.566ZM114.277 172.916C114.492 172.773 114.822 172.613 115.112 172.569C115.253 172.548 115.35 172.56 115.411 172.583C115.459 172.601 115.508 172.634 115.553 172.724L116.447 172.276C116.292 171.966 116.054 171.757 115.767 171.648C115.493 171.544 115.209 171.543 114.963 171.581C114.478 171.654 114.008 171.894 113.723 172.084L114.277 172.916ZM107.303 174.96C107.603 175.088 107.987 175.199 108.426 175.264L108.574 174.275C108.209 174.221 107.909 174.131 107.697 174.04L107.303 174.96ZM108.426 175.264C109.998 175.498 112.378 175.161 114.38 172.825L113.62 172.175C111.876 174.209 109.86 174.466 108.574 174.275L108.426 175.264ZM109.107 173.191L108.107 174.46L108.893 175.079L109.893 173.809L109.107 173.191ZM115.511 172.603C115.801 173.981 115.847 176.312 115.099 178.566C114.356 180.806 112.842 182.942 110.021 184.034L110.382 184.966C113.543 183.743 115.234 181.335 116.048 178.881C116.857 176.443 116.812 173.931 116.489 172.397L115.511 172.603ZM110.021 184.034C109.524 184.226 108.983 184.387 108.397 184.511L108.603 185.489C109.24 185.355 109.832 185.179 110.382 184.966L110.021 184.034ZM119.5 184H110.202V185H119.5V184ZM120.579 155.231L115.579 163.057L116.421 163.595L121.421 155.769L120.579 155.231ZM115.579 163.057L109.079 173.231L109.921 173.769L116.421 163.595L115.579 163.057ZM116.5 163.326C116.5 157.519 116.425 148.457 116.2 140.146C116.087 135.991 115.937 132.02 115.74 128.735C115.543 125.463 115.298 122.838 114.989 121.395L114.011 121.605C114.302 122.962 114.544 125.514 114.742 128.795C114.938 132.064 115.088 136.023 115.2 140.173C115.425 148.473 115.5 157.525 115.5 163.326H116.5ZM114.832 121.126C114.018 120.402 112.079 119.227 108.874 117.936C105.655 116.64 101.125 115.215 95.0981 114.01L94.9019 114.99C100.875 116.185 105.345 117.593 108.501 118.864C111.671 120.14 113.482 121.264 114.168 121.874L114.832 121.126ZM156 155H126.5V156H156V155ZM126.5 155H121V156H126.5V155ZM114.069 121.754C117.386 127.392 124.415 142.056 126.003 155.558L126.997 155.442C125.385 141.744 118.281 126.941 114.931 121.246L114.069 121.754ZM151.155 164.753L156.431 155.753L155.569 155.247L150.293 164.247L151.155 164.753ZM150.789 164.996L166.065 162.996L165.935 162.004L150.659 164.004L150.789 164.996ZM139.431 184.753L142.655 179.253L141.793 178.747L138.569 184.247L139.431 184.753ZM142.655 179.253L151.155 164.753L150.293 164.247L141.793 178.747L142.655 179.253ZM168.367 174.018C165.369 174.849 160.457 176.07 155.478 177.034C150.483 178.001 145.474 178.697 142.254 178.501L142.194 179.499C145.553 179.703 150.674 178.982 155.668 178.016C160.677 177.046 165.614 175.818 168.633 174.982L168.367 174.018ZM165.511 162.602L166.011 165.002L166.989 164.798L166.489 162.398L165.511 162.602ZM166.705 165.356C167.435 165.027 169.317 163.89 171.354 161.854L170.646 161.146C168.683 163.11 166.898 164.173 166.295 164.444L166.705 165.356ZM171.354 161.854C172.595 160.612 174.815 158.517 177.395 156.858C179.995 155.187 182.856 154.027 185.411 154.492L185.589 153.508C182.644 152.973 179.505 154.313 176.855 156.017C174.185 157.733 171.905 159.888 170.646 161.146L171.354 161.854ZM185.379 154.485C185.478 154.51 185.555 154.555 185.598 154.6C185.63 154.634 185.658 154.68 185.651 154.778C185.643 154.893 185.583 155.102 185.356 155.42C185.13 155.736 184.76 156.133 184.18 156.616L184.82 157.384C185.44 156.867 185.878 156.41 186.169 156.001C186.459 155.596 186.623 155.211 186.649 154.847C186.675 154.465 186.545 154.147 186.327 153.915C186.12 153.695 185.855 153.573 185.621 153.515L185.379 154.485ZM184.193 156.605L179.693 160.105L180.307 160.895L184.807 157.395L184.193 156.605ZM179.7 160.9C180.126 161.22 180.968 161.564 182.181 161.733C183.408 161.904 185.048 161.9 187.098 161.49L186.902 160.51C184.952 160.9 183.425 160.896 182.319 160.742C181.198 160.586 180.541 160.28 180.3 160.1L179.7 160.9ZM187.098 161.49C189.119 161.086 190.487 160.661 191.381 160.286C191.828 160.099 192.165 159.92 192.41 159.757C192.635 159.607 192.844 159.43 192.947 159.224L192.053 158.776C192.073 158.737 192.053 158.793 191.855 158.925C191.679 159.043 191.402 159.193 190.994 159.364C190.18 159.705 188.881 160.114 186.902 160.51L187.098 161.49ZM192.697 159.46C193.245 159.225 193.901 159.028 194.546 158.956C195.196 158.884 195.791 158.944 196.253 159.173C196.693 159.391 197.059 159.786 197.237 160.499C197.42 161.235 197.405 162.319 197.015 163.879L197.985 164.121C198.395 162.481 198.446 161.215 198.207 160.257C197.962 159.277 197.416 158.634 196.697 158.277C196.001 157.931 195.192 157.878 194.435 157.962C193.674 158.047 192.922 158.275 192.303 158.54L192.697 159.46ZM197.015 163.879C196.263 166.887 193.984 168.959 191.356 170.332C188.729 171.704 185.821 172.34 183.957 172.502L184.043 173.498C186.013 173.327 189.054 172.663 191.819 171.218C194.583 169.774 197.137 167.513 197.985 164.121L197.015 163.879ZM184 172.5C183.268 172.5 182.037 172.451 180.744 172.303C179.443 172.155 178.122 171.91 177.186 171.536L176.814 172.464C177.878 172.89 179.307 173.145 180.631 173.297C181.963 173.449 183.232 173.5 184 173.5V172.5ZM166.011 165.002L167.698 173.102L168.677 172.898L166.989 164.798L166.011 165.002ZM167.698 173.102L168.011 174.602L168.989 174.398L168.677 172.898L167.698 173.102ZM177.186 171.536C176.597 171.3 175.853 171.221 175.072 171.225C174.283 171.229 173.415 171.32 172.555 171.456C170.835 171.727 169.107 172.184 168.036 172.523L168.339 173.477C169.372 173.149 171.05 172.706 172.711 172.444C173.541 172.313 174.356 172.229 175.078 172.225C175.809 172.221 176.403 172.3 176.814 172.464L177.186 171.536ZM119.527 205.609L121.527 205.499L121.473 204.501L119.473 204.611L119.527 205.609ZM119.003 205.167L119.503 209.557L120.497 209.443L119.997 205.054L119.003 205.167ZM65.0265 208.499L67.0265 208.393L66.9735 207.395L64.9735 207.501L65.0265 208.499ZM67.0265 208.393L119.526 205.609L119.474 204.611L66.9735 207.395L67.0265 208.393ZM66.5 207.894V211.5H67.5V207.894H66.5ZM67.0189 212L120.019 210L119.981 209L66.9811 211L67.0189 212ZM66.5004 211.521C67.1671 227.522 68.6003 263.917 69.0001 281.511L69.9999 281.489C69.5997 263.883 68.1662 227.478 67.4996 211.479L66.5004 211.521ZM69.0007 281.526L70.5007 310.526L71.4993 310.474L69.9993 281.474L69.0007 281.526ZM70.5 310.5V351.5H71.5V310.5H70.5ZM88.9961 351.562C90.6615 338.239 94 308.538 94 296.5H93C93 308.462 89.6718 338.095 88.0039 351.438L88.9961 351.562ZM93.9987 296.536L96.4987 262.036L95.5013 261.964L93.0013 296.464L93.9987 296.536ZM102.467 223.993C102.488 223.619 102.5 223.286 102.5 223H101.5C101.5 223.261 101.489 223.573 101.469 223.935L102.467 223.993ZM102.5 223C102.5 221.7 102.499 220.953 102.496 220.604C102.496 220.517 102.495 220.452 102.495 220.41C102.494 220.39 102.494 220.371 102.493 220.356C102.493 220.351 102.493 220.336 102.491 220.319C102.49 220.314 102.49 220.305 102.488 220.293C102.487 220.287 102.483 220.258 102.472 220.222C102.465 220.199 102.439 220.137 102.417 220.099C102.359 220.023 102.113 219.878 101.922 219.869C101.768 219.917 101.59 220.067 101.552 220.128C101.536 220.159 101.517 220.211 101.511 220.229C101.502 220.261 101.498 220.287 101.498 220.293C101.496 220.304 101.495 220.312 101.495 220.317C101.494 220.327 101.493 220.335 101.493 220.34C101.492 220.349 101.492 220.358 101.492 220.365C101.491 220.38 101.491 220.398 101.49 220.419C101.49 220.461 101.489 220.52 101.488 220.593C101.481 221.175 101.473 222.718 101.468 223.962L102.468 223.966C102.473 222.721 102.481 221.182 102.488 220.605C102.489 220.533 102.489 220.477 102.49 220.439C102.491 220.42 102.491 220.407 102.491 220.4C102.491 220.396 102.491 220.396 102.491 220.399C102.491 220.401 102.491 220.406 102.49 220.414C102.49 220.418 102.489 220.426 102.487 220.436C102.487 220.441 102.483 220.467 102.474 220.498C102.469 220.517 102.449 220.568 102.434 220.599C102.395 220.66 102.218 220.81 102.064 220.858C101.872 220.849 101.627 220.704 101.568 220.628C101.547 220.59 101.521 220.528 101.514 220.506C101.503 220.47 101.499 220.441 101.498 220.436C101.497 220.425 101.496 220.417 101.495 220.412C101.494 220.399 101.494 220.39 101.494 220.394C101.494 220.397 101.494 220.407 101.495 220.426C101.495 220.463 101.496 220.523 101.496 220.61C101.499 220.956 101.5 221.7 101.5 223H102.5ZM119.5 209.479L116.5 279.479L117.5 279.521L120.5 209.521L119.5 209.479ZM116.502 279.459L113.002 322.459L113.998 322.541L117.498 279.541L116.502 279.459ZM113.004 322.433L109.504 348.433L110.496 348.567L113.996 322.567L113.004 322.433ZM109.515 348.621L110.015 350.621L110.985 350.379L110.485 348.379L109.515 348.621ZM94.9881 350.608L95.9881 346.108L95.0119 345.892L94.0119 350.392L94.9881 350.608ZM95.9989 346.033L97.9989 316.033L97.0011 315.967L95.0011 345.967L95.9989 346.033ZM96.4917 262.091C97.0171 259.245 97.6803 255.563 98.3727 251.586L97.3876 251.414C96.6957 255.388 96.0331 259.067 95.5083 261.909L96.4917 262.091ZM98.3727 251.586C100.176 241.227 102.188 228.813 102.467 223.993L101.469 223.935C101.194 228.684 99.1955 241.03 97.3876 251.414L98.3727 251.586ZM98 316.003L98.3801 251.503L97.3802 251.497L97 315.997L98 316.003ZM110.5 350H108.5V351H110.5V350ZM108.04 350.697L109.54 354.197L110.46 353.803L108.96 350.303L108.04 350.697ZM109.845 354.476L129.845 360.976L130.155 360.024L110.155 353.524L109.845 354.476ZM129.646 360.854C129.829 361.036 130.016 361.268 130.154 361.511C130.295 361.759 130.364 361.982 130.363 362.159C130.361 362.311 130.311 362.453 130.14 362.591C129.948 362.746 129.584 362.911 128.929 363.005L129.071 363.995C129.816 363.889 130.381 363.683 130.769 363.368C131.179 363.037 131.359 362.61 131.362 362.166C131.365 361.747 131.211 361.347 131.024 361.017C130.834 360.682 130.587 360.38 130.354 360.146L129.646 360.854ZM129 363H107V364H129V363ZM107.422 363.232C106.19 361.296 102.144 357.237 95.5921 356.009L95.4079 356.991C101.656 358.163 105.477 362.037 106.578 363.768L107.422 363.232ZM85 352H88.5V351H85V352ZM71 352H73.5V351H71V352ZM73.5 352H85V351H73.5V352ZM72.076 356.235C71.6414 356.93 71.0244 358.114 70.5652 359.436C70.1099 360.747 69.7862 362.259 70.0068 363.582L70.9932 363.418C70.8138 362.341 71.0735 361.02 71.5098 359.764C71.9422 358.519 72.5252 357.403 72.924 356.765L72.076 356.235ZM70.5 364H107V363H70.5V364ZM108.5 350H97.5V351H108.5V350ZM97.5 350H94.5V351H97.5V350ZM97.0257 350.342L95.6923 354.342L96.641 354.658L97.9743 350.658L97.0257 350.342ZM95.6923 354.342L95.0257 356.342L95.9743 356.658L96.641 354.658L95.6923 354.342ZM96.1227 354.998C98.0227 355.166 100.997 355.342 103.753 355.325C105.13 355.317 106.463 355.26 107.585 355.128C108.681 354.999 109.657 354.789 110.257 354.429L109.743 353.571C109.343 353.811 108.562 354.006 107.467 354.135C106.398 354.261 105.106 354.317 103.747 354.325C101.031 354.342 98.0885 354.168 96.2106 354.002L96.1227 354.998ZM73.0097 351.598C73.1315 352.207 73.1816 353.73 72.537 355.31L73.463 355.688C74.189 353.907 74.1466 352.183 73.9903 351.402L73.0097 351.598ZM72.537 355.31C72.4099 355.622 72.2562 355.935 72.0713 356.243L72.9287 356.757C73.1416 356.403 73.3178 356.044 73.463 355.688L72.537 355.31ZM95.603 356.011C94.315 355.74 92.4576 355.255 90.6687 354.613L90.3313 355.555C92.1697 356.214 94.0718 356.71 95.397 356.989L95.603 356.011ZM90.6687 354.613C89.393 354.156 88.1706 353.626 87.2177 353.046C86.2396 352.452 85.6492 351.866 85.4743 351.342L84.5257 351.658C84.8207 352.543 85.6893 353.287 86.6982 353.901C87.7324 354.53 89.025 355.086 90.3313 355.555L90.6687 354.613ZM72.9945 355.999C75.5806 356.027 79.5602 356.04 83.0949 355.988C84.8618 355.962 86.5216 355.919 87.842 355.853C88.5019 355.82 89.0814 355.782 89.5493 355.736C90.0056 355.691 90.3905 355.637 90.6402 355.564L90.3598 354.604C90.2095 354.648 89.909 354.696 89.4519 354.741C89.0063 354.784 88.4445 354.822 87.7924 354.855C86.4889 354.919 84.8423 354.962 83.0801 354.988C79.5565 355.04 75.586 355.027 73.0055 354.999L72.9945 355.999ZM246.01 88.3995C245.336 91.6858 244.707 97.1036 245.001 102.714C245.294 108.309 246.51 114.181 249.6 118.3L250.4 117.7C247.49 113.819 246.289 108.191 245.999 102.661C245.71 97.1464 246.331 91.8142 246.99 88.6005L246.01 88.3995ZM249.723 118.416C250.658 119.039 252.189 119.543 254.047 119.369L253.953 118.374C252.319 118.527 251.018 118.078 250.277 117.584L249.723 118.416ZM254.047 119.369C256.644 119.126 259.82 117.565 262.905 113.293L262.095 112.707C259.136 116.803 256.2 118.163 253.953 118.374L254.047 119.369ZM253.5 118.871V125.5H254.5V118.871H253.5ZM241.515 128.879L239.015 138.879L239.985 139.121L242.485 129.121L241.515 128.879ZM239.089 138.715L234.589 145.215L235.411 145.785L239.911 139.285L239.089 138.715ZM234.546 145.29C233.467 147.629 232.604 154.422 237.049 163.716L237.951 163.284C233.596 154.178 234.533 147.705 235.454 145.71L234.546 145.29ZM238 169.984L237 201.984L238 202.016L239 170.016L238 169.984ZM237.776 202.417L264.276 184.917L263.724 184.083L237.224 201.583L237.776 202.417ZM264.496 184.559L268.496 151.059L267.504 150.941L263.504 184.441L264.496 184.559ZM268.498 151.043C268.745 148.168 269.609 143.779 271.39 139.975C273.18 136.153 275.827 133.057 279.574 132.494L279.426 131.506C275.173 132.143 272.32 135.63 270.485 139.55C268.641 143.488 267.755 147.999 267.502 150.957L268.498 151.043ZM279.418 132.493C280.336 132.646 282.608 133.436 284.11 135.312L284.89 134.688C283.192 132.564 280.664 131.687 279.582 131.507L279.418 132.493ZM234.777 204.416L237.777 202.416L237.223 201.584L234.223 203.584L234.777 204.416ZM240.496 213.434C240.436 212.989 240.34 212.462 240.204 211.885L239.231 212.115C239.36 212.663 239.45 213.157 239.504 213.566L240.496 213.434ZM235.012 214.892C234.691 216.335 233.838 218.705 232.329 221.055C230.821 223.403 228.677 225.699 225.789 227.047L226.211 227.953C229.323 226.501 231.596 224.047 233.171 221.595C234.745 219.145 235.642 216.665 235.988 215.108L235.012 214.892ZM226 227H220.5V228H226V227ZM220.994 227.58L223.123 214.375L222.136 214.216L220.006 227.42L220.994 227.58ZM225.251 211.233L230.757 207.929L230.243 207.071L224.736 210.375L225.251 211.233ZM240.204 211.885C239.913 210.651 239.433 209.171 238.721 207.78C238.01 206.393 237.052 205.063 235.79 204.166L235.21 204.981C236.295 205.751 237.161 206.929 237.831 208.236C238.498 209.539 238.953 210.939 239.231 212.115L240.204 211.885ZM235.79 204.166C235.45 203.924 235.088 203.714 234.703 203.543L234.297 204.457C234.617 204.599 234.921 204.775 235.21 204.981L235.79 204.166ZM230.753 207.932L235.753 205.005L235.247 204.142L230.247 207.068L230.753 207.932ZM279.659 177.879C278.435 182.801 276.913 187.835 275.032 192.824L275.968 193.176C277.864 188.147 279.398 183.075 280.63 178.121L279.659 177.879ZM279.646 178.035L281.001 197.535L281.999 197.465L280.643 177.965L279.646 178.035ZM281.01 197.598L282.51 205.098L283.49 204.902L281.99 197.402L281.01 197.598ZM275.25 192.567L251.25 206.426L251.75 207.292L275.75 193.433L275.25 192.567ZM251.25 206.426L239.75 213.067L240.25 213.933L251.75 207.292L251.25 206.426ZM282.95 204.503C275.609 205.243 259.078 206.645 251.519 206.36L251.481 207.359C259.122 207.648 275.725 206.236 283.05 205.497L282.95 204.503ZM282.503 205.056C283.093 210.336 283.36 225.248 279.656 242.394L280.633 242.606C284.36 225.352 284.099 210.331 283.497 204.944L282.503 205.056ZM279.648 242.438L277.004 263.438L277.996 263.562L280.641 242.562L279.648 242.438ZM277.01 263.599C278.067 268.838 279.561 277.449 280.605 286.246C281.65 295.057 282.238 304.004 281.504 309.939L282.496 310.061C283.247 303.996 282.644 294.943 281.598 286.129C280.55 277.301 279.052 268.662 277.99 263.401L277.01 263.599ZM281.504 309.939C280.013 321.992 280.883 342.702 281.501 351.535L282.499 351.465C281.88 342.631 281.018 322.008 282.496 310.061L281.504 309.939ZM267.997 351.447L262.497 299.447L261.503 299.553L267.003 351.553L267.997 351.447ZM257.495 260.433L251.995 219.933L251.005 220.067L256.505 260.567L257.495 260.433ZM239.428 211.593L237.319 213.093L237.899 213.907L240.007 212.407L239.428 211.593ZM237.319 213.093L235.21 214.593L235.79 215.407L237.899 213.907L237.319 213.093ZM237.109 213.489L236 263.489L237 263.511L238.109 213.511L237.109 213.489ZM236 263.5V282H237V263.5H236ZM236 282V349.5H237V282H236ZM253 349.5V289.5H252V349.5H253ZM262.496 299.436L258.073 264.936L257.081 265.064L261.504 299.564L262.496 299.436ZM258.073 264.936L257.496 260.436L256.504 260.564L257.081 265.064L258.073 264.936ZM252.99 289.601L258.067 265.101L257.087 264.899L252.01 289.399L252.99 289.601ZM249.5 350H252.5V349H249.5V350ZM249 349.5V352H250V349.5H249ZM252 362.5H217V363.5H252V362.5ZM217.474 363.158C217.596 362.794 218.082 362.046 219.217 361.231C220.338 360.425 222.067 359.575 224.612 358.987L224.388 358.013C221.733 358.625 219.878 359.525 218.633 360.419C217.402 361.304 216.738 362.206 216.526 362.842L217.474 363.158ZM236.5 350H238V349H236.5V350ZM238 350H249.5V349H238V350ZM224.523 358.999C226.623 358.904 230.028 358.22 233.006 356.429L232.491 355.571C229.684 357.259 226.449 357.911 224.477 358.001L224.523 358.999ZM233.006 356.429C235.401 354.988 237.546 352.816 238.48 349.641L237.52 349.359C236.675 352.233 234.732 354.224 232.491 355.571L233.006 356.429ZM249.053 352.224C249.343 352.804 249.716 353.656 250.086 354.671L251.026 354.329C250.645 353.282 250.257 352.395 249.947 351.776L249.053 352.224ZM250.086 354.671C250.955 357.058 251.771 360.263 251.502 362.95L252.498 363.05C252.789 360.135 251.91 356.758 251.026 354.329L250.086 354.671ZM232.296 356.211C232.528 356.71 233.058 357.125 233.822 357.415C234.597 357.708 235.672 357.896 237.1 357.9C239.958 357.909 244.314 357.182 250.719 354.973L250.393 354.027C244.043 356.218 239.805 356.908 237.103 356.9C235.752 356.896 234.805 356.717 234.176 356.479C233.536 356.237 233.28 355.956 233.202 355.789L232.296 356.211ZM282 351H280V352H282V351ZM279.526 351.658L280.526 354.658L281.474 354.342L280.474 351.342L279.526 351.658ZM286 363H254V364H286V363ZM254.47 363.671C255.068 362.027 257.934 358.276 264.558 357.497L264.442 356.503C257.466 357.324 254.266 361.307 253.53 363.329L254.47 363.671ZM280 351H271V352H280V351ZM271 351H267.5V352H271V351ZM264.558 357.497C266.026 357.324 267.217 357.04 268.177 356.678L267.823 355.742C266.956 356.07 265.848 356.338 264.442 356.503L264.558 357.497ZM268.177 356.678C269.969 356.001 270.973 355.043 271.432 354.021C271.887 353.005 271.77 352 271.457 351.297L270.543 351.703C270.756 352.183 270.843 352.889 270.519 353.612C270.198 354.327 269.44 355.132 267.823 355.742L268.177 356.678ZM280.666 354.872C281.058 355.225 281.554 355.724 282.078 356.328L282.834 355.672C282.285 355.04 281.761 354.512 281.334 354.128L280.666 354.872ZM282.078 356.328C282.884 357.256 283.745 358.42 284.403 359.675C285.062 360.935 285.5 362.253 285.5 363.5H286.5C286.5 362.031 285.989 360.549 285.289 359.211C284.586 357.87 283.675 356.642 282.834 355.672L282.078 356.328ZM267.622 356.537C267.908 356.868 268.408 357.158 269.086 357.382C269.778 357.61 270.701 357.785 271.888 357.853C274.262 357.988 277.727 357.693 282.577 356.485L282.335 355.515C277.55 356.707 274.189 356.982 271.945 356.855C270.822 356.791 269.989 356.627 269.4 356.432C268.798 356.234 268.494 356.017 268.378 355.883L267.622 356.537ZM241.566 128.753L221.066 164.753L221.934 165.247L242.434 129.247L241.566 128.753ZM221.079 164.73L216.579 171.73L217.421 172.27L221.921 165.27L221.079 164.73ZM216.821 171.533L186.821 183.033L187.179 183.967L217.179 172.467L216.821 171.533ZM189.62 194.986L222.12 186.986L221.88 186.014L189.38 194.014L189.62 194.986ZM222.176 186.968C223.597 186.435 226.952 184.473 229.416 180.777L228.584 180.223C226.248 183.727 223.07 185.565 221.824 186.032L222.176 186.968ZM237.006 163.576L237.506 166.826L238.494 166.674L237.994 163.424L237.006 163.576ZM237.506 166.826L238.006 170.076L238.994 169.924L238.494 166.674L237.506 166.826ZM229.418 180.774L238.418 167.024L237.582 166.476L228.582 180.226L229.418 180.774ZM261.329 94.4699C262.958 95.0623 266.387 97.7944 266.001 103.969L266.999 104.031C267.413 97.4056 263.709 94.2711 261.671 93.5301L261.329 94.4699ZM266.932 104.252C267.499 103.279 268.44 102.103 269.418 101.593C269.893 101.346 270.329 101.28 270.728 101.41C271.131 101.541 271.599 101.908 272.063 102.743L272.937 102.257C272.401 101.292 271.765 100.696 271.038 100.459C270.306 100.22 269.586 100.379 268.957 100.707C267.726 101.347 266.667 102.721 266.068 103.748L266.932 104.252ZM272.007 102.582C272.162 103.514 272.134 104.931 271.572 106.139C271.026 107.311 269.968 108.319 267.955 108.502L268.045 109.498C270.432 109.281 271.79 108.039 272.478 106.561C273.149 105.119 273.171 103.486 272.993 102.418L272.007 102.582ZM265.5 112.979L265 124.979L266 125.021L266.5 113.021L265.5 112.979ZM245.36 127.499L241.86 128.52L242.14 129.48L245.64 128.459L245.36 127.499ZM245.982 127.847C244.504 122.435 242.606 106.934 246.986 88.6163L246.014 88.3837C241.594 106.866 243.496 122.537 245.018 128.111L245.982 127.847ZM246.937 88.7428C248.56 85.821 253.775 79.775 261.55 78.9975L261.45 78.0025C253.225 78.825 247.773 85.179 246.063 88.2572L246.937 88.7428ZM261.594 78.991C265.672 78.2069 275.408 79.987 280.53 94.1698L281.47 93.8302C276.192 79.213 265.995 77.1264 261.406 78.009L261.594 78.991ZM280.51 94.0981C280.999 96.5442 281.697 103.486 280.506 111.426L281.494 111.574C282.703 103.514 282.001 96.4558 281.49 93.9019L280.51 94.0981ZM280.506 111.424C280.331 112.561 280.281 114.422 280.686 116.365C281.09 118.306 281.961 120.38 283.671 121.876L284.329 121.124C282.839 119.82 282.043 117.977 281.664 116.16C281.286 114.345 281.336 112.605 281.494 111.576L280.506 111.424ZM284.003 135.051C284.233 137.305 284.351 140.914 284.2 145.483L285.2 145.517C285.352 140.919 285.233 137.262 284.997 134.949L284.003 135.051ZM284.2 145.483C283.922 153.898 282.731 165.529 279.659 177.879L280.63 178.121C283.721 165.691 284.919 153.989 285.2 145.517L284.2 145.483ZM283.671 121.876C285.656 123.614 289.167 127.163 290.511 131.401C291.178 133.505 291.307 135.764 290.463 138.062C289.618 140.363 287.779 142.756 284.415 145.089L284.985 145.911C288.471 143.494 290.469 140.949 291.402 138.407C292.337 135.861 292.184 133.37 291.464 131.099C290.033 126.587 286.344 122.886 284.329 121.124L283.671 121.876ZM188.444 192.111L189.012 194.611L189.988 194.389L189.419 191.889L188.444 192.111ZM188.732 191.542L185.3 193.042L185.7 193.958L189.132 192.458L188.732 191.542ZM185.036 193.314C184.388 194.934 183.044 197.378 181.136 199.408C179.225 201.441 176.806 203 174 203V204C177.194 204 179.859 202.226 181.864 200.092C183.873 197.956 185.279 195.399 185.964 193.686L185.036 193.314ZM174 203C168.102 203 165.848 200.71 165.46 199.803L164.54 200.197C165.152 201.623 167.898 204 174 204V203ZM165.481 199.863C165.349 199.402 165.371 198.71 165.857 198.135C166.341 197.563 167.377 197 169.5 197V196C167.223 196 165.842 196.604 165.093 197.49C164.346 198.374 164.318 199.432 164.519 200.137L165.481 199.863ZM169.5 197C171.851 197 173.676 196.017 174.989 194.805C176.295 193.6 177.112 192.155 177.47 191.171L176.53 190.829C176.221 191.678 175.488 192.983 174.311 194.07C173.141 195.15 171.549 196 169.5 196V197ZM176.918 190.507L170.918 191.507L171.082 192.493L177.082 191.493L176.918 190.507ZM171 191.5C170.785 191.5 170.618 191.465 170.53 191.422C170.491 191.402 170.494 191.394 170.506 191.412C170.523 191.438 170.521 191.462 170.522 191.455C170.527 191.405 170.592 191.208 170.963 190.832C171.316 190.473 171.891 190.007 172.777 189.416L172.223 188.584C171.309 189.193 170.671 189.702 170.25 190.131C169.845 190.542 169.573 190.945 169.528 191.345C169.504 191.563 169.549 191.774 169.666 191.955C169.778 192.128 169.934 192.242 170.083 192.316C170.37 192.46 170.715 192.5 171 192.5V191.5ZM172.679 189.467L179.179 186.967L178.821 186.033L172.321 188.533L172.679 189.467ZM179 187H184V186H179V187ZM186.512 183.611L186.967 185.611L187.942 185.389L187.488 183.389L186.512 183.611ZM186.967 185.611L188.444 192.111L189.419 191.889L187.942 185.389L186.967 185.611ZM184.139 186.98L187.594 185.98L187.316 185.02L183.861 186.02L184.139 186.98ZM266.494 112.922C266.42 112.457 266.421 111.707 266.66 111.015C266.894 110.338 267.341 109.745 268.157 109.475L267.843 108.525C266.659 108.918 266.023 109.796 265.715 110.689C265.412 111.567 265.413 112.486 265.506 113.078L266.494 112.922ZM250 88H246.5V89H250V88ZM261.63 93.5172C257.21 92.3271 254.78 91.4357 253.336 90.7012C251.924 89.9834 251.459 89.4212 250.967 88.8334L250.2 89.4752C250.744 90.1245 251.309 90.793 252.882 91.5926C254.423 92.3756 256.934 93.2884 261.37 94.4828L261.63 93.5172ZM250.967 88.8334C250.788 88.6192 250.594 88.3869 250.354 88.1464L249.646 88.8536C249.851 89.0584 250.019 89.2581 250.2 89.4752L250.967 88.8334ZM253.86 125.02L250.556 125.984L250.836 126.944L254.14 125.98L253.86 125.02ZM250.556 125.984L245.36 127.499L245.64 128.459L250.836 126.944L250.556 125.984ZM265.365 125.481C266.61 125.832 268.186 126.326 269.898 126.935L270.233 125.993C268.501 125.377 266.904 124.875 265.635 124.519L265.365 125.481ZM269.898 126.935C272.677 127.923 275.801 129.206 278.45 130.654C279.774 131.378 280.971 132.138 281.944 132.917C282.921 133.699 283.647 134.48 284.061 135.239L284.939 134.761C284.436 133.838 283.597 132.96 282.569 132.136C281.536 131.31 280.286 130.518 278.929 129.777C276.217 128.294 273.04 126.99 270.233 125.993L269.898 126.935ZM250.196 126.484C250.276 128.489 251.45 130.914 254.648 131.612C257.77 132.293 262.717 131.297 270.316 126.896L269.815 126.031C262.268 130.401 257.602 131.233 254.862 130.635C252.198 130.054 251.261 128.093 251.195 126.444L250.196 126.484ZM223.123 214.375C223.335 213.065 224.113 211.915 225.251 211.233L224.736 210.375C223.346 211.209 222.394 212.615 222.136 214.216L223.123 214.375Z" fill="#18376B"/>
<path d="M162.5 35.5H243.5C245.985 35.5 248 37.5147 248 40V65C248 67.4853 245.985 69.5 243.5 69.5H201.5C200.672 69.5 200 70.1716 200 71V84.7546C200 85.1926 199.49 85.4096 199.178 85.1234C196.697 82.8505 193.541 79.8797 190.773 77.1034C187.988 74.3106 185.642 71.7605 184.736 70.3128C184.451 69.8573 183.945 69.5 183.341 69.5H162.5C160.015 69.5 158 67.4853 158 65V40C158 37.5147 160.015 35.5 162.5 35.5Z" fill="white" stroke="#18376B"/>
<path d="M141.5 0.5H43.5C41.0147 0.5 39 2.51472 39 5V40C39 42.4853 41.0147 44.5 43.5 44.5H117.752C118.417 44.5 119.003 44.9384 119.191 45.5768L123.532 60.3355C123.64 60.7036 124.054 60.7802 124.277 60.5487C128.549 56.1087 132.825 48.4832 134.276 45.3887C134.525 44.8584 135.057 44.5 135.659 44.5H141.5C143.985 44.5 146 42.4853 146 40V5C146 2.51472 143.985 0.5 141.5 0.5Z" fill="white" stroke="#18376B"/>
<path d="M45.5 10H72.5V12H45.5V10Z" fill="#A2C9E1"/>
<path d="M45.5 16H94.5V18H45.5V16Z" fill="#A2C9E1"/>
<path d="M97.5 16H137.5V18H97.5V16Z" fill="#A2C9E1"/>
<path d="M75.5 10H109.5V12H75.5V10Z" fill="#A2C9E1"/>
<path d="M112.5 10H137.5V12H112.5V10Z" fill="#A2C9E1"/>
<path d="M137.5 22H110.5V24H137.5V22Z" fill="#A2C9E1"/>
<path d="M137.5 28H88.5V30H137.5V28Z" fill="#A2C9E1"/>
<path d="M78.5 34H45.5V36H78.5V34Z" fill="#A2C9E1"/>
<path d="M85.5 28H45.5V30H85.5V28Z" fill="#A2C9E1"/>
<path d="M107.5 22H73.5V24H107.5V22Z" fill="#A2C9E1"/>
<path d="M70.5 22H45.5V24H70.5V22Z" fill="#A2C9E1"/>
<path d="M162.5 42H204.5V44H162.5V42Z" fill="#A2C9E1"/>
<path d="M207.5 42H242.5V44H207.5V42Z" fill="#A2C9E1"/>
<path d="M242.5 48H219.5V50H242.5V48Z" fill="#A2C9E1"/>
<path d="M242.5 54H203.5V56H242.5V54Z" fill="#A2C9E1"/>
<path d="M191.196 60H162.5V62H191.196V60Z" fill="#A2C9E1"/>
<path d="M200.5 54H162.5V56H200.5V54Z" fill="#A2C9E1"/>
<path d="M216.5 48H187.5V50H216.5V48Z" fill="#A2C9E1"/>
<path d="M184.5 48H162.5V50H184.5V48Z" fill="#A2C9E1"/>
</svg>
