<svg width="428" height="333" viewBox="0 0 428 333" fill="none" xmlns="http://www.w3.org/2000/svg">
<path d="M18 331H358.5" stroke="#18376B" stroke-linecap="round"/>
<mask id="mask0_38_26" style="mask-type:alpha" maskUnits="userSpaceOnUse" x="7" y="0" width="329" height="328">
<circle r="164" transform="matrix(-1 0 0 1 171.5 164)" fill="#FFCDCF"/>
</mask>
<g mask="url(#mask0_38_26)">
<circle r="164" transform="matrix(-1 0 0 1 171.5 164)" fill="#E1EBF2"/>
<path d="M44.5 47.5H183.5C186.261 47.5 188.5 49.7386 188.5 52.5V54C188.5 56.7614 186.261 59 183.5 59H175.5M175.5 59H44.5V59C42.567 59 41 60.567 41 62.5V100.5M175.5 59V131M61.5 155.5H170.5C173.261 155.5 175.5 153.261 175.5 150.5V131M61.5 155.5V105.5C61.5 102.739 59.2614 100.5 56.5 100.5H41M61.5 155.5V175.5M10.5 100.5H41M61.5 292.5V281.5M5.5 175.5H38.5C41.2614 175.5 43.5 177.739 43.5 180.5V189M43.5 274V189M43.5 189H16M-5 189H16M16 189V228M61.5 175.5H202.5C205.261 175.5 207.5 177.739 207.5 180.5C207.5 185.08 207.5 189.383 207.5 193.5M61.5 175.5V193.5M207.5 298.5H61.5M207.5 298.5H227M207.5 298.5V281.5M295.5 298.5H285M227 298.5V273M227 298.5H285M175.5 131H222C224.761 131 227 133.239 227 136V273M227 273C227.275 272.786 227.64 272.557 228.083 272.342C231.762 270.558 237.142 267.197 238.179 263.242C239.834 256.932 244.301 251.554 254.399 254.327C254.791 254.435 255.205 254.506 255.61 254.54C261.724 255.059 270.803 259.167 267.795 271.644C267.007 274.912 268.881 278.497 272.067 279.57C279.938 282.22 288.388 288.028 285 298.5M207.5 281.5H61.5M207.5 281.5V259M61.5 281.5V259M61.5 259H207.5M61.5 259V237M207.5 259C207.5 250.935 207.5 243.746 207.5 237M207.5 237H61.5M207.5 237C207.5 229.126 207.5 221.856 207.5 214.5M61.5 237V214.5M61.5 214.5H207.5M61.5 214.5V193.5M207.5 214.5C207.5 207.75 207.5 200.927 207.5 193.5M207.5 193.5H61.5M98.5 71H155.5C158.261 71 160.5 73.2386 160.5 76V132.5C160.5 135.261 158.261 137.5 155.5 137.5H103.5H100C97.2386 137.5 95 135.261 95 132.5V74.5C95 72.567 96.567 71 98.5 71V71ZM34.5 263H28.5C26.2909 263 24.5 261.209 24.5 259V259C24.5 256.791 26.2909 255 28.5 255H34.5C36.7091 255 38.5 256.791 38.5 259V259C38.5 261.209 36.7091 263 34.5 263ZM34.5 249H28.5C26.2909 249 24.5 247.209 24.5 245V245C24.5 242.791 26.2909 241 28.5 241H34.5C36.7091 241 38.5 242.791 38.5 245V245C38.5 247.209 36.7091 249 34.5 249ZM24.5 231V231C24.5 228.791 26.2909 227 28.5 227H34.5C36.7091 227 38.5 228.791 38.5 231V231C38.5 233.209 36.7091 235 34.5 235H28.5C26.2909 235 24.5 233.209 24.5 231ZM24.5 216V216C24.5 213.791 26.2909 212 28.5 212H34.5C36.7091 212 38.5 213.791 38.5 216V216C38.5 218.209 36.7091 220 34.5 220H28.5C26.2909 220 24.5 218.209 24.5 216ZM34.5 205H28.5C26.2909 205 24.5 203.209 24.5 201V201C24.5 198.791 26.2909 197 28.5 197H34.5C36.7091 197 38.5 198.791 38.5 201V201C38.5 203.209 36.7091 205 34.5 205Z" stroke="#18376B" stroke-linecap="round"/>
</g>
<path d="M265.98 54.836C268.012 42.8062 278.431 34 290.631 34H397.923C413.394 34 425.15 47.9094 422.574 63.164L381.02 309.164C378.988 321.194 368.569 330 356.369 330H249.077C233.606 330 221.85 316.091 224.426 300.836L265.98 54.836Z" fill="#18376B" stroke="#18376B"/>
<path d="M254.98 54.836C257.012 42.8062 267.431 34 279.631 34H386.923C402.394 34 414.15 47.9094 411.574 63.164L370.02 309.164C367.988 321.194 357.569 330 345.369 330H238.077C222.606 330 210.85 316.091 213.426 300.836L254.98 54.836Z" fill="white" stroke="#18376B"/>
<path d="M321.01 41.7128C321.68 41.2487 322.475 41 323.289 41H345.711C349.631 41 351.211 46.0536 347.99 48.2872V48.2872C347.32 48.7513 346.525 49 345.711 49H323.289C319.369 49 317.789 43.9464 321.01 41.7128V41.7128Z" fill="#18376B" stroke="#18376B"/>
<path d="M258.867 176.677C260.768 175.578 262.925 175 265.121 175H351.879C364.666 175 369.204 191.926 358.133 198.323V198.323C356.232 199.422 354.075 200 351.879 200H265.121C252.334 200 247.796 183.074 258.867 176.677V176.677Z" fill="#18376B" stroke="#18376B"/>
<path d="M269.094 191.485C269.439 191.485 269.736 191.437 269.986 191.342C270.241 191.247 270.449 191.115 270.609 190.945C270.769 190.77 270.886 190.562 270.961 190.322C271.041 190.077 271.081 189.81 271.081 189.52C271.081 189.125 270.956 188.81 270.706 188.575C270.456 188.34 270.046 188.222 269.476 188.222H267.646L267.249 191.485H269.094ZM268.209 183.655L267.811 186.88H269.251C269.921 186.88 270.436 186.722 270.796 186.407C271.161 186.092 271.344 185.61 271.344 184.96C271.344 184.505 271.214 184.175 270.954 183.97C270.699 183.76 270.299 183.655 269.754 183.655H268.209ZM269.934 182.155C270.534 182.155 271.046 182.215 271.471 182.335C271.901 182.45 272.251 182.615 272.521 182.83C272.796 183.045 272.999 183.305 273.129 183.61C273.259 183.915 273.324 184.255 273.324 184.63C273.324 184.94 273.281 185.237 273.196 185.522C273.116 185.802 272.989 186.062 272.814 186.302C272.639 186.542 272.416 186.757 272.146 186.947C271.876 187.137 271.554 187.295 271.179 187.42C271.794 187.575 272.251 187.827 272.551 188.177C272.851 188.522 273.001 188.962 273.001 189.497C273.001 189.997 272.909 190.462 272.724 190.892C272.539 191.317 272.271 191.687 271.921 192.002C271.571 192.312 271.144 192.557 270.639 192.737C270.139 192.912 269.571 193 268.936 193H265.119L266.454 182.155H269.934ZM277.117 191.687C277.427 191.687 277.707 191.6 277.957 191.425C278.207 191.245 278.42 191.007 278.595 190.712C278.77 190.412 278.905 190.065 279 189.67C279.095 189.275 279.142 188.86 279.142 188.425C279.142 187.8 279.037 187.342 278.827 187.052C278.617 186.757 278.297 186.61 277.867 186.61C277.557 186.61 277.275 186.697 277.02 186.872C276.77 187.047 276.557 187.285 276.382 187.585C276.207 187.88 276.072 188.225 275.977 188.62C275.882 189.015 275.835 189.432 275.835 189.872C275.835 190.497 275.94 190.957 276.15 191.252C276.36 191.542 276.682 191.687 277.117 191.687ZM276.945 193.113C276.52 193.113 276.127 193.043 275.767 192.902C275.407 192.757 275.095 192.547 274.83 192.272C274.565 191.997 274.357 191.66 274.207 191.26C274.057 190.86 273.982 190.402 273.982 189.887C273.982 189.222 274.09 188.602 274.305 188.027C274.52 187.452 274.81 186.955 275.175 186.535C275.545 186.115 275.975 185.785 276.465 185.545C276.955 185.305 277.477 185.185 278.032 185.185C278.457 185.185 278.85 185.257 279.21 185.402C279.575 185.542 279.887 185.75 280.147 186.025C280.412 186.3 280.62 186.637 280.77 187.037C280.92 187.437 280.995 187.895 280.995 188.41C280.995 189.07 280.887 189.687 280.672 190.262C280.457 190.832 280.165 191.33 279.795 191.755C279.43 192.175 279.002 192.507 278.512 192.753C278.022 192.993 277.5 193.113 276.945 193.113ZM284.969 191.687C285.279 191.687 285.559 191.6 285.809 191.425C286.059 191.245 286.271 191.007 286.446 190.712C286.621 190.412 286.756 190.065 286.851 189.67C286.946 189.275 286.994 188.86 286.994 188.425C286.994 187.8 286.889 187.342 286.679 187.052C286.469 186.757 286.149 186.61 285.719 186.61C285.409 186.61 285.126 186.697 284.871 186.872C284.621 187.047 284.409 187.285 284.234 187.585C284.059 187.88 283.924 188.225 283.829 188.62C283.734 189.015 283.686 189.432 283.686 189.872C283.686 190.497 283.791 190.957 284.001 191.252C284.211 191.542 284.534 191.687 284.969 191.687ZM284.796 193.113C284.371 193.113 283.979 193.043 283.619 192.902C283.259 192.757 282.946 192.547 282.681 192.272C282.416 191.997 282.209 191.66 282.059 191.26C281.909 190.86 281.834 190.402 281.834 189.887C281.834 189.222 281.941 188.602 282.156 188.027C282.371 187.452 282.661 186.955 283.026 186.535C283.396 186.115 283.826 185.785 284.316 185.545C284.806 185.305 285.329 185.185 285.884 185.185C286.309 185.185 286.701 185.257 287.061 185.402C287.426 185.542 287.739 185.75 287.999 186.025C288.264 186.3 288.471 186.637 288.621 187.037C288.771 187.437 288.846 187.895 288.846 188.41C288.846 189.07 288.739 189.687 288.524 190.262C288.309 190.832 288.016 191.33 287.646 191.755C287.281 192.175 286.854 192.507 286.364 192.753C285.874 192.993 285.351 193.113 284.796 193.113ZM292.835 181.855L292.055 188.237H292.243C292.358 188.237 292.45 188.22 292.52 188.185C292.595 188.15 292.673 188.085 292.753 187.99L294.8 185.627C294.885 185.522 294.975 185.442 295.07 185.387C295.165 185.332 295.285 185.305 295.43 185.305H297.08L294.545 188.162C294.365 188.382 294.17 188.555 293.96 188.68C294.055 188.75 294.135 188.835 294.2 188.935C294.27 189.035 294.333 189.145 294.388 189.265L296.285 193H294.68C294.545 193 294.433 192.977 294.343 192.932C294.253 192.882 294.18 192.795 294.125 192.67L292.633 189.752C292.578 189.637 292.518 189.562 292.453 189.527C292.393 189.492 292.293 189.475 292.153 189.475H291.898L291.47 193H289.64L291.013 181.855H292.835ZM307.209 184.105C307.139 184.205 307.069 184.28 306.999 184.33C306.934 184.375 306.851 184.397 306.751 184.397C306.651 184.397 306.549 184.357 306.444 184.277C306.339 184.197 306.214 184.11 306.069 184.015C305.924 183.915 305.751 183.825 305.551 183.745C305.351 183.665 305.111 183.625 304.831 183.625C304.561 183.625 304.321 183.665 304.111 183.745C303.901 183.825 303.724 183.935 303.579 184.075C303.439 184.215 303.331 184.38 303.256 184.57C303.186 184.76 303.151 184.965 303.151 185.185C303.151 185.415 303.209 185.607 303.324 185.762C303.444 185.912 303.599 186.045 303.789 186.16C303.979 186.275 304.196 186.377 304.441 186.467C304.686 186.557 304.934 186.652 305.184 186.752C305.439 186.852 305.689 186.967 305.934 187.097C306.179 187.227 306.396 187.387 306.586 187.577C306.776 187.767 306.929 187.997 307.044 188.267C307.164 188.532 307.224 188.855 307.224 189.235C307.224 189.765 307.131 190.265 306.946 190.735C306.761 191.205 306.499 191.617 306.159 191.972C305.819 192.322 305.404 192.602 304.914 192.812C304.424 193.018 303.876 193.12 303.271 193.12C302.956 193.12 302.646 193.085 302.341 193.015C302.036 192.95 301.749 192.855 301.479 192.73C301.209 192.605 300.959 192.455 300.729 192.28C300.499 192.105 300.299 191.91 300.129 191.695L300.819 190.765C300.874 190.695 300.944 190.637 301.029 190.592C301.114 190.547 301.199 190.525 301.284 190.525C301.364 190.525 301.441 190.55 301.516 190.6C301.596 190.65 301.681 190.712 301.771 190.787C301.866 190.857 301.966 190.937 302.071 191.027C302.181 191.112 302.304 191.192 302.439 191.267C302.579 191.337 302.736 191.397 302.911 191.447C303.091 191.497 303.294 191.522 303.519 191.522C304.089 191.522 304.534 191.362 304.854 191.042C305.174 190.722 305.334 190.28 305.334 189.715C305.334 189.465 305.276 189.26 305.161 189.1C305.046 188.94 304.894 188.805 304.704 188.695C304.514 188.585 304.296 188.49 304.051 188.41C303.811 188.325 303.566 188.237 303.316 188.147C303.066 188.052 302.819 187.945 302.574 187.825C302.334 187.7 302.119 187.542 301.929 187.352C301.739 187.157 301.586 186.92 301.471 186.64C301.356 186.36 301.299 186.015 301.299 185.605C301.299 185.14 301.384 184.692 301.554 184.262C301.729 183.832 301.976 183.455 302.296 183.13C302.621 182.8 303.011 182.537 303.466 182.342C303.926 182.142 304.444 182.042 305.019 182.042C305.314 182.042 305.596 182.072 305.866 182.132C306.141 182.192 306.396 182.277 306.631 182.387C306.866 182.497 307.081 182.63 307.276 182.785C307.476 182.935 307.649 183.102 307.794 183.287L307.209 184.105ZM312.169 186.49C311.919 186.49 311.686 186.542 311.471 186.647C311.256 186.747 311.061 186.89 310.886 187.075C310.716 187.26 310.566 187.482 310.436 187.742C310.311 187.997 310.211 188.277 310.136 188.582C310.756 188.497 311.254 188.405 311.629 188.305C312.009 188.2 312.301 188.09 312.506 187.975C312.711 187.855 312.846 187.727 312.911 187.592C312.981 187.452 313.016 187.307 313.016 187.157C313.016 187.082 312.999 187.005 312.964 186.925C312.934 186.845 312.884 186.775 312.814 186.715C312.749 186.65 312.661 186.597 312.551 186.557C312.446 186.512 312.319 186.49 312.169 186.49ZM309.979 189.865C309.979 191.075 310.491 191.68 311.516 191.68C311.736 191.68 311.931 191.66 312.101 191.62C312.271 191.575 312.419 191.522 312.544 191.462C312.674 191.402 312.789 191.335 312.889 191.26C312.994 191.185 313.089 191.117 313.174 191.057C313.264 190.997 313.351 190.947 313.436 190.907C313.521 190.862 313.614 190.84 313.714 190.84C313.774 190.84 313.831 190.855 313.886 190.885C313.946 190.915 313.999 190.955 314.044 191.005L314.516 191.575C314.251 191.84 313.991 192.07 313.736 192.265C313.481 192.46 313.221 192.62 312.956 192.745C312.691 192.87 312.411 192.962 312.116 193.023C311.821 193.083 311.501 193.113 311.156 193.113C310.706 193.113 310.299 193.038 309.934 192.887C309.569 192.732 309.256 192.517 308.996 192.242C308.736 191.962 308.534 191.627 308.389 191.237C308.249 190.842 308.179 190.402 308.179 189.917C308.179 189.512 308.221 189.115 308.306 188.725C308.396 188.335 308.524 187.965 308.689 187.615C308.854 187.265 309.056 186.942 309.296 186.647C309.536 186.352 309.806 186.097 310.106 185.882C310.411 185.667 310.744 185.5 311.104 185.38C311.469 185.26 311.859 185.2 312.274 185.2C312.674 185.2 313.024 185.257 313.324 185.372C313.629 185.487 313.881 185.637 314.081 185.822C314.286 186.002 314.439 186.205 314.539 186.43C314.639 186.655 314.689 186.875 314.689 187.09C314.689 187.435 314.619 187.75 314.479 188.035C314.344 188.32 314.099 188.575 313.744 188.8C313.394 189.025 312.914 189.22 312.304 189.385C311.694 189.545 310.919 189.672 309.979 189.767V189.865ZM317.904 187.15C318.099 186.77 318.306 186.445 318.526 186.175C318.751 185.9 318.984 185.687 319.224 185.537C319.464 185.382 319.711 185.292 319.966 185.267C320.221 185.237 320.476 185.277 320.731 185.387L320.394 187.157C319.784 186.902 319.249 186.965 318.789 187.345C318.334 187.725 317.969 188.472 317.694 189.587L317.281 193H315.466L316.396 185.297H317.341C317.536 185.297 317.686 185.345 317.791 185.44C317.901 185.535 317.956 185.687 317.956 185.897L317.904 187.15ZM328.179 185.305L324.384 193H322.831L320.904 185.305H322.426C322.556 185.305 322.659 185.337 322.734 185.402C322.814 185.467 322.864 185.55 322.884 185.65L323.686 189.76C323.726 190.01 323.759 190.255 323.784 190.495C323.809 190.735 323.829 190.975 323.844 191.215C323.994 190.735 324.169 190.25 324.369 189.76L326.206 185.65C326.251 185.55 326.319 185.467 326.409 185.402C326.504 185.337 326.609 185.305 326.724 185.305H328.179ZM330.957 185.305L330.034 193H328.212L329.134 185.305H330.957ZM331.429 183.062C331.429 183.222 331.394 183.372 331.324 183.512C331.259 183.652 331.172 183.775 331.062 183.88C330.952 183.985 330.827 184.07 330.687 184.135C330.547 184.195 330.402 184.225 330.252 184.225C330.107 184.225 329.967 184.195 329.832 184.135C329.697 184.07 329.577 183.985 329.472 183.88C329.367 183.775 329.282 183.652 329.217 183.512C329.157 183.372 329.127 183.222 329.127 183.062C329.127 182.902 329.159 182.75 329.224 182.605C329.289 182.46 329.374 182.335 329.479 182.23C329.584 182.12 329.704 182.035 329.839 181.975C329.979 181.91 330.122 181.877 330.267 181.877C330.417 181.877 330.562 181.91 330.702 181.975C330.842 182.035 330.964 182.117 331.069 182.222C331.179 182.327 331.267 182.452 331.332 182.597C331.397 182.742 331.429 182.897 331.429 183.062ZM337.746 191.635C337.491 191.915 337.246 192.15 337.011 192.34C336.781 192.53 336.546 192.682 336.306 192.797C336.066 192.912 335.814 192.992 335.549 193.038C335.289 193.088 335.001 193.113 334.686 193.113C334.241 193.113 333.841 193.038 333.486 192.887C333.136 192.732 332.839 192.515 332.594 192.235C332.349 191.955 332.161 191.617 332.031 191.222C331.901 190.827 331.836 190.387 331.836 189.902C331.836 189.487 331.881 189.082 331.971 188.687C332.061 188.292 332.191 187.92 332.361 187.57C332.531 187.22 332.736 186.9 332.976 186.61C333.216 186.32 333.486 186.07 333.786 185.86C334.086 185.65 334.411 185.487 334.761 185.372C335.116 185.252 335.491 185.192 335.886 185.192C336.396 185.192 336.829 185.282 337.184 185.463C337.544 185.642 337.861 185.912 338.136 186.272L337.544 186.977C337.504 187.022 337.454 187.065 337.394 187.105C337.334 187.14 337.269 187.157 337.199 187.157C337.114 187.157 337.036 187.132 336.966 187.082C336.901 187.027 336.821 186.97 336.726 186.91C336.636 186.85 336.521 186.795 336.381 186.745C336.246 186.69 336.069 186.662 335.849 186.662C335.564 186.662 335.291 186.74 335.031 186.895C334.771 187.05 334.541 187.27 334.341 187.555C334.141 187.84 333.981 188.182 333.861 188.582C333.746 188.982 333.689 189.425 333.689 189.91C333.689 190.475 333.814 190.912 334.064 191.222C334.314 191.527 334.654 191.68 335.084 191.68C335.274 191.68 335.441 191.66 335.586 191.62C335.731 191.58 335.859 191.532 335.969 191.477C336.084 191.417 336.184 191.355 336.269 191.29C336.354 191.22 336.434 191.157 336.509 191.102C336.584 191.042 336.654 190.992 336.719 190.952C336.789 190.912 336.864 190.892 336.944 190.892C337.009 190.892 337.069 190.91 337.124 190.945C337.184 190.975 337.236 191.015 337.281 191.065L337.746 191.635ZM342.462 186.49C342.212 186.49 341.979 186.542 341.764 186.647C341.549 186.747 341.354 186.89 341.179 187.075C341.009 187.26 340.859 187.482 340.729 187.742C340.604 187.997 340.504 188.277 340.429 188.582C341.049 188.497 341.547 188.405 341.922 188.305C342.302 188.2 342.594 188.09 342.799 187.975C343.004 187.855 343.139 187.727 343.204 187.592C343.274 187.452 343.309 187.307 343.309 187.157C343.309 187.082 343.292 187.005 343.257 186.925C343.227 186.845 343.177 186.775 343.107 186.715C343.042 186.65 342.954 186.597 342.844 186.557C342.739 186.512 342.612 186.49 342.462 186.49ZM340.272 189.865C340.272 191.075 340.784 191.68 341.809 191.68C342.029 191.68 342.224 191.66 342.394 191.62C342.564 191.575 342.712 191.522 342.837 191.462C342.967 191.402 343.082 191.335 343.182 191.26C343.287 191.185 343.382 191.117 343.467 191.057C343.557 190.997 343.644 190.947 343.729 190.907C343.814 190.862 343.907 190.84 344.007 190.84C344.067 190.84 344.124 190.855 344.179 190.885C344.239 190.915 344.292 190.955 344.337 191.005L344.809 191.575C344.544 191.84 344.284 192.07 344.029 192.265C343.774 192.46 343.514 192.62 343.249 192.745C342.984 192.87 342.704 192.962 342.409 193.023C342.114 193.083 341.794 193.113 341.449 193.113C340.999 193.113 340.592 193.038 340.227 192.887C339.862 192.732 339.549 192.517 339.289 192.242C339.029 191.962 338.827 191.627 338.682 191.237C338.542 190.842 338.472 190.402 338.472 189.917C338.472 189.512 338.514 189.115 338.599 188.725C338.689 188.335 338.817 187.965 338.982 187.615C339.147 187.265 339.349 186.942 339.589 186.647C339.829 186.352 340.099 186.097 340.399 185.882C340.704 185.667 341.037 185.5 341.397 185.38C341.762 185.26 342.152 185.2 342.567 185.2C342.967 185.2 343.317 185.257 343.617 185.372C343.922 185.487 344.174 185.637 344.374 185.822C344.579 186.002 344.732 186.205 344.832 186.43C344.932 186.655 344.982 186.875 344.982 187.09C344.982 187.435 344.912 187.75 344.772 188.035C344.637 188.32 344.392 188.575 344.037 188.8C343.687 189.025 343.207 189.22 342.597 189.385C341.987 189.545 341.212 189.672 340.272 189.767V189.865Z" fill="white"/>
<path d="M293.11 78.6579H354.785C358.428 78.6579 361.207 81.9169 360.631 85.5144L350.737 147.357C350.277 150.229 347.799 152.342 344.89 152.342H283.215C279.572 152.342 276.793 149.083 277.369 145.486L287.263 83.6435C287.723 80.771 290.201 78.6579 293.11 78.6579Z" fill="white" stroke="#18376B" stroke-width="1.31579"/>
<path d="M344.132 88.842H314.526L295.974 119.105H315.053L305.053 142.132L341.368 110.553H320.974L344.132 88.842Z" fill="#FE595F" stroke="#18376B" stroke-width="1.31579" stroke-linecap="square"/>
<path d="M245.5 215H269.5L268.5 219H244.5L245.5 215Z" fill="#AEC3D0"/>
<path d="M244.5 222H326.5L325.5 224H243.5L244.5 222Z" fill="#CFDDE6"/>
<path d="M243.5 227H325.5L324.5 229H242.5L243.5 227Z" fill="#CFDDE6"/>
<path d="M242.5 232H324.5L323.5 234H241.5L242.5 232Z" fill="#CFDDE6"/>
<path d="M351.5 225.421L355.079 229L363.079 221" stroke="#FE595F" stroke-width="2" stroke-linecap="square"/>
<path d="M240.5 241H264.5L263.5 245H239.5L240.5 241Z" fill="#AEC3D0"/>
<path d="M239.5 248H321.5L320.5 250H238.5L239.5 248Z" fill="#CFDDE6"/>
<path d="M238.5 253H320.5L319.5 255H237.5L238.5 253Z" fill="#CFDDE6"/>
<path d="M237.5 258H319.5L318.5 260H236.5L237.5 258Z" fill="#CFDDE6"/>
<path d="M346.5 251.421L350.079 255L358.079 247" stroke="#FE595F" stroke-width="2" stroke-linecap="square"/>
<path d="M235.5 267H259.5L258.5 271H234.5L235.5 267Z" fill="#AEC3D0"/>
<path d="M234.5 274H316.5L315.5 276H233.5L234.5 274Z" fill="#CFDDE6"/>
<path d="M233.5 279H315.5L314.5 281H232.5L233.5 279Z" fill="#CFDDE6"/>
<path d="M232.5 284H314.5L313.5 286H231.5L232.5 284Z" fill="#CFDDE6"/>
<path d="M341.5 277.421L345.079 281L353.079 273" stroke="#FE595F" stroke-width="2" stroke-linecap="square"/>
<path d="M94 136.5L84.5789 134L83.2105 140.5L89.5 143.5L93.5 142C95.9 142.4 98.1667 146.167 99 148L97.5 149.5C103.5 150.3 106.333 147.167 107 145.5L98.5 139C92.9 141.8 93.1667 138.5 94 136.5Z" fill="white"/>
<path d="M35.5 35.5C27 35.5 17.5 43 17 51.5C16.6667 53.5 16.6 58.4 19 62C21.4 65.6 18 68.5 16 69.5C13.6667 71.1666 9.30001 75.8 10.5 81C12.1667 79.8 19.5278 80.1666 23 80.5C27 80.9 28 78.6666 28 77.5L26.5 66L25.5 64C22.5 63 21 58.5 23.5 56.5C25.5 54.9 27.3333 58.5 28 60.5C27.6 55.7 33.5 53.1666 36.5 52.5C43.3 50.9 45.3334 48.1666 45.5 47C45.4231 46.4101 45.2941 45.7295 45.106 45C44.072 40.9887 41.2537 35.5 35.5 35.5Z" fill="#18376B"/>
<path d="M46 57C46.4 63.4 43.5 69.6666 42 72C39.7216 72 37.7308 71.7795 36 71.4144L37.5 77.5C38.3 79.5 40.8333 79.3333 42 79C46.4 77.8 48.5 79.8333 49 81C49 79.6666 48.7 76.6 47.5 75C46 73 44.5 70.5 46.5 65.5C48.1 61.5 48.5 57.1666 48.5 55.5C48.5 49.1 46.2373 45.8333 45.106 45C45.2941 45.7295 45.4231 46.4101 45.5 47C46.7001 49 46.3334 54.5 46 57Z" fill="#18376B"/>
<path d="M24 138C21 141.667 15 151.9 15 163.5V229C16.261 229.06 17.7255 229.119 19.3512 229.171C24.0565 229.323 30.1131 229.424 36.5 229.36C39.2985 229.332 42.1605 229.272 45 229.171C51.0443 228.956 56.987 228.555 62 227.876C62.8622 227.759 63.697 227.634 64.5 227.5V179C64.6057 176.463 64.6142 172.781 64.4108 168.5C64.0551 161.017 63.0518 151.707 60.7878 143.5C60.2623 141.595 59.6689 139.75 59 138C54.6667 138.667 41.6 139.6 24 138Z" fill="#18376B"/>
<path d="M82 330.5C82 328.9 80 327.5 79 327L73 324.429C62.2 328.371 53.7509 325.452 50.8764 323.5C49.9856 326.924 50.2191 329.517 50.5 330.5H82Z" fill="#18376B"/>
<path d="M1 325C15.4 330.2 29.6667 331.833 34.5 331.5C34.1932 328.739 30.8749 326.355 26.8548 324C19.5386 327.2 8.39036 322 3.73077 319L2 321.5L1 325Z" fill="#18376B"/>
<path d="M130 330.5C144.4 330.9 158.333 329 163.5 328L162.111 323C156.2 325.4 149.16 324 146.379 323C145.133 323.292 143.914 323.446 143 323.5C133.4 325.5 130.333 329 130 330.5Z" fill="#18376B"/>
<path d="M171.5 330.5C187.1 331.392 200.667 329.205 204.5 328L203 321.85C197.4 324.49 190.667 323.717 188 323C174.8 325.4 171.5 329 171.5 330.5Z" fill="#18376B"/>
<path d="M164 41C165.833 41.3333 171.1 41.1 177.5 37.5C183.9 33.9 184.5 36.6666 184 38.5V46C185 45 187.4 43.3 189 44.5C190 45.5 191 48.2 187 51L186 55.5C188.4 56.2999 191.667 54.5 193 53.5C190.6 52.3 192 47.3333 193 45L194.5 39.5C195.3 32.3 192.5 30.5 191 30.5L190.5 28.5C182.9 19.3 172.333 26 168 30.5C162.8 34.1 159.833 32.3333 159 31C158.6 38.2 162.167 40.6666 164 41Z" fill="#18376B"/>
<path d="M10.5 81C7.66667 82.1666 3.30001 87.4 8.50001 99L17 112.5L32 132C35.5 133.198 45.8 136.075 59 138L83 141.5L83.2105 140.5L84.5789 134L85 132C77.9943 129.533 66.3852 125.746 57 123.399V116.5C60.2 110.9 61 104.833 61 102.5C60.6 96.9 55.1667 90.8333 52.5 88.5L49 81C48.5 79.8333 46.4 77.8 42 79C42.4 84.6028 38.8333 86.3345 37 86.5C30.2 87.3 24.8333 82.8333 23 80.5C19.5278 80.1666 12.1667 79.8 10.5 81Z" fill="#FE595F"/>
<path d="M17 112.5L24 138C41.6 139.6 54.6667 138.667 59 138C45.8 136.075 35.5 133.198 32 132L17 112.5Z" fill="#FE595F"/>
<path d="M64.4108 168.5L73 163.5L63.5 142.5L60.7878 143.5C63.0518 151.707 64.0551 161.017 64.4108 168.5Z" fill="#FFCDCF"/>
<path d="M107 136.5L110 144L111 146.5L117.5 144C126.667 141.5 146 135.5 150 131.5L149 155.5L147.5 160L149 161.5C150.893 161.816 157.447 162.43 169 162.494L168 128.5L169.161 124.5L161.5 101L165.5 89L159.5 77.5C160.3 74.3 163.5 70.0032 165 68.2548C160.892 68.906 154.542 70.62 151.5 74L137.5 118.5L106 135L107 136.5Z" fill="#FFCDCF"/>
<path d="M204.5 159L203.5 155.5L202 104L211.5 127C210.667 129.5 208.7 137.6 207.5 150L204.5 166.5L207.25 167L213.5 168.136L215.5 168.5L221.5 150C223.5 144.333 227 131 225 123L212 82.5C212 79.3333 210.2 72.5 203 70.5L190 68C192.4 70 195 76.1666 196 79L185.5 89.5V103L168 128.5L169 162.494C169.651 162.498 170.317 162.5 171 162.5C179.283 162.96 196.288 162.997 203 159.882C203.581 159.612 204.085 159.319 204.5 159Z" fill="#FFCDCF"/>
<path d="M190 68L172.5 113L171.339 117L169.161 124.5L168 128.5L185.5 103V89.5L196 79C195 76.1666 192.4 70 190 68Z" fill="#F2AFB1"/>
<path d="M171.339 117L167 68C166.432 68.0516 165.754 68.1353 165 68.2548C163.5 70.0032 160.3 74.3 159.5 77.5L165.5 89L161.5 101L169.161 124.5L171.339 117Z" fill="#F2AFB1"/>
<path d="M169 162.494C157.447 162.43 150.893 161.816 149 161.5V216.5V319H152H161H164L170.5 261.5V254L167.5 233.5L172.5 213L175.5 237L189.5 319L194 318.55L202 317.75L204.5 317.5L203 264.5L198.5 244.5L198 239.5L198.5 229H179.5V204V186H186.5V184H195.5V186H199.5V177H203V174V173.5V159.882C196.288 162.997 179.283 162.96 171 162.5C170.317 162.5 169.651 162.498 169 162.494Z" fill="#18376B"/>
<path d="M179.5 186V204H203V201.5H213.5V204H243.5V186H236.5H226.5H221H218H203H199.5H195.5H186.5H179.5Z" fill="#FE595F"/>
<path d="M198.5 229H243.5V204H213.5V208.5H203V204H179.5V229H198.5Z" fill="#FE595F"/>
<path d="M203 201.5V204V208.5H213.5V204V201.5H203Z" fill="#D02D33"/>
<path d="M186.5 184V186H195.5V184H186.5Z" fill="#D02D33"/>
<path d="M226.5 184V186H236.5V184H226.5Z" fill="#D02D33"/>
<path d="M221 177H215.749C215.784 178.228 215.622 179.47 215.402 180.5H218V186H221V177Z" fill="#878787"/>
<path fill-rule="evenodd" clip-rule="evenodd" d="M23 80.5C24.8333 82.8333 30.2 87.3 37 86.5C38.8333 86.3345 42.4 84.6028 42 79C40.8333 79.3333 38.3 79.5 37.5 77.5L36 71.4144C37.7308 71.7795 39.7216 72 42 72C43.5 69.6666 46.4 63.4 46 57C46.3334 54.5 46.7001 49 45.5 47C45.3334 48.1666 43.3 50.9 36.5 52.5C33.5 53.1666 27.6 55.7 28 60.5C27.3333 58.5 25.5 54.9 23.5 56.5C21 58.5 22.5 63 25.5 64L26.5 66L28 77.5C28 78.6666 27 80.9 23 80.5ZM19.3512 229.171C17.6321 231.708 16.4008 240.114 16 244L8.5 306.5L6.5 315L3.73077 319C8.39036 322 19.5386 327.2 26.8548 324C25.8198 323.394 24.7382 322.79 23.6496 322.182L23.6487 322.181L23.6477 322.18L23.6464 322.18L23.6441 322.178C22.0712 321.3 20.4835 320.413 19 319.5C13.8 316.3 15.5 309.5 17 306.5L36.5 229.36C30.1131 229.424 24.0565 229.323 19.3512 229.171ZM45 229.171C48 234.842 51 242 50 249C49.2 254.6 48.6667 264.333 48.5 268.5C48.5 278 51 309 52 314C52.8 318 52 320.667 51.5 321.5C51.2483 322.192 51.0427 322.861 50.8764 323.5C53.7509 325.452 62.2 328.371 73 324.429L65 321C60.6 319 60.1667 314.5 60.5 312.5L63 265.5L62 227.876C56.987 228.555 51.0443 228.956 45 229.171ZM100.5 138.412C99.7 135.141 95.8333 135.774 94 136.5C93.1667 138.5 92.9 141.8 98.5 139L107 145.5L110 144L107 136.5L100.5 138.412ZM146.379 323C148.995 322.387 151.729 321.168 152 319H161L162.111 323C156.2 325.4 149.16 324 146.379 323ZM203 173.5L205 171.5L207.25 167L213.5 168.136C213.1 169.045 214 171.758 214.5 173C215.373 174.047 215.706 175.514 215.749 177C215.784 178.228 215.622 179.47 215.402 180.5C215.278 181.08 215.135 181.594 215 182H205.5V180V177H203V174V173.5ZM194 318.55L202 317.75L203 321.85C197.4 324.49 190.667 323.717 188 323C190 322.7 194 321.39 194 318.55ZM190 68H189C188.833 67 188 65 186 65V55.5L187 51C191 48.2 190 45.5 189 44.5C187.4 43.3 185 45 184 46V38.5C184.5 36.6666 183.9 33.9 177.5 37.5C171.1 41.1 165.833 41.3333 164 41V52.5C165.6 60.1 169 63 170.5 63.5C171.177 63.5 171.844 63.4528 172.5 63.3652L171.5 65L168 67.5L167 68L171.339 117L172.5 113L190 68ZM89.5 143.5C90.1667 145.833 92.7 150.3 97.5 149.5L99 148C98.1667 146.167 95.9 142.4 93.5 142L89.5 143.5Z" fill="white"/>
<path d="M205.5 177H203H199.5V186H203V180H205.5V177Z" fill="#878787"/>
<path d="M17 51.5L17.4932 51.5822L17.4976 51.5559L17.4992 51.5293L17 51.5ZM16 69.5L15.7764 69.0527L15.7413 69.0703L15.7094 69.0931L16 69.5ZM10.5 81L10.6904 81.4623L10.7446 81.44L10.7922 81.4057L10.5 81ZM8.50001 99L8.04376 99.2045L8.05815 99.2366L8.07689 99.2664L8.50001 99ZM15 229H14.5V229.477L14.9762 229.499L15 229ZM64.5 227.5L64.5822 227.993L65 227.924V227.5H64.5ZM64.5 179L64.0004 178.979L64 178.99V179H64.5ZM59 138L59.0722 137.505L59 138ZM83 141.5L82.9278 141.995L83.3925 142.062L83.4893 141.603L83 141.5ZM85 132L85.4893 132.103L85.5796 131.674L85.1661 131.528L85 132ZM43 121.5L42.5819 121.774L42.7879 122.088L43.147 121.978L43 121.5ZM23.4181 90.7258L23.1439 90.3077L22.3077 90.856L22.5819 91.2741L23.4181 90.7258ZM32 132L31.6037 132.305L31.6955 132.424L31.8381 132.473L32 132ZM36.5 52.5L36.6085 52.9881L36.6145 52.9867L36.5 52.5ZM28 60.5L27.5257 60.6581L28.4983 60.4584L28 60.5ZM23.5 56.5L23.8123 56.8904L23.5 56.5ZM25.5 64L25.9472 63.7763L25.8546 63.5911L25.6581 63.5256L25.5 64ZM42 72V72.5H42.273L42.4206 72.2703L42 72ZM46 57L45.5044 56.9339L45.4979 56.9823L45.501 57.0311L46 57ZM46.5 65.5L46.0358 65.3143L46.5 65.5ZM47.5 75L47.1 75.3L47.1 75.3L47.5 75ZM49 81L48.5404 81.1969L48.5436 81.2042L48.5469 81.2114L49 81ZM42 79L41.8684 78.5175L41.8626 78.5192L42 79ZM37.5 77.5L37.0145 77.6196L37.0228 77.6534L37.0358 77.6856L37.5 77.5ZM36 71.4144L36.1032 70.9251L36 71.4144ZM28 77.5H28.5V77.4675L28.4958 77.4353L28 77.5ZM23 80.5L23.0498 80.0024L23.0478 80.0022L23 80.5ZM37 86.5L36.955 86.0018L36.9416 86.0034L37 86.5ZM52.5 88.5L52.0469 88.7114L52.0915 88.8069L52.1707 88.8762L52.5 88.5ZM61 102.5H61.5V102.482L61.4987 102.464L61 102.5ZM57 116.5L56.5659 116.252L56.5 116.367V116.5H57ZM64.4108 168.5L63.9113 168.524L64.4108 168.5ZM73 163.5L73.2515 163.932L73.6416 163.705L73.4556 163.294L73 163.5ZM63.5 142.5L63.9556 142.294L63.7637 141.87L63.327 142.031L63.5 142.5ZM98.5 139L98.3589 138.52L98.3162 138.533L98.2764 138.553L98.5 139ZM107 136.5L107.464 136.314L107.445 136.266L107.416 136.223L107 136.5ZM100.5 138.412L100.641 138.891L100.641 138.891L100.5 138.412ZM99 148L99.3536 148.354L99.5986 148.108L99.4552 147.793L99 148ZM93.5 142L93.5822 141.507L93.45 141.485L93.3244 141.532L93.5 142ZM111 146.5L110.536 146.686L110.719 147.144L111.179 146.967L111 146.5ZM117.5 144L117.368 143.518L117.344 143.524L117.321 143.533L117.5 144ZM150 131.5L150.5 131.521L150.5 131.514L150 131.5ZM149 155.5L149.474 155.658L149.497 155.591L149.5 155.521L149 155.5ZM147.5 160L147.026 159.842L146.928 160.135L147.146 160.354L147.5 160ZM171 162.5L171.028 162.001L171.014 162H171V162.5ZM204.5 159L204.805 159.396L205.074 159.189L204.981 158.863L204.5 159ZM203.5 155.5L203 155.515L203.002 155.577L203.019 155.637L203.5 155.5ZM202 104L202.462 103.809L201.5 104.015L202 104ZM211.5 127L211.974 127.158L212.033 126.981L211.962 126.809L211.5 127ZM207.5 150L207.992 150.089L207.996 150.069L207.998 150.048L207.5 150ZM204.5 166.5L204.008 166.411L203.919 166.902L204.411 166.992L204.5 166.5ZM215.5 168.5L215.411 168.992L215.841 169.07L215.976 168.654L215.5 168.5ZM221.5 150L221.028 149.833L221.024 149.846L221.5 150ZM225 123L225.485 122.879L225.481 122.863L225.476 122.847L225 123ZM212 82.5H211.5V82.5782L211.524 82.6528L212 82.5ZM203 70.5L203.134 70.0182L203.114 70.0128L203.094 70.009L203 70.5ZM190 68L190.094 67.509L190.048 67.5H190V68ZM172.5 113L172.034 112.819L172.026 112.839L172.02 112.861L172.5 113ZM168 128.5L167.52 128.361L167.498 128.436L167.5 128.515L168 128.5ZM185.5 103L185.912 103.283L186 103.155V103H185.5ZM185.5 89.5L185.146 89.1464L185 89.2928V89.5H185.5ZM196 79L196.354 79.3535L196.576 79.1307L196.471 78.8335L196 79ZM151.5 74L151.128 73.6655L151.056 73.7462L151.023 73.8499L151.5 74ZM137.5 118.5L137.732 118.943L137.915 118.847L137.977 118.65L137.5 118.5ZM106 135L105.768 134.557L105.276 134.815L105.584 135.277L106 135ZM151.5 95.5138L151.514 95.014L150.514 94.9863L150.5 95.4861L151.5 95.5138ZM171.339 117L171.819 117.139L171.819 117.139L171.339 117ZM159.5 77.5L159.015 77.3787L158.969 77.5629L159.057 77.7312L159.5 77.5ZM165.5 89L165.974 89.1581L166.041 88.9568L165.943 88.7687L165.5 89ZM161.5 101L161.026 100.842L160.974 100.998L161.025 101.155L161.5 101ZM181.5 77L181.131 77.3378L181.518 77.7595L181.884 77.32L181.5 77ZM169 76L168.503 76.0584L168.602 76.8985L169.291 76.4068L169 76ZM170.5 63.5L170.342 63.9743L170.419 64H170.5V63.5ZM164 52.5H163.5V52.552L163.511 52.603L164 52.5ZM184 38.5L183.518 38.3684L183.5 38.433V38.5H184ZM184 46H183.5V47.2071L184.354 46.3535L184 46ZM189 44.5L189.354 44.1464L189.328 44.1213L189.3 44.1L189 44.5ZM187 51L186.713 50.5903L186.554 50.7018L186.512 50.8915L187 51ZM159 31L159.424 30.735L158.588 29.3977L158.501 30.9722L159 31ZM168 30.5L168.285 30.9111L168.326 30.8827L168.36 30.8468L168 30.5ZM190.5 28.5L190.985 28.3787L190.958 28.2688L190.885 28.1815L190.5 28.5ZM191 30.5L190.515 30.6212L190.61 31L191 31L191 30.5ZM194.5 39.5L194.982 39.6316L194.993 39.594L194.997 39.5552L194.5 39.5ZM193 45L193.46 45.197L193.473 45.1651L193.482 45.1316L193 45ZM193 53.5L193.3 53.9L193.947 53.4146L193.224 53.0528L193 53.5ZM149 319H148.5V319.5H149V319ZM164 319V319.5H164.447L164.497 319.056L164 319ZM170.5 261.5L170.997 261.556L171 261.528V261.5H170.5ZM170.5 254H171V253.964L170.995 253.928L170.5 254ZM167.5 233.5L167.014 233.382L166.991 233.476L167.005 233.572L167.5 233.5ZM172.5 213L172.996 212.938L172.993 212.917L172.989 212.896L172.5 213ZM167.989 189.396L167.885 188.907L166.907 189.115L167.011 189.604L167.989 189.396ZM175.5 237L175.004 237.062L175.005 237.073L175.007 237.084L175.5 237ZM189.5 319L189.007 319.084L189.086 319.544L189.55 319.498L189.5 319ZM204.5 317.5L204.55 317.998L205.013 317.951L205 317.486L204.5 317.5ZM203 264.5L203.5 264.486L203.498 264.437L203.488 264.39L203 264.5ZM198.5 244.5L198.002 244.55L198.006 244.58L198.012 244.61L198.5 244.5ZM198 239.5L197.501 239.476L197.499 239.513L197.502 239.55L198 239.5ZM243.5 229V229.5H244V229H243.5ZM243.5 186H244V185.5H243.5V186ZM179.5 186V185.5H179V186H179.5ZM179.5 229H179V229.5H179.5V229ZM203 201.5V201H202.5V201.5H203ZM213.5 201.5H214V201H213.5V201.5ZM213.5 208.5V209H214V208.5H213.5ZM203 208.5H202.5V209H203V208.5ZM205 171.5L205.354 171.854L205.411 171.796L205.447 171.724L205 171.5ZM205.5 177H206V176.5H205.5V177ZM205.5 182H205V182.5H205.5V182ZM215 182V182.5H215.36L215.474 182.158L215 182ZM214.5 173L214.036 173.187L214.066 173.26L214.116 173.32L214.5 173ZM203 180V179.5H202.5V180H203ZM199.5 177V176.5H199V177H199.5ZM215.749 177L215.249 177.014L215.749 177ZM221 177H221.5V176.5H221V177ZM218 180.5H218.5V180H218V180.5ZM215.402 180.5L214.913 180.396L214.913 180.396L215.402 180.5ZM203 159.882L202.79 159.429L202.79 159.429L203 159.882ZM186.5 184V183.5H186V184H186.5ZM195.5 184H196V183.5H195.5V184ZM226.5 184V183.5H226V184H226.5ZM236.5 184H237V183.5H236.5V184ZM63 265.5L63.4993 265.527L63.5004 265.507L63.4998 265.487L63 265.5ZM60.5 312.5L60.9932 312.582L60.9978 312.555L60.9993 312.527L60.5 312.5ZM65 321L64.793 321.455L64.803 321.46L65 321ZM79 327L79.2236 326.553L79.2105 326.546L79.197 326.54L79 327ZM82 330.5V331H82.5V330.5H82ZM50.5 330.5L50.0192 330.637L50.1228 331H50.5V330.5ZM51.5 321.5L51.0713 321.243L51.0465 321.284L51.0301 321.329L51.5 321.5ZM52 314L51.5097 314.098L52 314ZM48.5 268.5L48.0004 268.48L48 268.49V268.5H48.5ZM50 249L50.495 249.071L50 249ZM45 229.171L44.9823 228.671L45 229.171ZM17 306.5L17.4472 306.724L17.4715 306.675L17.4848 306.623L17 306.5ZM19 319.5L18.738 319.926L18.738 319.926L19 319.5ZM34.5 331.5L34.5344 331.999L35.0545 331.963L34.9969 331.445L34.5 331.5ZM1 325L0.519238 324.863L0.390945 325.312L0.830178 325.47L1 325ZM2 321.5L1.5889 321.215L1.54192 321.283L1.51924 321.363L2 321.5ZM6.5 315L6.9111 315.285L6.96501 315.207L6.98671 315.115L6.5 315ZM8.5 306.5L8.98671 306.615L8.99311 306.587L8.99644 306.56L8.5 306.5ZM16 244L16.4965 244.06L16.4974 244.051L16 244ZM19.3512 229.171L19.3673 228.671L19.3512 229.171ZM3.73077 319L3.31967 318.715L3.31967 318.715L3.73077 319ZM26.8548 324L27.1075 323.569L27.1075 323.569L26.8548 324ZM50.8764 323.5L50.3925 323.374L50.8764 323.5ZM73 324.429L73.197 323.969L73.197 323.969L73 324.429ZM163.5 328L163.595 328.491L164.127 328.388L163.982 327.866L163.5 328ZM130 330.5L129.512 330.392L129.38 330.983L129.986 331L130 330.5ZM143 323.5L142.971 323.001L142.934 323.003L142.898 323.011L143 323.5ZM204.5 328L204.65 328.477L205.097 328.337L204.986 327.882L204.5 328ZM171.5 330.5H171V330.972L171.471 330.999L171.5 330.5ZM188 323L187.926 322.506L187.918 322.507L187.911 322.508L188 323ZM194 318.55L193.95 318.052L193.95 318.052L194 318.55ZM146.379 323L146.265 322.513L146.265 322.513L146.379 323ZM162.111 323L162.593 322.866L162.593 322.866L162.111 323ZM23.6441 322.178L23.888 321.742L23.888 321.742L23.6441 322.178ZM23.6464 322.18L23.892 321.744L23.8903 321.743L23.6464 322.18ZM23.6477 322.18L23.9027 321.75L23.8933 321.745L23.6477 322.18ZM23.6496 322.182L23.3946 322.612L23.4057 322.618L23.6496 322.182ZM35.5 35C31.1116 35 26.5012 36.931 22.9286 39.9295C19.357 42.927 16.7612 47.0447 16.5009 51.4706L17.4992 51.5293C17.7388 47.4552 20.143 43.5729 23.5715 40.6954C26.9988 37.8189 31.3885 36 35.5 36V35ZM16.5068 51.4178C16.3322 52.4659 16.2313 54.2395 16.4789 56.2122C16.7265 58.1844 17.327 60.3918 18.584 62.2773L19.4161 61.7226C18.2731 60.0081 17.7069 57.9655 17.4711 56.0877C17.2355 54.2104 17.3346 52.534 17.4932 51.5822L16.5068 51.4178ZM18.584 62.2773C19.1342 63.1026 19.3358 63.8608 19.3251 64.5421C19.3143 65.2274 19.0879 65.8719 18.7242 66.4629C17.9886 67.6583 16.7243 68.5788 15.7764 69.0527L16.2236 69.9472C17.2757 69.4211 18.7115 68.3916 19.5759 66.987C20.0122 66.278 20.3108 65.46 20.325 64.5578C20.3392 63.6517 20.0659 62.6973 19.4161 61.7226L18.584 62.2773ZM15.7094 69.0931C14.4963 69.9596 12.7718 71.582 11.4985 73.6641C10.2242 75.7476 9.37336 78.3414 10.0128 81.1124L10.9872 80.8875C10.4266 78.4585 11.1591 76.1356 12.3516 74.1858C13.5449 72.2345 15.1704 70.707 16.2906 69.9068L15.7094 69.0931ZM10.3096 80.5376C8.74415 81.1822 6.84039 82.9078 6.00529 85.9553C5.16978 89.0043 5.41248 93.3347 8.04376 99.2045L8.95627 98.7954C6.38755 93.0652 6.21357 88.979 6.96973 86.2196C7.72629 83.4587 9.42253 81.9843 10.6904 81.4623L10.3096 80.5376ZM8.07689 99.2664L16.5769 112.766L17.4231 112.234L8.92313 98.7335L8.07689 99.2664ZM16.5178 112.632L23.5178 138.132L24.4822 137.868L17.4822 112.368L16.5178 112.632ZM23.613 137.683C20.5663 141.407 14.5 151.749 14.5 163.5H15.5C15.5 152.051 21.4337 141.926 24.387 138.317L23.613 137.683ZM14.5 163.5V229H15.5V163.5H14.5ZM65 227.5V179H64V227.5H65ZM58.924 137.506C54.6381 138.165 41.6129 139.099 24.0453 137.502L23.9547 138.498C41.5871 140.101 54.6952 139.168 59.076 138.494L58.924 137.506ZM58.9278 138.495L82.9278 141.995L83.0722 141.005L59.0722 137.505L58.9278 138.495ZM43.4181 121.226L23.4181 90.7258L22.5819 91.2741L42.5819 121.774L43.4181 121.226ZM16.6037 112.805L31.6037 132.305L32.3963 131.695L17.3963 112.195L16.6037 112.805ZM31.8381 132.473C35.3695 133.682 45.6998 136.566 58.9278 138.495L59.0722 137.505C45.9002 135.584 35.6305 132.714 32.1619 131.527L31.8381 132.473ZM45.0051 46.9292C44.9485 47.3249 44.5171 48.1953 43.1885 49.1867C41.8776 50.1649 39.7372 51.2246 36.3855 52.0132L36.6145 52.9867C40.0628 52.1753 42.339 51.0683 43.7865 49.9882C45.2163 48.9213 45.8849 47.8417 45.995 47.0707L45.0051 46.9292ZM36.3915 52.0119C34.844 52.3558 32.5499 53.1784 30.6798 54.5464C28.8094 55.9145 27.2813 57.8959 27.5017 60.5415L28.4983 60.4584C28.3187 58.304 29.5406 56.6187 31.2702 55.3535C33.0001 54.0881 35.156 53.3108 36.6085 52.988L36.3915 52.0119ZM28.4743 60.3418C28.132 59.3148 27.4828 57.8482 26.6341 56.8299C26.2117 56.323 25.6983 55.8763 25.1012 55.6911C24.4657 55.4941 23.8057 55.6151 23.1877 56.1095L23.8123 56.8904C24.1943 56.5848 24.5135 56.5558 24.805 56.6463C25.135 56.7486 25.4966 57.0269 25.8659 57.47C26.6006 58.3517 27.2013 59.6851 27.5257 60.6581L28.4743 60.3418ZM23.1877 56.1095C21.7315 57.2745 21.4827 59.1372 21.9575 60.765C22.4313 62.3894 23.6562 63.9124 25.3419 64.4743L25.6581 63.5256C24.3438 63.0875 23.3187 61.8605 22.9175 60.485C22.5173 59.1127 22.7685 57.7254 23.8123 56.8904L23.1877 56.1095ZM25.0528 64.2236L26.0528 66.2236L26.9472 65.7763L25.9472 63.7763L25.0528 64.2236ZM42.4206 72.2703C43.9537 69.8855 46.908 63.5128 46.499 56.9688L45.501 57.0311C45.8919 63.2871 43.0463 69.4477 41.5794 71.7296L42.4206 72.2703ZM46.4956 57.066C46.6647 55.7979 46.8419 53.7739 46.825 51.8082C46.8166 50.8253 46.7595 49.8463 46.6254 48.9783C46.4929 48.1205 46.2786 47.3257 45.9288 46.7427L45.0713 47.2572C45.3215 47.6742 45.5114 48.317 45.6372 49.131C45.7614 49.9349 45.8168 50.8621 45.8251 51.8168C45.8415 53.726 45.6686 55.702 45.5044 56.9339L46.4956 57.066ZM45.9958 46.9353C45.9161 46.324 45.7831 45.6233 45.5902 44.8751L44.6218 45.1248C44.8051 45.8356 44.9301 46.4961 45.0042 47.0646L45.9958 46.9353ZM45.5902 44.8751C45.0619 42.8259 44.0732 40.3754 42.4578 38.4266C40.8335 36.467 38.5592 35 35.5 35V36C38.1945 36 40.2062 37.2773 41.6879 39.0648C43.1787 40.8632 44.1161 43.1627 44.6218 45.1248L45.5902 44.8751ZM44.8095 45.4025C45.7696 46.1097 48 49.1961 48 55.5H49C49 49.0038 46.7051 45.5568 45.4026 44.5974L44.8095 45.4025ZM48 55.5C48 57.1206 47.6064 61.3877 46.0358 65.3143L46.9642 65.6856C48.5936 61.6122 49 57.2127 49 55.5H48ZM46.0358 65.3143C45.0082 67.8832 44.861 69.8595 45.198 71.4769C45.5337 73.0882 46.3393 74.2857 47.1 75.3L47.9 74.7C47.1607 73.7142 46.4663 72.6617 46.177 71.273C45.889 69.8904 45.9918 68.1167 46.9642 65.6856L46.0358 65.3143ZM47.1 75.3C47.6319 76.0091 47.9891 77.0867 48.2096 78.1973C48.4276 79.2957 48.5 80.3629 48.5 81H49.5C49.5 80.3037 49.4224 79.1709 49.1904 78.0026C48.9609 76.8465 48.5681 75.5908 47.9 74.7L47.1 75.3ZM49.4596 80.803C48.8502 79.3811 46.4808 77.2597 41.8684 78.5176L42.1316 79.4823C46.3192 78.3402 48.1498 80.2855 48.5404 81.1969L49.4596 80.803ZM41.8626 78.5192C41.3334 78.6704 40.4894 78.7823 39.7056 78.6337C38.9359 78.4878 38.2815 78.1075 37.9642 77.3143L37.0358 77.6856C37.5185 78.8924 38.5308 79.4288 39.5194 79.6162C40.494 79.801 41.5 79.6628 42.1374 79.4807L41.8626 78.5192ZM26.0889 66.2846C27.3064 68.0432 30.2939 70.7217 35.8968 71.9036L36.1032 70.9251C30.7343 69.7926 27.9741 67.2508 26.9111 65.7153L26.0889 66.2846ZM35.8968 71.9036C37.6637 72.2763 39.6892 72.5 42 72.5V71.5C39.754 71.5 37.7979 71.2826 36.1032 70.9251L35.8968 71.9036ZM37.9855 77.3803L36.4855 71.2947L35.5145 71.534L37.0145 77.6196L37.9855 77.3803ZM26.0042 66.0646L27.5042 77.5646L28.4958 77.4353L26.9958 65.9353L26.0042 66.0646ZM27.5 77.5C27.5 77.9572 27.2993 78.6629 26.6713 79.2106C26.0528 79.7501 24.9533 80.1928 23.0498 80.0024L22.9502 80.9975C25.0467 81.2071 26.4472 80.7331 27.3287 79.9643C28.2007 79.2037 28.5 78.2094 28.5 77.5H27.5ZM23.0478 80.0022C21.2999 79.8344 18.5739 79.6582 16.0696 79.675C14.8184 79.6834 13.6104 79.74 12.6026 79.873C12.0987 79.9395 11.6354 80.0263 11.2369 80.1392C10.8445 80.2504 10.4839 80.3954 10.2079 80.5942L10.7922 81.4057C10.9328 81.3045 11.1668 81.1985 11.5096 81.1013C11.8463 81.0059 12.2586 80.9271 12.7334 80.8644C13.6831 80.7391 14.8449 80.6832 16.0763 80.6749C18.5373 80.6584 21.2279 80.8321 22.9522 80.9977L23.0478 80.0022ZM22.6068 80.8089C24.4955 83.2126 30.0155 87.8251 37.0584 86.9965L36.9416 86.0034C30.3845 86.7748 25.1712 82.454 23.3932 80.191L22.6068 80.8089ZM37.0449 86.9979C38.0699 86.9054 39.5396 86.3838 40.704 85.1291C41.8819 83.8597 42.7072 81.8838 42.4987 78.9643L41.5013 79.0356C41.6928 81.719 40.9347 83.4103 39.971 84.4489C38.9937 85.502 37.7634 85.929 36.9551 86.002L37.0449 86.9979ZM48.5469 81.2114L52.0469 88.7114L52.9531 88.2885L49.4531 80.7885L48.5469 81.2114ZM52.1707 88.8762C53.4764 90.0187 55.4732 92.0886 57.1893 94.5601C58.9119 97.041 60.3108 99.8683 60.5013 102.536L61.4987 102.464C61.2892 99.5316 59.7715 96.5256 58.0107 93.9898C56.2435 91.4446 54.1903 89.3145 52.8293 88.1237L52.1707 88.8762ZM60.5 102.5C60.5 104.764 59.7146 110.742 56.5659 116.252L57.4341 116.748C60.6854 111.058 61.5 104.902 61.5 102.5H60.5ZM85.1661 131.528C78.1536 129.059 66.5281 125.266 57.1213 122.914L56.8787 123.884C66.2424 126.226 77.8349 130.007 84.8339 132.472L85.1661 131.528ZM57.1213 122.914C53.8804 122.103 50.8925 121.461 48.4425 121.103C47.2176 120.924 46.1186 120.816 45.1846 120.794C44.2588 120.772 43.4597 120.835 42.853 121.022L43.147 121.978C43.601 121.838 44.2738 121.773 45.1614 121.794C46.0408 121.814 47.0966 121.917 48.2981 122.093C50.7009 122.443 53.6524 123.077 56.8787 123.884L57.1213 122.914ZM56.5 116.5V123.399H57.5V116.5H56.5ZM64.9996 179.021C65.106 176.468 65.1142 172.77 64.9102 168.476L63.9113 168.524C64.1141 172.791 64.1054 176.459 64.0004 178.979L64.9996 179.021ZM64.6623 168.932L73.2515 163.932L72.7485 163.068L64.1592 168.068L64.6623 168.932ZM73.4556 163.294L63.9556 142.294L63.0444 142.706L72.5444 163.706L73.4556 163.294ZM64.9102 168.476C64.5537 160.975 63.5475 151.624 61.2698 143.367L60.3058 143.633C62.5561 151.791 63.5566 161.06 63.9113 168.524L64.9102 168.476ZM61.2698 143.367C60.7407 141.449 60.1425 139.588 59.467 137.821L58.533 138.179C59.1954 139.911 59.7839 141.741 60.3058 143.633L61.2698 143.367ZM63.327 142.031L60.6148 143.031L60.9607 143.969L63.673 142.969L63.327 142.031ZM85.0682 134.103L85.4893 132.103L84.5107 131.897L84.0897 133.897L85.0682 134.103ZM84.4507 134.483L93.8718 136.983L94.1282 136.017L84.7072 133.517L84.4507 134.483ZM93.5385 136.308C93.3172 136.839 93.1275 137.469 93.0665 138.078C93.007 138.674 93.0622 139.336 93.4336 139.845C93.8306 140.389 94.4911 140.632 95.3525 140.571C96.1979 140.511 97.3001 140.159 98.7236 139.447L98.2764 138.553C96.8999 139.241 95.9355 139.527 95.2818 139.573C94.6443 139.618 94.3735 139.436 94.2414 139.255C94.0836 139.039 94.0117 138.676 94.0616 138.178C94.11 137.693 94.2661 137.161 94.4615 136.692L93.5385 136.308ZM98.6411 139.48L100.641 138.891L100.359 137.932L98.3589 138.52L98.6411 139.48ZM100.641 138.891L107.141 136.98L106.859 136.02L100.359 137.932L100.641 138.891ZM94.184 136.965C95.0545 136.62 96.3918 136.307 97.5763 136.454C98.1623 136.526 98.6852 136.707 99.0989 137.027C99.5059 137.341 99.839 137.814 100.014 138.531L100.986 138.293C100.761 137.374 100.311 136.7 99.7104 136.236C99.1169 135.777 98.4086 135.549 97.6987 135.461C96.2915 135.288 94.7788 135.654 93.816 136.035L94.184 136.965ZM98.1963 139.397L106.696 145.897L107.304 145.103L98.8037 138.603L98.1963 139.397ZM106.536 145.314C105.956 146.765 103.343 149.775 97.5661 149.004L97.4339 149.996C103.657 150.825 106.711 147.568 107.464 145.686L106.536 145.314ZM97.8536 149.854L99.3536 148.354L98.6464 147.646L97.1464 149.146L97.8536 149.854ZM99.4552 147.793C99.0252 146.847 98.2301 145.41 97.2288 144.151C96.2479 142.918 94.9797 141.74 93.5822 141.507L93.4178 142.493C94.4203 142.66 95.4855 143.566 96.4462 144.774C97.3865 145.956 98.1414 147.319 98.5448 148.207L99.4552 147.793ZM93.3244 141.532L89.3244 143.032L89.6756 143.968L93.6756 142.468L93.3244 141.532ZM89.0192 143.637C89.3704 144.867 90.2072 146.648 91.5976 148.03C93.0023 149.425 94.9903 150.425 97.5822 149.993L97.4178 149.007C95.2097 149.375 93.5311 148.541 92.3024 147.32C91.0594 146.085 90.2962 144.467 89.9808 143.363L89.0192 143.637ZM107.224 145.947L110.224 144.447L109.776 143.553L106.776 145.053L107.224 145.947ZM110.464 143.814L107.464 136.314L106.536 136.686L109.536 144.186L110.464 143.814ZM109.536 144.186L110.536 146.686L111.464 146.314L110.464 143.814L109.536 144.186ZM111.179 146.967L117.679 144.467L117.321 143.533L110.821 146.033L111.179 146.967ZM117.632 144.482C122.224 143.23 129.361 141.101 135.856 138.783C139.102 137.625 142.196 136.416 144.733 135.243C147.251 134.079 149.284 132.923 150.354 131.854L149.646 131.146C148.716 132.077 146.833 133.171 144.314 134.335C141.815 135.49 138.752 136.688 135.519 137.842C129.055 140.149 121.943 142.27 117.368 143.518L117.632 144.482ZM149.5 131.479L148.5 155.479L149.5 155.521L150.5 131.521L149.5 131.479ZM148.526 155.342L147.026 159.842L147.974 160.158L149.474 155.658L148.526 155.342ZM147.146 160.354L148.646 161.854L149.354 161.146L147.854 159.646L147.146 160.354ZM204.981 158.863L203.981 155.363L203.019 155.637L204.019 159.137L204.981 158.863ZM204 155.485L202.5 103.985L201.5 104.015L203 155.515L204 155.485ZM201.538 104.191L211.038 127.191L211.962 126.809L202.462 103.809L201.538 104.191ZM211.026 126.842C210.177 129.389 208.205 137.529 207.002 149.952L207.998 150.048C209.195 137.671 211.157 129.611 211.974 127.158L211.026 126.842ZM207.008 149.911L204.008 166.411L204.992 166.589L207.992 150.089L207.008 149.911ZM215.976 168.654L221.976 150.154L221.024 149.846L215.024 168.346L215.976 168.654ZM221.971 150.166C222.98 147.31 224.362 142.533 225.243 137.46C226.12 132.403 226.511 126.984 225.485 122.879L224.515 123.121C225.489 127.016 225.13 132.263 224.257 137.289C223.388 142.301 222.02 147.024 221.029 149.834L221.971 150.166ZM225.476 122.847L212.476 82.3471L211.524 82.6528L224.524 123.153L225.476 122.847ZM212.5 82.5C212.5 79.2258 210.645 72.1047 203.134 70.0182L202.866 70.9817C209.755 72.8952 211.5 79.4408 211.5 82.5H212.5ZM203.094 70.009L190.094 67.509L189.906 68.491L202.906 70.991L203.094 70.009ZM189.534 67.8187L172.034 112.819L172.966 113.181L190.466 68.1812L189.534 67.8187ZM148.918 161.993C150.851 162.315 157.437 162.93 168.997 162.994L169.003 161.994C157.457 161.93 150.935 161.316 149.082 161.007L148.918 161.993ZM168.997 162.994C169.649 162.998 170.317 163 171 163V162C170.318 162 169.653 161.998 169.003 161.994L168.997 162.994ZM167.5 128.515L168.5 162.509L169.5 162.48L168.5 128.485L167.5 128.515ZM168.412 128.783L185.912 103.283L185.088 102.717L167.588 128.217L168.412 128.783ZM186 103V89.5H185V103H186ZM185.854 89.8535L196.354 79.3535L195.646 78.6464L185.146 89.1464L185.854 89.8535ZM196.471 78.8335C195.966 77.4008 195.058 75.1311 193.972 72.9635C192.898 70.8196 191.609 68.6898 190.32 67.6158L189.68 68.3841C190.791 69.3101 192.002 71.2636 193.078 73.4114C194.142 75.5355 195.034 77.7658 195.529 79.1664L196.471 78.8335ZM151.023 73.8499L137.023 118.35L137.977 118.65L151.977 74.15L151.023 73.8499ZM137.268 118.057L105.768 134.557L106.232 135.443L137.732 118.943L137.268 118.057ZM105.584 135.277L106.584 136.777L107.416 136.223L106.416 134.723L105.584 135.277ZM150.5 131.514L151.5 95.5138L150.5 95.4861L149.5 131.486L150.5 131.514ZM172.02 112.861L170.859 116.861L171.819 117.139L172.98 113.139L172.02 112.861ZM166.502 68.0441L170.841 117.044L171.837 116.956L167.498 67.9559L166.502 68.0441ZM166.955 67.502C166.374 67.5548 165.685 67.64 164.922 67.761L165.078 68.7486C165.822 68.6307 166.489 68.5485 167.045 68.4979L166.955 67.502ZM164.922 67.761C162.844 68.0904 160.195 68.6889 157.674 69.6361C155.163 70.5796 152.728 71.8881 151.128 73.6655L151.872 74.3344C153.314 72.7318 155.575 71.4934 158.026 70.5722C160.468 69.6546 163.048 69.0705 165.078 68.7486L164.922 67.761ZM164.621 67.9292C163.857 68.8194 162.668 70.3491 161.567 72.0628C160.472 73.7672 159.435 75.6972 159.015 77.3787L159.985 77.6212C160.365 76.1027 161.328 74.2843 162.408 72.6033C163.482 70.9315 164.643 69.4386 165.379 68.5804L164.621 67.9292ZM159.057 77.7312L165.057 89.2312L165.943 88.7687L159.943 77.2687L159.057 77.7312ZM165.026 88.8418L161.026 100.842L161.974 101.158L165.974 89.1581L165.026 88.8418ZM170.859 116.861L168.681 124.361L169.641 124.639L171.819 117.139L170.859 116.861ZM168.681 124.361L167.52 128.361L168.48 128.639L169.641 124.639L168.681 124.361ZM161.025 101.155L168.686 124.655L169.637 124.345L161.975 100.845L161.025 101.155ZM175.631 71.3378L181.131 77.3378L181.869 76.6621L176.369 70.6621L175.631 71.3378ZM181.884 77.32L189.384 68.32L188.616 67.6799L181.116 76.6799L181.884 77.32ZM189.493 67.9178C189.399 67.3548 189.123 66.5237 188.584 65.8207C188.036 65.1053 187.193 64.5 186 64.5V65.5C186.807 65.5 187.381 65.8947 187.791 66.4292C188.21 66.9762 188.434 67.6451 188.507 68.0822L189.493 67.9178ZM185.743 64.5712L175.743 70.5712L176.257 71.4287L186.257 65.4287L185.743 64.5712ZM175.709 70.5931L168.709 75.5931L169.291 76.4068L176.291 71.4068L175.709 70.5931ZM169.497 75.9415L168.497 67.4415L167.503 67.5584L168.503 76.0584L169.497 75.9415ZM168.291 67.9068L171.791 65.4068L171.209 64.5931L167.709 67.0931L168.291 67.9068ZM171.1 65.3L175.6 71.3L176.4 70.7L171.9 64.7L171.1 65.3ZM167.776 67.0527L166.776 67.5527L167.224 68.4472L168.224 67.9472L167.776 67.0527ZM186.5 65V55.5H185.5V65H186.5ZM170.658 63.0256C170.043 62.8205 168.896 62.0587 167.695 60.3724C166.503 58.699 165.277 56.14 164.489 52.3969L163.511 52.603C164.323 56.4599 165.597 59.1509 166.88 60.9525C168.154 62.7412 169.457 63.6794 170.342 63.9743L170.658 63.0256ZM164.5 52.5V41H163.5V52.5H164.5ZM163.911 41.4919C165.879 41.8497 171.263 41.582 177.745 37.9357L177.255 37.0642C170.937 40.6179 165.788 40.8168 164.089 40.508L163.911 41.4919ZM177.745 37.9357C179.323 37.048 180.514 36.5703 181.398 36.3669C182.287 36.1623 182.809 36.2479 183.103 36.4041C183.379 36.5504 183.538 36.8028 183.604 37.1557C183.672 37.5199 183.63 37.9568 183.518 38.3684L184.482 38.6315C184.62 38.1264 184.691 37.53 184.587 36.9724C184.481 36.4033 184.184 35.8453 183.572 35.5208C182.979 35.2062 182.181 35.1605 181.174 35.3924C180.161 35.6254 178.877 36.1519 177.255 37.0642L177.745 37.9357ZM183.5 38.5V46H184.5V38.5H183.5ZM184.354 46.3535C184.823 45.8841 185.622 45.252 186.473 44.8839C187.337 44.5106 188.115 44.4612 188.7 44.9L189.3 44.1C188.285 43.3387 187.063 43.5393 186.077 43.966C185.078 44.3979 184.177 45.1158 183.646 45.6464L184.354 46.3535ZM188.646 44.8535C189.059 45.2658 189.484 46.0468 189.378 47.0209C189.273 47.9833 188.637 49.2434 186.713 50.5903L187.287 51.4096C189.363 49.9565 190.227 48.4666 190.372 47.129C190.516 45.8031 189.941 44.7341 189.354 44.1464L188.646 44.8535ZM186.512 50.8915L185.512 55.3915L186.488 55.6084L187.488 51.1084L186.512 50.8915ZM164.089 40.508C162.559 40.2298 159.11 38.0363 159.499 31.0277L158.501 30.9722C158.09 38.3636 161.774 41.1034 163.911 41.4919L164.089 40.508ZM158.576 31.265C159.075 32.0631 160.162 32.9228 161.81 33.0972C163.46 33.2718 165.619 32.7562 168.285 30.9111L167.715 30.0889C165.181 31.8437 163.257 32.2448 161.915 32.1027C160.571 31.9605 159.759 31.2702 159.424 30.735L158.576 31.265ZM168.36 30.8468C170.487 28.6383 174.136 25.9028 178.152 24.846C180.153 24.3195 182.229 24.2136 184.253 24.7799C186.272 25.345 188.273 26.5888 190.115 28.8184L190.885 28.1815C188.927 25.8111 186.757 24.4425 184.522 23.8169C182.291 23.1925 180.03 23.3179 177.898 23.8789C173.648 24.9971 169.846 27.8616 167.64 30.1531L168.36 30.8468ZM190.015 28.6212L190.515 30.6212L191.485 30.3787L190.985 28.3787L190.015 28.6212ZM191 31C191.552 31 192.472 31.3375 193.181 32.5519C193.894 33.7747 194.397 35.9034 194.003 39.4448L194.997 39.5552C195.403 35.8966 194.906 33.5253 194.044 32.048C193.178 30.5624 191.948 30 191 30L191 31ZM194.018 39.3684L192.518 44.8684L193.482 45.1316L194.982 39.6316L194.018 39.3684ZM192.54 44.803C192.028 45.998 191.41 47.8736 191.228 49.6233C191.137 50.4971 191.151 51.3741 191.366 52.1304C191.584 52.8966 192.018 53.5681 192.776 53.9472L193.224 53.0528C192.782 52.8319 192.491 52.4325 192.328 51.8571C192.161 51.2717 192.138 50.5363 192.222 49.7267C192.39 48.1097 192.972 46.3353 193.46 45.197L192.54 44.803ZM192.7 53.1C192.066 53.5755 190.958 54.2502 189.726 54.706C188.482 55.1668 187.197 55.3719 186.158 55.0256L185.842 55.9743C187.203 56.428 188.752 56.1331 190.074 55.6439C191.409 55.1497 192.601 54.4245 193.3 53.9L192.7 53.1ZM175.503 70.9495L170.841 116.95L171.836 117.05L176.497 71.0504L175.503 70.9495ZM185.612 55.1847C183.691 57.5487 178.576 62.0486 172.434 62.8696L172.566 63.8608C179.06 62.9928 184.383 58.2832 186.388 55.8153L185.612 55.1847ZM172.434 62.8696C171.799 62.9544 171.154 63 170.5 63V64C171.2 64 171.89 63.9512 172.566 63.8608L172.434 62.8696ZM171.927 65.2609L172.927 63.6261L172.073 63.1043L171.073 64.739L171.927 65.2609ZM148.5 161.5V216.5H149.5V161.5H148.5ZM148.5 216.5V319H149.5V216.5H148.5ZM164.497 319.056L170.997 261.556L170.003 261.444L163.503 318.944L164.497 319.056ZM171 261.5V254H170V261.5H171ZM170.995 253.928L167.995 233.428L167.005 233.572L170.005 254.072L170.995 253.928ZM167.986 233.618L172.986 213.118L172.014 212.882L167.014 233.382L167.986 233.618ZM172.989 212.896L167.989 189.396L167.011 189.604L172.011 213.104L172.989 212.896ZM172.004 213.062L175.004 237.062L175.996 236.938L172.996 212.938L172.004 213.062ZM175.007 237.084L189.007 319.084L189.993 318.916L175.993 236.916L175.007 237.084ZM205 317.486L203.5 264.486L202.5 264.514L204 317.514L205 317.486ZM203.488 264.39L198.988 244.39L198.012 244.61L202.512 264.61L203.488 264.39ZM198.998 244.45L198.498 239.45L197.502 239.55L198.002 244.55L198.998 244.45ZM198.499 239.524L198.999 229.024L198.001 228.976L197.501 239.476L198.499 239.524ZM198.5 229.5H243.5V228.5H198.5V229.5ZM179.5 229.5H198.5V228.5H179.5V229.5ZM179 186V204H180V186H179ZM179 204V229H180V204H179ZM179.5 204.5H203V203.5H179.5V204.5ZM203.5 204V201.5H202.5V204H203.5ZM203 202H213.5V201H203V202ZM213.5 208H203V209H213.5V208ZM203.5 208.5V204H202.5V208.5H203.5ZM213 201.5V204H214V201.5H213ZM213 204V208.5H214V204H213ZM244 229V204H243V229H244ZM244 204V186H243V204H244ZM213.5 204.5H243.5V203.5H213.5V204.5ZM204.411 166.992L207.161 167.492L207.34 166.508L204.589 166.008L204.411 166.992ZM206.803 166.776L204.553 171.276L205.447 171.724L207.697 167.224L206.803 166.776ZM204.646 171.146L202.646 173.146L203.354 173.854L205.354 171.854L204.646 171.146ZM203 177.5H205.5V176.5H203V177.5ZM205.5 182.5H215V181.5H205.5V182.5ZM207.161 167.492L213.411 168.628L213.589 167.644L207.34 166.508L207.161 167.492ZM213.411 168.628L215.411 168.992L215.589 168.008L213.589 167.644L213.411 168.628ZM214.964 172.813C214.72 172.207 214.378 171.241 214.147 170.322C214.032 169.861 213.948 169.426 213.915 169.06C213.881 168.675 213.911 168.443 213.958 168.338L213.042 167.935C212.889 168.284 212.882 168.732 212.919 169.15C212.958 169.587 213.055 170.078 213.178 170.565C213.422 171.539 213.78 172.55 214.036 173.187L214.964 172.813ZM205 177V180H206V177H205ZM205 180V182H206V180H205ZM205.5 179.5H203V180.5H205.5V179.5ZM202.5 180V186H203.5V180H202.5ZM203 185.5H199.5V186.5H203V185.5ZM200 186V177H199V186H200ZM199.5 177.5H203V176.5H199.5V177.5ZM216.249 176.986C216.204 175.45 215.861 173.852 214.884 172.68L214.116 173.32C214.885 174.243 215.208 175.577 215.249 177.014L216.249 176.986ZM215.749 177.5H221V176.5H215.749V177.5ZM220.5 177V186H221.5V177H220.5ZM221 185.5H218V186.5H221V185.5ZM218 185.5H203V186.5H218V185.5ZM218.5 186V180.5H217.5V186H218.5ZM215.474 182.158C215.616 181.733 215.763 181.202 215.891 180.604L214.913 180.396C214.792 180.959 214.655 181.455 214.526 181.842L215.474 182.158ZM215.891 180.604C216.117 179.546 216.286 178.264 216.249 176.986L215.249 177.014C215.283 178.192 215.127 179.393 214.913 180.396L215.891 180.604ZM218 180H215.402V181H218V180ZM170.972 162.999C175.128 163.23 181.468 163.355 187.615 163.031C193.735 162.709 199.756 161.939 203.21 160.336L202.79 159.429C199.532 160.94 193.695 161.709 187.563 162.032C181.458 162.354 175.155 162.23 171.028 162.001L170.972 162.999ZM203.21 160.336C203.816 160.055 204.354 159.743 204.805 159.396L204.195 158.604C203.817 158.894 203.347 159.17 202.79 159.429L203.21 160.336ZM189 68.5H190V67.5H189V68.5ZM202.5 173.5V174H203.5V173.5H202.5ZM202.5 174V177H203.5V174H202.5ZM202.5 159.882V174H203.5V159.882H202.5ZM186.5 185.5H179.5V186.5H186.5V185.5ZM187 186V184H186V186H187ZM186.5 184.5H195.5V183.5H186.5V184.5ZM199.5 185.5H195.5V186.5H199.5V185.5ZM195.5 185.5H186.5V186.5H195.5V185.5ZM195 184V186H196V184H195ZM226.5 185.5H221V186.5H226.5V185.5ZM227 186V184H226V186H227ZM226.5 184.5H236.5V183.5H226.5V184.5ZM243.5 185.5H236.5V186.5H243.5V185.5ZM236.5 185.5H226.5V186.5H236.5V185.5ZM236 184V186H237V184H236ZM62.0672 228.371C62.9339 228.254 63.7737 228.128 64.5822 227.993L64.4178 227.007C63.6203 227.14 62.7906 227.264 61.9328 227.38L62.0672 228.371ZM61.5002 227.889L62.5002 265.513L63.4998 265.487L62.4998 227.863L61.5002 227.889ZM62.5007 265.473L60.0007 312.473L60.9993 312.527L63.4993 265.527L62.5007 265.473ZM60.0068 312.418C59.6552 314.528 60.0983 319.321 64.7931 321.455L65.2069 320.545C61.1017 318.679 60.6782 314.472 60.9932 312.582L60.0068 312.418ZM78.7764 327.447C79.2394 327.679 79.9442 328.125 80.525 328.695C81.119 329.277 81.5 329.904 81.5 330.5H82.5C82.5 329.496 81.881 328.623 81.225 327.98C80.5558 327.325 79.7606 326.821 79.2236 326.553L78.7764 327.447ZM82 330H50.5V331H82V330ZM51.9287 321.757C52.5081 320.792 53.3081 317.991 52.4903 313.902L51.5097 314.098C52.2919 318.009 51.4919 320.542 51.0713 321.243L51.9287 321.757ZM52.4903 313.902C51.9976 311.438 51.1246 302.475 50.3735 292.898C49.6233 283.334 49 273.227 49 268.5H48C48 273.273 48.6267 283.416 49.3765 292.977C50.1254 302.525 51.0024 311.562 51.5097 314.098L52.4903 313.902ZM48.9996 268.52C49.1663 264.353 49.699 254.643 50.495 249.071L49.505 248.929C48.701 254.557 48.1671 264.314 48.0004 268.48L48.9996 268.52ZM45.0177 229.671C51.0702 229.456 57.0312 229.054 62.0672 228.371L61.9328 227.38C56.9429 228.057 51.0184 228.457 44.9823 228.671L45.0177 229.671ZM50.495 249.071C51.5193 241.9 48.4467 234.617 45.442 228.937L44.558 229.405C47.5533 235.067 50.4807 242.1 49.505 248.929L50.495 249.071ZM36.505 229.86C39.3071 229.832 42.1734 229.772 45.0177 229.671L44.9823 228.671C42.1476 228.772 39.2899 228.832 36.495 228.86L36.505 229.86ZM36.0152 229.237L16.5152 306.377L17.4848 306.623L36.9848 229.482L36.0152 229.237ZM16.5528 306.276C15.7769 307.828 14.9485 310.358 14.9876 312.933C15.0268 315.525 15.9518 318.211 18.738 319.926L19.262 319.074C16.8482 317.589 16.0232 315.275 15.9874 312.917C15.9515 310.542 16.7231 308.172 17.4472 306.724L16.5528 306.276ZM34.4656 331.001C29.7204 331.328 15.5249 329.714 1.16982 324.53L0.830178 325.47C15.2751 330.686 29.6129 332.338 34.5344 331.999L34.4656 331.001ZM1.48076 325.137L2.48076 321.637L1.51924 321.363L0.519238 324.863L1.48076 325.137ZM6.98671 315.115L8.98671 306.615L8.01329 306.385L6.01329 314.885L6.98671 315.115ZM8.99644 306.56L16.4964 244.06L15.5036 243.94L8.00356 306.44L8.99644 306.56ZM14.9762 229.499C16.2401 229.56 17.7071 229.618 19.335 229.671L19.3673 228.671C17.7438 228.619 16.282 228.56 15.0238 228.501L14.9762 229.499ZM19.335 229.671C24.0465 229.823 30.1102 229.924 36.505 229.86L36.495 228.86C30.116 228.924 24.0666 228.823 19.3673 228.671L19.335 229.671ZM16.4974 244.051C16.6965 242.12 17.1026 239.063 17.6718 236.176C17.9564 234.733 18.2804 233.34 18.6374 232.156C18.9979 230.96 19.3798 230.02 19.7651 229.452L18.9372 228.891C18.463 229.591 18.0463 230.652 17.6799 231.868C17.3101 233.094 16.9788 234.522 16.6907 235.983C16.1143 238.906 15.7042 241.994 15.5026 243.949L16.4974 244.051ZM2.4111 321.785L4.14187 319.285L3.31967 318.715L1.5889 321.215L2.4111 321.785ZM4.14187 319.285L6.9111 315.285L6.0889 314.715L3.31967 318.715L4.14187 319.285ZM26.6021 324.431C28.6071 325.606 30.4046 326.769 31.7351 327.969C33.0728 329.175 33.8699 330.357 34.0031 331.555L34.9969 331.445C34.8234 329.882 33.8079 328.491 32.4047 327.226C30.9944 325.955 29.1227 324.749 27.1075 323.569L26.6021 324.431ZM3.4601 319.42C5.82274 320.942 9.81746 323.014 14.1539 324.304C18.4733 325.59 23.2324 326.13 27.0551 324.458L26.6544 323.542C23.161 325.07 18.6879 324.61 14.4392 323.346C10.2076 322.086 6.29839 320.058 4.00144 318.58L3.4601 319.42ZM50.9808 330.363C50.7293 329.482 50.4871 326.982 51.3603 323.626L50.3925 323.374C49.4841 326.866 49.709 329.551 50.0192 330.637L50.9808 330.363ZM51.3603 323.626C51.5227 323.001 51.7236 322.348 51.9699 321.671L51.0301 321.329C50.7729 322.036 50.5627 322.72 50.3925 323.374L51.3603 323.626ZM64.803 321.46L72.803 324.888L73.197 323.969L65.197 320.54L64.803 321.46ZM72.803 324.888L78.803 327.46L79.197 326.54L73.197 323.969L72.803 324.888ZM50.5955 323.914C53.6018 325.956 62.2191 328.897 73.1715 324.898L72.8285 323.959C62.1809 327.846 53.9 324.949 51.1573 323.086L50.5955 323.914ZM161 319.5H164V318.5H161V319.5ZM163.405 327.509C158.267 328.504 144.37 330.399 130.014 330L129.986 331C144.43 331.401 158.4 329.496 163.595 328.491L163.405 327.509ZM130.488 330.608C130.613 330.047 131.333 328.891 133.299 327.606C135.242 326.336 138.346 324.98 143.102 323.989L142.898 323.011C138.054 324.02 134.825 325.414 132.751 326.769C130.701 328.109 129.72 329.453 129.512 330.392L130.488 330.608ZM149 319.5H152V318.5H149V319.5ZM152 319.5H161V318.5H152V319.5ZM202.05 318.248L204.55 317.998L204.45 317.002L201.95 317.252L202.05 318.248ZM204.35 327.523C200.589 328.705 187.085 330.89 171.529 330.001L171.471 330.999C187.115 331.894 200.745 329.705 204.65 328.477L204.35 327.523ZM172 330.5C172 330.297 172.121 329.904 172.597 329.363C173.065 328.832 173.84 328.199 175.045 327.524C177.454 326.173 181.519 324.686 188.089 323.492L187.911 322.508C181.281 323.714 177.096 325.227 174.555 326.651C173.285 327.364 172.41 328.062 171.847 328.702C171.291 329.333 171 329.953 171 330.5H172ZM189.55 319.498L194.05 319.048L193.95 318.052L189.45 318.502L189.55 319.498ZM194.05 319.048L202.05 318.248L201.95 317.252L193.95 318.052L194.05 319.048ZM188.074 323.494C189.117 323.338 190.681 322.92 192 322.161C193.306 321.408 194.5 320.239 194.5 318.55H193.5C193.5 319.701 192.694 320.607 191.5 321.294C190.319 321.975 188.883 322.362 187.926 322.506L188.074 323.494ZM201.514 317.868L202.514 321.968L203.486 321.732L202.486 317.632L201.514 317.868ZM202.514 321.968L204.014 328.118L204.986 327.882L203.486 321.732L202.514 321.968ZM187.87 323.483C190.597 324.216 197.465 325.012 203.213 322.302L202.787 321.398C197.335 323.968 190.736 323.218 188.13 322.517L187.87 323.483ZM143.029 323.999C143.97 323.944 145.217 323.786 146.493 323.487L146.265 322.513C145.049 322.798 143.858 322.949 142.971 323.001L143.029 323.999ZM146.493 323.487C147.827 323.174 149.224 322.7 150.334 322.007C151.44 321.316 152.334 320.358 152.496 319.062L151.504 318.938C151.395 319.81 150.786 320.545 149.804 321.159C148.825 321.771 147.547 322.213 146.265 322.513L146.493 323.487ZM160.518 319.134L161.629 323.134L162.593 322.866L161.482 318.866L160.518 319.134ZM161.629 323.134L163.018 328.134L163.982 327.866L162.593 322.866L161.629 323.134ZM146.21 323.471C147.646 323.987 150.148 324.596 153.041 324.774C155.933 324.952 159.252 324.7 162.299 323.463L161.923 322.537C159.059 323.7 155.902 323.948 153.102 323.776C150.302 323.604 147.894 323.013 146.548 322.529L146.21 323.471ZM23.888 321.742C22.3132 320.862 20.735 319.981 19.262 319.074L18.738 319.926C20.232 320.845 21.8291 321.737 23.4003 322.615L23.888 321.742ZM203.5 173.5V159.882H202.5V173.5H203.5ZM23.4003 322.615L23.4026 322.616L23.8903 321.743L23.888 321.742L23.4003 322.615ZM83.4893 141.603L83.6998 140.603L82.7212 140.397L82.5107 141.397L83.4893 141.603ZM83.6998 140.603L85.0682 134.103L84.0897 133.897L82.7212 140.397L83.6998 140.603ZM89.7153 143.049L83.4258 140.049L82.9953 140.951L89.2847 143.951L89.7153 143.049ZM23.8933 321.745L23.892 321.744L23.4008 322.615L23.4021 322.616L23.8933 321.745ZM23.9036 321.751L23.9026 321.75L23.3928 322.611L23.3938 322.611L23.9036 321.751ZM27.1075 323.569C26.0673 322.959 24.9812 322.353 23.8934 321.745L23.4057 322.618C24.4952 323.227 25.5722 323.828 26.6021 324.431L27.1075 323.569ZM23.9045 321.751L23.9036 321.751L23.3938 322.611L23.3947 322.612L23.9045 321.751Z" fill="#18376B"/>
</svg>
