<svg width="342" height="338" viewBox="0 0 342 338" fill="none" xmlns="http://www.w3.org/2000/svg">
<path d="M1 333H341.5" stroke="#18376B" stroke-linecap="round"/>
<mask id="mask0_38_17" style="mask-type:alpha" maskUnits="userSpaceOnUse" x="2" y="0" width="329" height="328">
<circle r="164" transform="matrix(-1 0 0 1 166.5 164)" fill="#FFCDCF"/>
</mask>
<g mask="url(#mask0_38_17)">
<circle r="164" transform="matrix(-1 0 0 1 166.5 164)" fill="#FFCDCF"/>
<path d="M171.5 251V115L230 135V251M182 118.5V96M171.5 100.5V97M171.5 100.5V105.5M171.5 100.5H176.5M194 100.5H188.5M194 104.5V97M176.5 100.5V97M176.5 100.5H188.5M188.5 100.5V96M60 251V158H67V163M67 251V163M67 163H96.5V170.5M96.5 170.5C93.8333 171 88.5 173.4 88.5 179H94.5M96.5 170.5C103.7 170.9 105.833 176.333 106 179H100.25M94.5 179C94.5 180 95.1 182 97.5 182C99.9 182 100.333 180 100.25 179M94.5 179H100.25M0 158L21 179H10M-5.5 179H10M10 179V200M10 241V200M10 200H48V251M97.5 243H88C87.6295 240.851 87.4896 237.628 88.1516 234.5M97.5 243C97.5 237.4 102.167 236 104.5 236C109.7 236 111.333 240.667 111.5 243M97.5 243C97.6667 245 99.2 249 104 249C108.8 249 111 245 111.5 243M149 237H151.5V241.5H149M149 237V241.5M149 237C149 236.655 148.991 236.322 148.972 236M141.5 243H149V241.5M141.5 243C141.333 240.667 139.7 236 134.5 236C129.3 236 127.667 240.667 127.5 243M141.5 243C141 245.333 138.8 250 134 250C129.2 250 127.667 245.333 127.5 243M127.5 243H111.5M93.2274 226.5C93.9055 226.09 94.6605 225.752 95.5 225.5L99.5 224.5C101 224.333 104.4 222.3 106 215.5C108 207 109 201 121 199.5C133 198 137.5 203 137.5 212C137.5 219.2 137.5 220 137.5 219.5C137.5 222 138.7 227.1 143.5 227.5C144.631 227.706 146.459 228.685 147.694 231M93.2274 226.5C93.8182 228.333 94.7 232.4 93.5 234L88.1516 234.5M93.2274 226.5C90.3162 228.259 88.8223 231.331 88.1516 234.5M147.694 231H144.5V236H148.972M147.694 231C148.36 232.249 148.854 233.886 148.972 236M116.5 229.5H120M195 158H183V144.5H195V158ZM219 158H207V144.5H219V158ZM195 183H183V169.5H195V183ZM219 183H207V169.5H219V183ZM195 209H183V195.5H195V209ZM219 209H207V195.5H219V209ZM195 235H183V221.5H195V235ZM219 235H207V221.5H219V235ZM176.5 51C177.333 45.3334 182.5 36 196.5 44C202 38.8333 213.7 31.6 216.5 44C225.667 43.8334 241.5 46.2 231.5 57C229.5 58.8333 222.5 61.4 210.5 57C205.333 59.6667 192.9 63.9 184.5 59.5C179.5 61.1667 168.6 63 165 57C160.5 49.5 168.5 49.5001 176.5 51ZM14 208H40V219.5H14V208ZM14 229H40V240.5H14V229ZM133 241.5C133.833 240.833 135.6 240.3 136 243.5C135.667 244.167 134.6 245.3 133 244.5C131.4 243.7 132.333 242.167 133 241.5ZM104.5 240C105.167 240.167 106.5 240.9 106.5 242.5C106.5 244.1 104.833 244.5 104 244.5C103.5 244.333 102.5 243.7 102.5 242.5C102.5 241.3 103.833 240.333 104.5 240ZM120 225.5V206C117.833 206 113.3 207.4 112.5 213L111.5 225.5H120ZM123.5 225.5V206C126.5 205.667 132.3 207.7 131.5 218.5V225.5H123.5Z" stroke="#18376B" stroke-linecap="square"/>
<path d="M58.5 288H277.5M25.5 252H307.5" stroke="#18376B" stroke-width="3" stroke-linecap="square"/>
<path d="M25.5 270H307.5" stroke="#18376B" stroke-width="2" stroke-linecap="square" stroke-dasharray="6 12"/>
</g>
<path d="M51.4999 118L46.9999 156V162.5L43.9999 166.5L42.9999 168.7L44.9999 172.5L46.9999 177V185.5C46.1666 185.333 44.3999 183.8 43.9999 179C43.1666 179.75 41.4999 181.4 41.4999 182C41.4999 182.6 41.8332 186.583 41.9999 188.5V191.5C40.7688 191.808 38.6664 191.661 36.9518 189.917L36.9999 190L28.4999 247L22.4999 313.5H23.9999H33.9999H36.9999L63.4999 204.5L69.9999 313.5H71.4999H80.9999H84.9999L88.9999 180.5L83.4999 146L80.9999 118H78.4999H75.9999H58.9999H56.4999H51.4999Z" fill="#18376B"/>
<path d="M35.4999 106.5L22.4999 120L24.1922 122L32.2307 131.5L33.4999 133L41.4999 127C43.6666 133.333 47.7999 148 46.9999 156L51.4999 118H56.4999L54.9999 100.979C45.4188 99.4677 38.1105 103.889 35.4999 106.5Z" fill="#FE595F"/>
<path d="M58.9999 101.5H57.4999C57.3326 101.457 57.166 101.415 56.9999 101.376L58.9999 118H75.9999L71.4999 104H69.4999C68.9999 104.667 66.9999 105.6 62.9999 104L58.9999 101.5Z" fill="#FE595F"/>
<path d="M52.9999 85C51.4999 84.8334 48.4999 83.8 48.4999 81C48.4999 78.2 51.4999 79.1667 52.9999 80L54.4999 77L56.5 75V72L45.4999 74.5385C46.1666 76.0257 46.0999 79.2 40.4999 80C33.4999 81 25.4999 92.0001 29.4999 99.5001C32.6999 105.5 34.8332 106.667 35.4999 106.5C38.1105 103.889 45.4188 99.4677 54.9999 100.979C55.6561 101.083 56.3231 101.214 56.9999 101.376C57.166 101.415 57.3326 101.457 57.4999 101.5H58.9999V91.2616C56.0966 89.3642 54.0176 86.7808 52.9999 85Z" fill="#18376B"/>
<path d="M69.4999 93.5V104H71.4999H73.4999C75.6041 103.86 80.3296 104.664 84.6353 108.5C85.2707 104.5 82.9999 102.5 78.9999 99.0001C75.7999 96.2001 74.6315 91.1668 74.4473 89.0001C73.5476 91.3367 71.9915 93.0254 69.4999 93.5Z" fill="#18376B"/>
<path d="M54.9999 100.979L56.4999 118H58.9999L56.9999 101.376C56.3231 101.214 55.6561 101.083 54.9999 100.979Z" fill="#18376B"/>
<path d="M78.4999 118L73.4999 104H71.4999L75.9999 118H78.4999Z" fill="#18376B"/>
<path d="M56.5 72L73.4999 69L79.9999 67.5C79.8333 66.1667 78.9 63.3 76.5 62.5C74.1 61.7 73.4999 58.8334 73.4999 57.5C72.8333 53.5 68.1999 46.2 54.9999 49C41.7999 51.8 41.8333 67.5 43.4999 75L45.4999 74.5385L56.5 72Z" fill="#FE595F"/>
<path d="M93.9999 121.5L86.9999 111C86.24 110.05 85.4451 109.222 84.6353 108.5C80.3296 104.664 75.6041 103.86 73.4999 104L78.4999 118H80.9999L83.4999 146V140L84.9999 129L90.4999 124.417L93.9999 121.5Z" fill="#FE595F"/>
<path d="M107.5 67.5V73.0001V78.0001H158V67.5H107.5Z" fill="#FE595F"/>
<path d="M121 335H132.5V281H126.75H121V335Z" fill="#FE595F"/>
<path d="M98.4999 334.5C97.6999 330.5 87.8332 326.833 82.9999 325.5C81.3999 329.5 74.6665 328.833 71.4999 328C68.2999 331.2 68.4999 334.667 68.9999 336H98.4999V334.5Z" fill="#FE595F"/>
<path fill-rule="evenodd" clip-rule="evenodd" d="M56.5 75V72L73.4999 69C73.9499 70.5575 74.4027 72.4556 74.7626 74.5001C75.3417 74.1668 76.5999 74.1001 76.9999 76.5001C76.9811 77.8334 76.6492 80.6 75.4717 81C75.5688 83.9293 75.3092 86.7619 74.4473 89.0001C73.5476 91.3367 71.9915 93.0254 69.4999 93.5V104C68.9999 104.667 66.9999 105.6 62.9999 104L58.9999 101.5V91.2616C56.0966 89.3642 54.0176 86.7808 52.9999 85C51.4999 84.8334 48.4999 83.8 48.4999 81C48.4999 78.2 51.4999 79.1667 52.9999 80L54.4999 77L56.5 75ZM83.4999 140C88.2999 153.2 94.8332 155.833 97.4999 155.5C105.1 155.1 115.333 148.333 119.5 145H126.5C126.554 145.109 126.64 145.206 126.75 145.294C127.45 145.851 129.136 146 130 146C132.4 145.6 133.333 143.833 133.5 143V137C133.5 134.2 131.167 133.833 130 134C128.453 134 127.516 134.415 127 134.845V130H125L121.5 132.5L118.5 134C118.333 134.667 117.8 136.3 117 137.5C116.825 137.762 116.727 137.978 116.641 138.167C116.234 139.061 116.103 139.349 109.5 141C103.1 142.6 99.8332 143.667 98.9999 144L90.4999 124.417L84.9999 129L83.4999 140ZM24.1922 122L32.2307 131.5L26.9999 138C26.1666 138.667 25.1999 141 27.9999 145C30.7999 149 39.1666 162.467 42.9999 168.7L44.9999 172.5L46.9999 177V185.5C46.1666 185.333 44.3999 183.8 43.9999 179C43.1666 179.75 41.4999 181.4 41.4999 182C41.4999 182.6 41.8332 186.583 41.9999 188.5V191.5C40.7688 191.808 38.6664 191.661 36.9518 189.917C35.8809 188.827 34.9613 187.115 34.4999 184.5V180L36.9999 174.5C37.3332 173.333 37.1999 170.4 33.9999 168C30.7999 165.6 21.6666 154.667 17.4999 149.5C14.9999 146.167 11.0999 137.8 15.4999 131L24.1922 122ZM23.9999 313.5L22.9999 326C24.8332 326.967 30.0999 328.26 36.4999 325.7C35.0207 325.335 33.6335 325.11 32.4999 325L33.9999 313.5H23.9999ZM71.4999 313.5V328C74.6665 328.833 81.3999 329.5 82.9999 325.5L80.9999 320.5V313.5H71.4999Z" fill="white"/>
<path d="M20.4999 333.5C36.8999 337.5 45.9999 336.833 48.4999 336C48.1876 330.068 41.762 326.999 36.4999 325.7C30.0999 328.26 24.8332 326.967 22.9999 326C20.5999 328.4 20.3332 332 20.4999 333.5Z" fill="#FE595F"/>
<path d="M152.5 289V333.5H197.5V289H195.5C195.833 294.333 192.7 305 177.5 305C162.3 305 156.167 294.333 155 289H152.5Z" fill="#CFDDE6"/>
<path d="M155 289C156.167 294.333 162.3 305 177.5 305C192.7 305 195.833 294.333 195.5 289H155Z" fill="#CFDDE6"/>
<path d="M199.5 285H151V289H152.5H155H195.5H197.5H199.5V285Z" fill="#FE595F"/>
<path d="M261.5 62.0001L263.5 61.0001C269.9 55.8002 279.167 55.8334 283 56.5V59C283 63 284.667 65 285.5 65.5V73.5H287.5C289.554 67.9 291.356 69.5 292 71C293.5 71 296.5 68.6 296.5 59C296.5 49.4 291.167 49.0001 288.5 50.0001C288.5 44.4001 281.167 43.6668 277.5 44.0001C263.9 44.8001 261.167 56.3334 261.5 62.0001Z" fill="#18376B"/>
<path d="M250 162L247.5 193V234L253 318H259H269H271L276.5 203.5L283.5 227.5L301 289L310.5 316.5L313.5 315.2L322.5 311.3L325.5 310L315 253C310.2 252.927 307 250.97 306 250L305 220.5C305 212.867 307.295 208.147 309.028 206C306.74 194.505 305.83 181.405 305.635 169.5H298V121.5H295.5H291H260H255H253C251.667 128 249.2 145.2 250 162Z" fill="#18376B"/>
<path d="M309.028 206C307.295 208.147 305 212.867 305 220.5C305.994 219.008 307.882 218.095 310 217.56L309.028 206Z" fill="#18376B"/>
<path d="M260 121.5C260.333 114.667 261.5 99.8001 263.5 95.0001C262.436 95.0001 260.805 95.1751 259 95.6648C257.667 100.943 255 113.5 255 121.5H260Z" fill="#18376B"/>
<path d="M295.5 121.5V96.7147C294.242 96.4431 292.718 96.1695 291 95.9509V121.5H295.5Z" fill="#18376B"/>
<path d="M326 191H328C329.167 181.333 330.4 157.8 326 141C322.833 129 313.7 105.1 298.5 97.5001C297.855 97.2852 296.826 97.0011 295.5 96.7147V121.5H298V169.5H305.635C305.423 156.549 306.059 145.013 306.69 138.5C313.566 153.802 314.21 178.794 313.5 191H317H326Z" fill="#FE595F"/>
<path d="M284 95.5001C282.5 97.3334 277.7 99.8001 270.5 95.0001H263.5C261.5 99.8001 260.333 114.667 260 121.5H291V95.9509C288.908 95.6847 286.53 95.5001 284 95.5001Z" fill="#FE595F"/>
<path d="M251 100.5L237 117.5C232.667 123.833 217 138 186.5 136.5V148C200.5 151.896 232.5 154.72 248.5 134.845L250 162C249.2 145.2 251.667 128 253 121.5H255C255 113.5 257.667 100.943 259 95.6648C256.279 96.4027 253.164 97.8552 251 100.5Z" fill="#FE595F"/>
<path d="M315 253C320 253.333 330.4 253.2 332 250L333.5 220.5C331.5 222.5 324.333 223 321 223C311.102 223 306.209 221.333 305 220.5L306 250C307 250.97 310.2 252.927 315 253Z" fill="#CFDDE6"/>
<path d="M305 220.5C306.209 221.333 311.102 223 321 223C324.333 223 331.5 222.5 333.5 220.5C332.5 219.333 328.1 217 318.5 217C316.45 216.805 312.994 216.804 310 217.56C307.882 218.095 305.994 219.008 305 220.5Z" fill="#E4F1FA"/>
<path d="M324.5 316L322.5 311.3L313.5 315.2L314.5 319C317 318.833 322.5 318 324.5 316Z" fill="#CFDDE6"/>
<path d="M269 324.5V318H259V324.5C260.167 325.333 263.8 326.5 269 324.5Z" fill="#CFDDE6"/>
<path d="M332.5 321.5C330.9 318.3 326.5 316.5 324.5 316C322.5 318 317 318.833 314.5 319C304.9 323.4 302.833 330.833 303 334C313.5 331.167 334.1 324.7 332.5 321.5Z" fill="#FE595F"/>
<path fill-rule="evenodd" clip-rule="evenodd" d="M263.5 76.5001V61.0001C269.9 55.8002 279.167 55.8334 283 56.5V59C283 63 284.667 65 285.5 65.5V73.5H287.5C289.554 67.9 291.356 69.5 292 71C292.167 73.3334 291.1 78.2002 285.5 79.0001C284.5 81.1668 282.8 87.5001 284 95.5001C282.5 97.3334 277.7 99.8001 270.5 95.0001V85.9517C270.334 85.9719 270.168 85.9881 270 86.0001C264.4 86.4001 263.333 79.8334 263.5 76.5001ZM326 191H317L316 193.5L314.5 198C313 199 310 201.8 310 205L315.5 201.5L313.5 206C317.333 207.333 325.2 208.7 326 203.5V191ZM177 146.5C179 147.5 183.7 149.2 186.5 148V136.5C185.833 135.833 184.1 134.5 182.5 134.5C180.5 134.5 179.5 131 180 128C180.5 125 175 125.5 175.5 131.5C175.431 131.984 175.419 132.719 175.571 133.5C173.214 133.167 168.5 133.4 168.5 137V145.5C168.5 146.333 169.6 148 174 148C175 147.833 177 147.3 177 146.5Z" fill="white"/>
<path d="M273 333C273 329 270.333 325.667 269 324.5C263.8 326.5 260.167 325.333 259 324.5C248.6 325.7 243.667 330.667 242.5 333H273Z" fill="#FE595F"/>
<path d="M52.9999 85L53.4341 84.752L53.3079 84.5312L53.0552 84.5031L52.9999 85ZM52.9999 80L52.7571 80.4371L53.2136 80.6907L53.4472 80.2236L52.9999 80ZM54.4999 77L54.1464 76.6465L54.089 76.7038L54.0527 76.7764L54.4999 77ZM56.5 75L56.8535 75.3536L57 75.2071V75H56.5ZM56.5 72L56.4131 71.5076L56.4002 71.5099L56.3875 71.5128L56.5 72ZM79.9999 67.5L80.1124 67.9872L80.5521 67.8858L80.4961 67.438L79.9999 67.5ZM73.4999 57.5H73.9999V57.4586L73.9931 57.4178L73.4999 57.5ZM43.4999 75L43.0119 75.1085L43.1212 75.6006L43.6124 75.4872L43.4999 75ZM40.4999 80L40.5706 80.495L40.4999 80ZM29.4999 99.5001L29.0587 99.7354L29.4999 99.5001ZM57.4999 101.5L57.3744 101.984L57.4361 102H57.4999V101.5ZM58.9999 91.2616L59.2734 90.8431L58.9999 91.2616ZM62.9999 104L62.7349 104.424L62.7727 104.448L62.8142 104.464L62.9999 104ZM86.9999 111L87.4159 110.723L87.4039 110.705L87.3903 110.688L86.9999 111ZM93.9999 121.5L94.32 121.884L94.6651 121.597L94.4159 121.223L93.9999 121.5ZM85.4999 123.5V123H84.4999V123.5H85.4999ZM22.4999 120L22.1397 119.653L21.8266 119.978L22.1182 120.323L22.4999 120ZM33.4999 133L33.1182 133.323L33.4227 133.683L33.7999 133.4L33.4999 133ZM41.4999 127L41.973 126.838L41.7503 126.187L41.1999 126.6L41.4999 127ZM46.9999 156L46.5024 155.95L46.4999 155.975V156H46.9999ZM51.4999 118V117.5H51.0556L51.0034 117.941L51.4999 118ZM80.9999 118L81.4979 117.956L81.4572 117.5H80.9999V118ZM83.4999 146L83.0019 146.045L83.0034 146.062L83.0061 146.079L83.4999 146ZM88.9999 180.5L89.4997 180.515L89.5011 180.468L89.4937 180.421L88.9999 180.5ZM84.9999 313.5V314H85.4851L85.4997 313.515L84.9999 313.5ZM69.9999 313.5L69.5008 313.53L69.5288 314H69.9999V313.5ZM63.4999 204.5L63.03 204.329L63.0206 204.355L63.014 204.382L63.4999 204.5ZM36.9999 313.5V314H37.3929L37.4857 313.618L36.9999 313.5ZM22.4999 313.5L22.0019 313.455L21.9527 314H22.4999V313.5ZM28.4999 247L28.0054 246.926L28.0032 246.941L28.0019 246.955L28.4999 247ZM36.9999 190L37.4944 190.074L37.5201 189.901L37.433 189.75L36.9999 190ZM43.9999 166.5L43.5999 166.2L43.5672 166.244L43.5447 166.293L43.9999 166.5ZM46.9999 162.5L47.3999 162.8L47.4999 162.667V162.5H46.9999ZM56.9999 101.376L57.1161 100.889L56.9999 101.376ZM90.4999 124.417L90.1798 124.033L90.1798 124.033L90.4999 124.417ZM117 137.5L117.416 137.777L117.416 137.777L117 137.5ZM118.5 134L118.276 133.553L118.071 133.656L118.015 133.879L118.5 134ZM121.5 132.5L121.723 132.947L121.759 132.93L121.791 132.907L121.5 132.5ZM125 130V129.5H124.84L124.709 129.593L125 130ZM123.5 135.5L123.078 135.232L122.589 136H123.5V135.5ZM119.5 145V144.5H119.324L119.188 144.61L119.5 145ZM97.4999 155.5L97.4736 155.001L97.4557 155.002L97.4379 155.004L97.4999 155.5ZM83.4999 140L83.0045 139.933L82.9999 139.966V140H83.4999ZM130 134V134.5H130.035L130.071 134.495L130 134ZM133.5 143L133.99 143.098L134 143.05V143H133.5ZM130 146V146.5H130.041L130.082 146.493L130 146ZM96.2426 145.071L95.8139 145.329L96.3284 146.186L96.7571 145.929L96.2426 145.071ZM32.2307 131.5L32.6123 131.177L32.6123 131.177L32.2307 131.5ZM26.9999 138L27.3122 138.391L27.355 138.356L27.3894 138.314L26.9999 138ZM44.9999 172.5L45.4568 172.297L45.4501 172.282L45.4423 172.267L44.9999 172.5ZM46.9999 177H47.4999V176.894L47.4568 176.797L46.9999 177ZM46.9999 185.5L46.9018 185.99L47.4999 186.11V185.5H46.9999ZM43.9999 179L44.4982 178.959L44.4145 177.954L43.6654 178.628L43.9999 179ZM41.9999 188.5H42.4999V188.478L42.498 188.457L41.9999 188.5ZM41.9999 191.5L42.1212 191.985L42.4999 191.89V191.5H41.9999ZM34.4999 184.5H33.9999V184.544L34.0075 184.587L34.4999 184.5ZM34.4999 180L34.0447 179.793L33.9999 179.892V180H34.4999ZM36.9999 174.5L37.4551 174.707L37.4704 174.673L37.4806 174.637L36.9999 174.5ZM17.4999 149.5L17.0999 149.8L17.1052 149.807L17.1107 149.814L17.4999 149.5ZM15.4999 131L15.1402 130.653L15.1065 130.688L15.0801 130.728L15.4999 131ZM67.9698 193.671L68.1406 193.201L67.2009 192.859L67.03 193.329L67.9698 193.671ZM74.7626 74.5001L74.2701 74.5868L74.7626 74.5001ZM76.9999 76.5001L77.4998 76.5071L77.5005 76.4622L77.4931 76.4179L76.9999 76.5001ZM74.4473 89.0001L73.9807 88.8204L74.4473 89.0001ZM78.9999 99.0001L79.3291 98.6238L79.3291 98.6238L78.9999 99.0001ZM84.6353 108.5L84.3027 108.873L84.3027 108.873L84.6353 108.5ZM80.9999 320.5H80.4999V320.596L80.5356 320.686L80.9999 320.5ZM98.4999 334.5H98.9999V334.451L98.9902 334.402L98.4999 334.5ZM98.4999 336V336.5H98.9999V336H98.4999ZM68.9999 336L68.5317 336.176L68.6534 336.5H68.9999V336ZM32.4999 325L32.0041 324.935L31.9372 325.448L32.4517 325.498L32.4999 325ZM48.4999 336L48.658 336.474L49.0192 336.354L48.9992 335.974L48.4999 336ZM20.4999 333.5L20.0029 333.555L20.0416 333.903L20.3814 333.986L20.4999 333.5ZM36.4999 325.7L36.6197 325.215L36.4999 325.7ZM46.4063 68.0089L45.9152 68.1025L46.1023 69.0848L46.5934 68.9913L46.4063 68.0089ZM67.5934 64.9913L68.0846 64.8977L67.8975 63.9154L67.4063 64.0089L67.5934 64.9913ZM121 335H120.5V335.5H121V335ZM132.5 335V335.5H133V335H132.5ZM132.5 281H133V280.5H132.5V281ZM121 281V280.5H120.5V281H121ZM126.75 145.294L127.061 144.903L126.75 145.294ZM127 134.845L127.32 135.229L127 134.845ZM127 110H127.5V109.806L127.369 109.663L127 110ZM100.5 81H99.9999V81.1941L100.131 81.3373L100.5 81ZM100.5 73.0001V72.5001H99.9999V73.0001H100.5ZM107.5 67.5V67H107V67.5H107.5ZM158 67.5H158.5V67H158V67.5ZM158 78.0001V78.5001H158.5V78.0001H158ZM107.5 78.0001H107V78.5001H107.5V78.0001ZM151 285V284.5H150.5V285H151ZM199.5 285H200V284.5H199.5V285ZM199.5 289V289.5H200V289H199.5ZM151 289H150.5V289.5H151V289ZM152.5 333.5H152V334H152.5V333.5ZM197.5 333.5V334H198V333.5H197.5ZM263.5 76.5001L263.999 76.5251L264 76.5126V76.5001H263.5ZM270 86.0001L269.964 85.5014L270 86.0001ZM281.929 78.2573L282.186 77.8286L281.328 77.3141L281.071 77.7429L281.929 78.2573ZM285.5 79.0001L285.429 78.5051L285.16 78.5436L285.046 78.7906L285.5 79.0001ZM251 100.5L251.386 100.818L251.387 100.817L251 100.5ZM237 117.5L236.614 117.182L236.6 117.199L236.587 117.218L237 117.5ZM248.5 134.845L248.999 134.817L248.927 133.516L248.11 134.531L248.5 134.845ZM250 162L250.498 162.04L250.501 162.008L250.499 161.976L250 162ZM247.5 193L247.001 192.96L247 192.98V193H247.5ZM247.5 234H247V234.016L247.001 234.033L247.5 234ZM253 318L252.501 318.033L252.532 318.5H253V318ZM271 318V318.5H271.476L271.499 318.024L271 318ZM276.5 203.5L276.98 203.36L276.965 203.31L276.941 203.265L276.5 203.5ZM283.5 227.5L283.981 227.363L283.98 227.36L283.5 227.5ZM301 289L300.519 289.137L300.523 289.15L300.527 289.163L301 289ZM310.5 316.5L310.027 316.663L310.203 317.173L310.699 316.959L310.5 316.5ZM325.5 310L325.699 310.459L326.064 310.301L325.992 309.91L325.5 310ZM315 253L315.033 252.501L315.02 252.5L315.007 252.5L315 253ZM332 250L332.447 250.224L332.494 250.13L332.499 250.025L332 250ZM328 191V191.5H328.443L328.496 191.06L328 191ZM326 141L326.484 140.873L326.483 140.873L326 141ZM298.5 97.5001L298.723 97.0529L298.692 97.037L298.658 97.0258L298.5 97.5001ZM313.5 191L313.001 190.971L312.97 191.5H313.5V191ZM302.887 131.183L302.57 130.797L301.796 131.43L302.113 131.817L302.887 131.183ZM316 193.5L315.536 193.314L315.53 193.328L315.526 193.342L316 193.5ZM314.5 198L314.777 198.416L314.92 198.321L314.974 198.158L314.5 198ZM315.5 201.5L315.957 201.703L316.63 200.188L315.231 201.078L315.5 201.5ZM313.5 206L313.043 205.797L312.822 206.294L313.336 206.472L313.5 206ZM305 220.5H304.5V220.509L304.5 220.517L305 220.5ZM318.5 217L318.452 217.498L318.476 217.5H318.5V217ZM306 250L305.5 250.017L305.507 250.219L305.652 250.359L306 250ZM268.941 188.265L268.706 187.824L267.823 188.294L268.059 188.735L268.941 188.265ZM305.635 169.5L306.135 169.492L306.135 169.492L305.635 169.5ZM298 169.5H297.5V170H298V169.5ZM298 121.5H298.5V121H298V121.5ZM253 121.5V121H252.592L252.51 121.4L253 121.5ZM259 95.6648L258.869 95.1822L258.869 95.1822L259 95.6648ZM291 95.9509L291.063 95.4549L291 95.9509ZM175.5 131.5L175.995 131.571L176.003 131.515L175.998 131.459L175.5 131.5ZM177.5 136.5L177.998 136.455L177.975 136.202L177.757 136.071L177.5 136.5ZM182.5 141.5L182.445 141.003L182.5 141.5ZM175.571 133.5L176.062 133.404L175.571 133.5ZM174 148V148.5H174.041L174.082 148.493L174 148ZM177.5 138V137.5H176.5V138H177.5ZM322.5 311.3L322.301 310.841L322.301 310.841L322.5 311.3ZM303 334L302.501 334.026L302.533 334.644L303.13 334.483L303 334ZM273 333V333.5H273.5V333H273ZM242.5 333L242.053 332.776L241.691 333.5H242.5V333ZM261.5 62.0001L261.001 62.0295L261.045 62.7864L261.723 62.4473L261.5 62.0001ZM277.5 44.0001L277.529 44.4992L277.537 44.4988L277.545 44.498L277.5 44.0001ZM288.5 50.0001H288V50.7216L288.675 50.4683L288.5 50.0001ZM287.5 73.5V74H287.849L287.969 73.6722L287.5 73.5ZM285.5 73.5H285V74H285.5V73.5ZM285.5 65.5H286V65.2169L285.757 65.0713L285.5 65.5ZM283 56.5H283.5V56.0794L283.086 56.0074L283 56.5ZM36.9518 189.917L37.3084 189.566L37.3084 189.566L36.9518 189.917ZM116.641 138.167L117.096 138.374L117.096 138.374L116.641 138.167ZM53.0552 84.5031C52.3641 84.4263 51.3212 84.1462 50.4661 83.5724C49.6248 83.0077 48.9999 82.1883 48.9999 81H47.9999C47.9999 82.6117 48.8751 83.709 49.9088 84.4027C50.9287 85.0872 52.1358 85.4071 52.9447 85.497L53.0552 84.5031ZM48.9999 81C48.9999 80.3865 49.1627 80.0733 49.3369 79.9075C49.5162 79.7367 49.7942 79.6393 50.1897 79.6375C50.9995 79.6339 52.034 80.0354 52.7571 80.4371L53.2428 79.5629C52.4659 79.1314 51.2504 78.6328 50.1852 78.6375C49.6432 78.6399 49.0774 78.7737 48.6474 79.1832C48.2122 79.5976 47.9999 80.2135 47.9999 81H48.9999ZM53.4472 80.2236L54.9472 77.2236L54.0527 76.7764L52.5527 79.7764L53.4472 80.2236ZM54.8535 77.3536L56.8535 75.3536L56.1464 74.6465L54.1464 76.6465L54.8535 77.3536ZM57 75V72H56V75H57ZM56.5868 72.4924L73.5868 69.4924L73.4131 68.5076L56.4131 71.5076L56.5868 72.4924ZM73.6124 69.4872L80.1124 67.9872L79.8875 67.0128L73.3875 68.5128L73.6124 69.4872ZM80.4961 67.438C80.4057 66.7152 80.113 65.6015 79.523 64.5545C78.9327 63.507 78.016 62.4783 76.6581 62.0257L76.3418 62.9744C77.3839 63.3217 78.1339 64.1264 78.6519 65.0455C79.1702 65.9653 79.4275 66.9515 79.5038 67.562L80.4961 67.438ZM76.6581 62.0257C75.6305 61.6832 74.9678 60.8948 74.5546 59.992C74.1392 59.0842 73.9999 58.1071 73.9999 57.5H72.9999C72.9999 58.2263 73.1607 59.3492 73.6453 60.4081C74.1321 61.4719 74.9694 62.5169 76.3418 62.9744L76.6581 62.0257ZM73.9931 57.4178C73.6399 55.2983 72.248 52.3471 69.2319 50.2871C66.2032 48.2185 61.5979 47.0893 54.8962 48.5109L55.1037 49.4891C61.602 48.1107 65.9134 49.2316 68.6679 51.1129C71.4352 53.003 72.6933 55.7017 73.0067 57.5822L73.9931 57.4178ZM54.8962 48.5109C48.0627 49.9604 44.6603 54.7683 43.1928 60.105C41.7316 65.4188 42.1667 71.3055 43.0119 75.1085L43.988 74.8916C43.1665 71.1945 42.7516 65.4813 44.1571 60.3701C45.5563 55.2817 48.7372 50.8396 55.1037 49.4891L54.8962 48.5109ZM43.6124 75.4872L45.6123 75.0257L45.3875 74.0513L43.3875 74.5128L43.6124 75.4872ZM45.6123 75.0257L56.6124 72.4872L56.3875 71.5128L45.3875 74.0513L45.6123 75.0257ZM45.0437 74.743C45.3285 75.3783 45.4505 76.3674 44.9187 77.2739C44.3916 78.1723 43.1468 79.1168 40.4292 79.5051L40.5706 80.495C43.453 80.0832 45.0415 79.0406 45.7812 77.78C46.5159 76.5276 46.338 75.1858 45.9562 74.334L45.0437 74.743ZM40.4292 79.5051C36.7304 80.0334 32.8703 83.1638 30.4505 87.0482C28.0285 90.9363 26.9397 95.7621 29.0587 99.7354L29.9411 99.2648C28.0602 95.7381 28.9714 91.3139 31.2993 87.5769C33.6295 83.8363 37.2694 80.9666 40.5706 80.495L40.4292 79.5051ZM29.0587 99.7354C30.6715 102.759 32.0318 104.597 33.0956 105.665C33.6273 106.199 34.0969 106.553 34.4995 106.764C34.8852 106.965 35.2788 107.071 35.6212 106.985L35.3786 106.015C35.3876 106.013 35.2646 106.035 34.9628 105.877C34.6779 105.728 34.2892 105.447 33.8042 104.96C32.8347 103.986 31.5283 102.241 29.9411 99.2648L29.0587 99.7354ZM57.4999 102H58.9999V101H57.4999V102ZM69.4064 93.0089C65.4367 93.765 61.9957 92.6222 59.2734 90.8431L58.7264 91.6802C61.6098 93.5646 65.311 94.8069 69.5935 93.9912L69.4064 93.0089ZM59.2734 90.8431C56.4449 88.9945 54.4178 86.4735 53.4341 84.752L52.5658 85.2481C53.6173 87.0882 55.7482 89.7338 58.7264 91.6802L59.2734 90.8431ZM59.4999 101.5V91.2616H58.4999V101.5H59.4999ZM68.9999 93.5V104H69.9999V93.5H68.9999ZM69.1 103.7C68.9589 103.888 68.4829 104.246 67.5078 104.353C66.5465 104.459 65.1301 104.314 63.1856 103.536L62.8142 104.464C64.8697 105.287 66.4533 105.475 67.617 105.347C68.7669 105.221 69.541 104.779 69.8999 104.3L69.1 103.7ZM63.2649 103.576L59.2649 101.076L58.7349 101.924L62.7349 104.424L63.2649 103.576ZM86.5839 111.277L93.5839 121.777L94.4159 121.223L87.4159 110.723L86.5839 111.277ZM85.4999 129V123.5H84.4999V129H85.4999ZM35.1397 106.153L22.1397 119.653L22.86 120.347L35.86 106.847L35.1397 106.153ZM33.7999 133.4L41.7999 127.4L41.1999 126.6L33.1999 132.6L33.7999 133.4ZM41.0268 127.162C42.1049 130.313 43.6745 135.545 44.8741 140.983C46.0772 146.436 46.8938 152.036 46.5024 155.95L47.4974 156.05C47.9059 151.965 47.0559 146.231 45.8506 140.767C44.6419 135.288 43.0616 130.02 41.973 126.838L41.0268 127.162ZM47.4964 156.059L51.9964 118.059L51.0034 117.941L46.5034 155.941L47.4964 156.059ZM80.5019 118.045L83.0019 146.045L83.9979 145.956L81.4979 117.956L80.5019 118.045ZM83.0061 146.079L88.5061 180.579L89.4937 180.421L83.9937 145.921L83.0061 146.079ZM88.5001 180.485L84.5001 313.485L85.4997 313.515L89.4997 180.515L88.5001 180.485ZM70.499 313.47L63.999 204.47L63.0008 204.53L69.5008 313.53L70.499 313.47ZM63.014 204.382L36.514 313.382L37.4857 313.618L63.9857 204.618L63.014 204.382ZM22.9979 313.545L28.9979 247.045L28.0019 246.955L22.0019 313.455L22.9979 313.545ZM28.9944 247.074L37.4944 190.074L36.5054 189.926L28.0054 246.926L28.9944 247.074ZM44.3999 166.8L47.3999 162.8L46.5999 162.2L43.5999 166.2L44.3999 166.8ZM47.4999 162.5V156H46.4999V162.5H47.4999ZM51.4999 118.5H56.4999V117.5H51.4999V118.5ZM35.8534 106.854C38.3734 104.334 45.5278 99.991 54.922 101.473L55.0778 100.485C45.3099 98.9443 37.8477 103.445 35.1463 106.147L35.8534 106.854ZM56.998 117.956L55.498 100.935L54.5018 101.023L56.0018 118.044L56.998 117.956ZM56.4999 118.5H58.9999V117.5H56.4999V118.5ZM54.922 101.473C55.5654 101.574 56.2196 101.703 56.8837 101.862L57.1161 100.889C56.4266 100.725 55.7469 100.591 55.0778 100.485L54.922 101.473ZM56.8837 101.862C57.0467 101.901 57.2102 101.942 57.3744 101.984L57.6254 101.016C57.455 100.972 57.2852 100.93 57.1161 100.889L56.8837 101.862ZM59.4963 117.94L57.4963 101.316L56.5035 101.435L58.5035 118.06L59.4963 117.94ZM78.4999 118.5H80.9999V117.5H78.4999V118.5ZM73.029 104.168L78.029 118.168L78.9708 117.832L73.9708 103.832L73.029 104.168ZM58.9999 118.5H75.9999V117.5H58.9999V118.5ZM75.9999 118.5H78.4999V117.5H75.9999V118.5ZM69.4999 104.5H71.4999V103.5H69.4999V104.5ZM71.4999 104.5H73.4999V103.5H71.4999V104.5ZM76.4759 117.847L71.9759 103.847L71.0239 104.153L75.5239 118.153L76.4759 117.847ZM93.6798 121.116L90.1798 124.033L90.82 124.801L94.32 121.884L93.6798 121.116ZM90.1798 124.033L84.6798 128.616L85.32 129.384L90.82 124.801L90.1798 124.033ZM90.0412 124.616L98.5412 144.199L99.4585 143.801L90.9585 124.218L90.0412 124.616ZM99.1856 144.464C99.9851 144.145 103.223 143.085 109.621 141.485L109.379 140.515C102.976 142.116 99.6814 143.189 98.8142 143.536L99.1856 144.464ZM117.416 137.777C118.261 136.51 118.812 134.815 118.985 134.121L118.015 133.879C117.855 134.519 117.339 136.09 116.584 137.223L117.416 137.777ZM118.723 134.447L121.723 132.947L121.276 132.053L118.276 133.553L118.723 134.447ZM121.791 132.907L125.291 130.407L124.709 129.593L121.209 132.093L121.791 132.907ZM125 130.5H127V129.5H125V130.5ZM126.578 129.732L123.078 135.232L123.922 135.769L127.422 130.269L126.578 129.732ZM123.5 136H126.5V135H123.5V136ZM126 135.5V145H127V135.5H126ZM126.5 144.5H119.5V145.5H126.5V144.5ZM119.188 144.61C117.125 146.259 113.551 148.767 109.551 150.909C105.539 153.059 101.161 154.807 97.4736 155.001L97.5262 155.999C101.439 155.793 105.977 153.958 110.023 151.791C114.082 149.617 117.708 147.074 119.812 145.391L119.188 144.61ZM97.4379 155.004C96.291 155.147 94.1286 154.656 91.6309 152.45C89.1429 150.253 86.3496 146.374 83.9698 139.829L83.03 140.171C85.4502 146.827 88.3236 150.864 90.9689 153.2C93.6045 155.527 96.0421 156.186 97.5619 155.996L97.4379 155.004ZM82.9999 140V146H83.9999V140H82.9999ZM83.9953 140.068L85.4953 129.068L84.5045 128.933L83.0045 139.933L83.9953 140.068ZM130.071 134.495C130.58 134.422 131.333 134.472 131.937 134.821C132.502 135.146 133 135.767 133 137H134C134 135.434 133.331 134.471 132.437 133.955C131.583 133.462 130.587 133.411 129.929 133.505L130.071 134.495ZM133 137V143H134V137H133ZM133.01 142.902C132.875 143.575 132.073 145.148 129.918 145.507L130.082 146.493C132.727 146.052 133.791 144.092 133.99 143.098L133.01 142.902ZM98.7426 143.571L96.2426 145.071L96.7571 145.929L99.2571 144.429L98.7426 143.571ZM31.849 131.823L33.1182 133.323L33.8816 132.677L32.6123 131.177L31.849 131.823ZM31.8411 131.187L26.6104 137.687L27.3894 138.314L32.6202 131.814L31.8411 131.187ZM26.6875 137.61C25.5524 138.518 24.7214 141.188 27.5903 145.287L28.4095 144.713C25.6784 140.812 26.7807 138.816 27.3122 138.391L26.6875 137.61ZM43.4551 168.907L44.4551 166.707L43.5447 166.293L42.5447 168.493L43.4551 168.907ZM27.5903 145.287C30.3795 149.272 38.7366 162.722 42.574 168.962L43.4258 168.438C39.5965 162.211 31.2202 148.729 28.4095 144.713L27.5903 145.287ZM42.5574 168.933L44.5574 172.733L45.4423 172.267L43.4423 168.467L42.5574 168.933ZM44.543 172.703L46.543 177.203L47.4568 176.797L45.4568 172.297L44.543 172.703ZM46.4999 177V185.5H47.4999V177H46.4999ZM47.0979 185.01C46.8729 184.965 46.3238 184.67 45.7674 183.732C45.2202 182.81 44.6937 181.305 44.4982 178.959L43.5016 179.042C43.706 181.495 44.2629 183.157 44.9074 184.243C45.5426 185.313 46.2935 185.869 46.9018 185.99L47.0979 185.01ZM43.6654 178.628C43.2399 179.011 42.6012 179.624 42.065 180.223C41.7978 180.521 41.5465 180.826 41.3589 181.104C41.2652 181.243 41.1806 181.385 41.1178 181.523C41.0586 181.654 40.9999 181.821 40.9999 182H41.9999C41.9999 182.029 41.9933 182.014 42.0284 181.936C42.06 181.867 42.1122 181.775 42.1878 181.663C42.3387 181.44 42.5562 181.173 42.8098 180.89C43.3152 180.326 43.9266 179.739 44.3344 179.372L43.6654 178.628ZM40.9999 182C40.9999 182.629 41.3368 186.646 41.5018 188.543L42.498 188.457C42.3297 186.521 41.9999 182.572 41.9999 182H40.9999ZM41.4999 188.5V191.5H42.4999V188.5H41.4999ZM34.9999 184.5V180H33.9999V184.5H34.9999ZM34.9551 180.207L37.4551 174.707L36.5447 174.293L34.0447 179.793L34.9551 180.207ZM37.4806 174.637C37.8701 173.274 37.6681 170.126 34.2999 167.6L33.6999 168.4C36.7316 170.674 36.7964 173.392 36.5191 174.363L37.4806 174.637ZM34.2999 167.6C33.5371 167.028 32.3919 165.923 31.0202 164.479C29.6557 163.043 28.0891 161.296 26.4894 159.459C23.2904 155.786 19.9695 151.766 17.8891 149.186L17.1107 149.814C19.1969 152.401 22.526 156.431 25.7353 160.116C27.3398 161.958 28.9169 163.717 30.2952 165.168C31.6662 166.611 32.8627 167.772 33.6999 168.4L34.2999 167.6ZM17.8999 149.2C16.6863 147.582 15.1208 144.722 14.4007 141.443C13.6819 138.169 13.8141 134.526 15.9197 131.272L15.0801 130.728C12.7857 134.274 12.6679 138.214 13.424 141.657C14.179 145.095 15.8134 148.085 17.0999 149.8L17.8999 149.2ZM22.1182 120.323L23.8105 122.323L24.5739 121.677L22.8816 119.677L22.1182 120.323ZM23.8105 122.323L31.849 131.823L32.6123 131.177L24.5739 121.677L23.8105 122.323ZM15.8595 131.347L24.5518 122.347L23.8325 121.653L15.1402 130.653L15.8595 131.347ZM63.9698 204.671L67.9698 193.671L67.03 193.329L63.03 204.329L63.9698 204.671ZM73.0196 69.1388C73.4646 70.6792 73.9134 72.5599 74.2701 74.5868L75.255 74.4134C74.892 72.3513 74.4352 70.4358 73.9803 68.8613L73.0196 69.1388ZM75.012 74.9334C75.197 74.8269 75.465 74.7792 75.7064 74.9126C75.9501 75.0474 76.3179 75.4495 76.5067 76.5823L77.4931 76.4179C77.2819 75.1507 76.8206 74.3861 76.1904 74.0376C75.5578 73.6877 74.9072 73.8399 74.5131 74.0668L75.012 74.9334ZM74.2701 74.5868C74.6337 76.6524 74.9006 78.8636 74.972 81.0166L75.9715 80.9835C75.8982 78.7734 75.6248 76.5143 75.255 74.4134L74.2701 74.5868ZM76.4999 76.4931C76.4909 77.133 76.4059 78.1166 76.1859 78.976C76.0757 79.4065 75.9375 79.7822 75.7731 80.063C75.6055 80.3493 75.4439 80.4814 75.3109 80.5266L75.6326 81.4734C76.0883 81.3186 76.4097 80.9549 76.6361 80.5683C76.8657 80.1761 77.0324 79.7018 77.1547 79.224C77.3997 78.2668 77.4901 77.2004 77.4998 76.5071L76.4999 76.4931ZM74.972 81.0166C75.0681 83.9164 74.8079 86.6722 73.9807 88.8204L74.9139 89.1798C75.8104 86.8516 76.0695 83.9422 75.9715 80.9835L74.972 81.0166ZM73.9807 88.8204C73.1243 91.0445 71.6824 92.5753 69.4064 93.0089L69.5935 93.9912C72.3007 93.4755 73.9709 91.6289 74.9139 89.1798L73.9807 88.8204ZM73.9491 89.0425C74.045 90.1709 74.3932 92.0166 75.1254 93.9404C75.8564 95.8615 76.9862 97.9025 78.6706 99.3764L79.3291 98.6238C77.8135 97.2977 76.7591 95.422 76.06 93.5848C75.3619 91.7503 75.0338 89.996 74.9455 88.9577L73.9491 89.0425ZM73.5331 104.499C75.5092 104.367 80.1014 105.13 84.3027 108.873L84.9679 108.127C80.5579 104.198 75.699 103.352 73.4666 103.501L73.5331 104.499ZM84.3027 108.873C85.0917 109.576 85.8673 110.385 86.6095 111.312L87.3903 110.688C86.6127 109.716 85.7984 108.867 84.9679 108.127L84.3027 108.873ZM78.6706 99.3764C80.6874 101.141 82.199 102.471 83.1438 103.846C84.0614 105.181 84.4385 106.552 84.1415 108.422L85.1291 108.579C85.4674 106.449 85.0268 104.82 83.9679 103.279C82.9362 101.779 81.3123 100.359 79.3291 98.6238L78.6706 99.3764ZM84.9999 313H80.9999V314H84.9999V313ZM80.4999 313.5V320.5H81.4999V313.5H80.4999ZM80.5356 320.686L82.5356 325.686L83.4641 325.314L81.4641 320.314L80.5356 320.686ZM82.8669 325.982C85.2623 326.643 88.905 327.882 92.039 329.447C93.607 330.23 95.0286 331.085 96.1002 331.978C97.1842 332.881 97.8434 333.767 98.0096 334.598L98.9902 334.402C98.7563 333.233 97.8822 332.161 96.7402 331.21C95.5858 330.248 94.0886 329.353 92.4857 328.553C89.278 326.951 85.5708 325.691 83.1328 325.018L82.8669 325.982ZM97.9999 334.5V336H98.9999V334.5H97.9999ZM98.4999 335.5H68.9999V336.5H98.4999V335.5ZM69.468 335.825C69.0326 334.663 68.8006 331.406 71.8534 328.354L71.1463 327.647C67.7992 330.994 67.9672 334.67 68.5317 336.176L69.468 335.825ZM80.9999 313H71.4999V314H80.9999V313ZM71.4999 313H69.9999V314H71.4999V313ZM71.9999 328V313.5H70.9999V328H71.9999ZM71.3726 328.484C72.9944 328.91 75.5317 329.297 77.8874 329.06C80.2198 328.826 82.5566 327.955 83.4641 325.686L82.5356 325.314C81.8432 327.046 80.0133 327.841 77.7874 328.065C75.5847 328.287 73.172 327.923 71.6271 327.517L71.3726 328.484ZM36.9999 313H33.9999V314H36.9999V313ZM33.5041 313.435L32.0041 324.935L32.9957 325.065L34.4957 313.565L33.5041 313.435ZM48.3418 335.526C47.1813 335.913 44.3563 336.291 39.7371 336.063C35.1356 335.836 28.7922 335.008 20.6184 333.014L20.3814 333.986C28.6076 335.992 35.0142 336.831 39.6877 337.062C44.3435 337.292 47.3184 336.921 48.658 336.474L48.3418 335.526ZM20.9968 333.445C20.92 332.754 20.9411 331.538 21.2725 330.209C21.6034 328.881 22.2353 327.472 23.3534 326.354L22.6463 325.647C21.3644 326.928 20.663 328.519 20.3022 329.967C19.942 331.412 19.9131 332.747 20.0029 333.555L20.9968 333.445ZM33.9999 313H23.9999V314H33.9999V313ZM23.9999 313H22.4999V314H23.9999V313ZM23.4983 326.04L24.4983 313.54L23.5015 313.46L22.5015 325.96L23.4983 326.04ZM32.4517 325.498C33.5606 325.605 34.9239 325.826 36.3801 326.186L36.6197 325.215C35.1176 324.844 33.7064 324.615 32.548 324.502L32.4517 325.498ZM36.3801 326.186C38.9768 326.827 41.8307 327.898 44.0625 329.517C46.2883 331.132 47.8549 333.259 48.0006 336.026L48.9992 335.974C48.8326 332.809 47.0303 330.435 44.6497 328.708C42.275 326.985 39.2851 325.873 36.6197 325.215L36.3801 326.186ZM22.7667 326.442C24.7293 327.477 30.1491 328.779 36.6856 326.164L36.3142 325.236C30.0506 327.741 24.9371 326.456 23.2331 325.558L22.7667 326.442ZM46.5934 68.9913L67.5934 64.9913L67.4063 64.0089L46.4063 68.0089L46.5934 68.9913ZM121 335.5H132.5V334.5H121V335.5ZM133 335V281H132V335H133ZM120.5 281V335H121.5V281H120.5ZM132.5 280.5H126.75V281.5H132.5V280.5ZM126.75 280.5H121V281.5H126.75V280.5ZM130 145.5C129.591 145.5 128.983 145.464 128.399 145.363C127.791 145.258 127.305 145.096 127.061 144.903L126.439 145.685C126.895 146.048 127.602 146.24 128.228 146.348C128.878 146.461 129.545 146.5 130 146.5V145.5ZM127.061 144.903C126.992 144.848 126.961 144.804 126.947 144.776L126.053 145.224C126.148 145.413 126.287 145.565 126.439 145.685L127.061 144.903ZM127.25 281V145.294H126.25V281H127.25ZM126.974 135.658C126.997 135.589 127.088 135.421 127.32 135.229L126.68 134.46C126.342 134.741 126.121 135.056 126.026 135.342L126.974 135.658ZM127.32 135.229C127.726 134.891 128.542 134.5 130 134.5V133.5C128.364 133.5 127.305 133.94 126.68 134.46L127.32 135.229ZM127.5 134.845V110H126.5V134.845H127.5ZM127.369 109.663L100.869 80.6627L100.131 81.3373L126.631 110.337L127.369 109.663ZM101 81V73.0001H99.9999V81H101ZM100.5 73.5001H107.5V72.5001H100.5V73.5001ZM108 73.0001V67.5H107V73.0001H108ZM107.5 68H158V67H107.5V68ZM157.5 67.5V78.0001H158.5V67.5H157.5ZM158 77.5001H107.5V78.5001H158V77.5001ZM108 78.0001V73.0001H107V78.0001H108ZM151 285.5H199.5V284.5H151V285.5ZM199 285V289H200V285H199ZM151.5 289V285H150.5V289H151.5ZM152.5 288.5H151V289.5H152.5V288.5ZM152 289V333.5H153V289H152ZM152.5 334H197.5V333H152.5V334ZM199.5 288.5H197.5V289.5H199.5V288.5ZM198 333.5V289H197V333.5H198ZM155 288.5H152.5V289.5H155V288.5ZM154.511 289.107C155.715 294.607 162.006 305.5 177.5 305.5V304.5C162.594 304.5 156.619 294.06 155.488 288.893L154.511 289.107ZM197.5 288.5H195.5V289.5H197.5V288.5ZM195.5 288.5H155V289.5H195.5V288.5ZM177.5 305.5C185.229 305.5 189.967 302.781 192.717 299.311C195.449 295.862 196.172 291.734 195.999 288.969L195.001 289.031C195.161 291.6 194.484 295.471 191.933 298.69C189.4 301.886 184.97 304.5 177.5 304.5V305.5ZM263 61.0001V76.5001H264V61.0001H263ZM263.001 76.4751C262.915 78.1909 263.142 80.7556 264.135 82.8631C264.634 83.9223 265.337 84.8894 266.314 85.5646C267.299 86.2449 268.53 86.6064 270.036 86.4988L269.964 85.5014C268.67 85.5938 267.668 85.2844 266.883 84.7419C266.09 84.1941 265.487 83.3863 265.04 82.4371C264.141 80.528 263.918 78.1426 263.999 76.5251L263.001 76.4751ZM285.046 78.7906C284.004 81.0474 282.291 87.4795 283.505 95.5743L284.494 95.4259C283.309 87.5207 284.995 81.2861 285.954 79.2096L285.046 78.7906ZM283.613 95.1835C282.299 96.7895 277.795 99.2626 270.777 94.5841L270.223 95.4161C277.605 100.338 282.701 97.8774 284.387 95.8167L283.613 95.1835ZM270.036 86.4988C270.212 86.4862 270.387 86.4692 270.56 86.448L270.439 85.4554C270.282 85.4746 270.124 85.49 269.964 85.5014L270.036 86.4988ZM270.56 86.448C273.371 86.1047 275.846 84.6611 277.787 83.0218C279.73 81.3813 281.175 79.5142 281.929 78.2573L281.071 77.7429C280.37 78.9112 278.996 80.6924 277.142 82.2578C275.287 83.8242 272.989 85.1439 270.439 85.4554L270.56 86.448ZM271 95.0001V85.9517H270V95.0001H271ZM270.5 94.5001H263.5V95.5001H270.5V94.5001ZM250.614 100.182L236.614 117.182L237.386 117.818L251.386 100.818L250.614 100.182ZM236.587 117.218C232.35 123.41 216.848 137.492 186.524 136.001L186.475 136.999C217.152 138.508 232.983 124.257 237.413 117.782L236.587 117.218ZM186 136.5V148H187V136.5H186ZM186.366 148.482C193.417 150.444 204.982 152.133 216.805 150.834C228.626 149.535 240.775 145.238 248.889 135.158L248.11 134.531C240.225 144.327 228.374 148.556 216.695 149.84C205.018 151.123 193.583 149.452 186.634 147.518L186.366 148.482ZM248.001 134.872L249.501 162.028L250.499 161.973L248.999 134.817L248.001 134.872ZM249.501 161.96L247.001 192.96L247.998 193.04L250.498 162.04L249.501 161.96ZM247 193V234H248V193H247ZM247.001 234.033L252.501 318.033L253.499 317.967L247.999 233.967L247.001 234.033ZM271.499 318.024L276.999 203.524L276 203.476L270.5 317.976L271.499 318.024ZM276.02 203.64L283.02 227.64L283.98 227.36L276.98 203.36L276.02 203.64ZM283.019 227.637L300.519 289.137L301.481 288.863L283.981 227.363L283.019 227.637ZM300.527 289.163L310.027 316.663L310.972 316.337L301.472 288.837L300.527 289.163ZM325.992 309.91L315.492 252.91L314.508 253.091L325.008 310.091L325.992 309.91ZM314.967 253.499C317.486 253.667 321.368 253.718 324.832 253.322C326.562 253.124 328.211 252.812 329.54 252.336C330.846 251.869 331.957 251.205 332.447 250.224L331.553 249.776C331.243 250.396 330.454 250.948 329.203 251.395C327.977 251.834 326.413 252.135 324.718 252.328C321.332 252.716 317.514 252.667 315.033 252.501L314.967 253.499ZM332.499 250.025L333.999 220.525L333.001 220.475L331.501 249.975L332.499 250.025ZM333.999 220.533C334.168 217.991 333.992 214.076 332.902 210.576C331.817 207.092 329.775 203.875 326.114 203.013L325.885 203.987C329.025 204.726 330.899 207.508 331.947 210.874C332.991 214.224 333.165 218.009 333.001 220.467L333.999 220.533ZM326.5 203.5V191H325.5V203.5H326.5ZM326 191.5H328V190.5H326V191.5ZM328.496 191.06C329.665 181.376 330.908 157.766 326.484 140.873L325.516 141.127C329.892 157.834 328.668 181.291 327.503 190.94L328.496 191.06ZM326.483 140.873C324.892 134.844 321.804 125.83 317.202 117.361C312.606 108.907 306.462 100.922 298.723 97.0529L298.276 97.9473C305.738 101.678 311.76 109.444 316.323 117.839C320.879 126.221 323.941 135.156 325.516 141.128L326.483 140.873ZM326 190.5H317V191.5H326V190.5ZM317 190.5H313.5V191.5H317V190.5ZM316.536 190.814L315.536 193.314L316.464 193.686L317.464 191.186L316.536 190.814ZM315.526 193.342L314.026 197.842L314.974 198.158L316.474 193.658L315.526 193.342ZM314.223 197.584C313.432 198.111 312.265 199.098 311.29 200.371C310.319 201.641 309.5 203.246 309.5 205H310.5C310.5 203.554 311.181 202.16 312.084 200.979C312.985 199.802 314.068 198.889 314.777 198.416L314.223 197.584ZM310.268 205.422L315.768 201.922L315.231 201.078L309.731 204.578L310.268 205.422ZM315.043 201.297L313.043 205.797L313.957 206.203L315.957 201.703L315.043 201.297ZM313.336 206.472C315.285 207.151 318.28 207.846 320.915 207.699C322.234 207.626 323.508 207.34 324.518 206.693C325.548 206.034 326.272 205.019 326.494 203.576L325.506 203.424C325.328 204.581 324.769 205.345 323.979 205.851C323.169 206.369 322.087 206.633 320.86 206.701C318.403 206.838 315.548 206.183 313.664 205.528L313.336 206.472ZM304.716 220.912C305.407 221.388 307.015 222.029 309.644 222.553C312.293 223.081 316.024 223.5 321 223.5V222.5C316.078 222.5 312.413 222.086 309.839 221.572C307.245 221.055 305.802 220.446 305.284 220.088L304.716 220.912ZM321 223.5C322.685 223.5 325.336 223.374 327.825 222.994C329.069 222.805 330.286 222.549 331.327 222.21C332.354 221.874 333.269 221.438 333.853 220.854L333.146 220.147C332.731 220.562 332 220.938 331.017 221.259C330.047 221.576 328.889 221.821 327.674 222.006C325.247 222.376 322.648 222.5 321 222.5V223.5ZM333.88 220.175C333.287 219.483 331.826 218.573 329.369 217.834C326.889 217.088 323.339 216.5 318.5 216.5V217.5C323.261 217.5 326.711 218.079 329.081 218.791C331.474 219.511 332.713 220.351 333.12 220.825L333.88 220.175ZM304.5 220.517L305.5 250.017L306.5 249.983L305.5 220.483L304.5 220.517ZM305.652 250.359C306.747 251.421 310.07 253.425 314.992 253.5L315.007 252.5C310.33 252.429 307.253 250.519 306.348 249.641L305.652 250.359ZM276.941 203.265L268.941 188.265L268.059 188.735L276.059 203.735L276.941 203.265ZM313.999 191.029C314.355 184.903 314.371 175.577 313.437 165.863C312.503 156.157 310.617 146.02 307.146 138.295L306.234 138.705C309.638 146.282 311.512 156.292 312.442 165.959C313.371 175.618 313.354 184.892 313.001 190.971L313.999 191.029ZM307.146 138.295C305.934 135.599 304.525 133.185 302.887 131.183L302.113 131.817C303.681 133.734 305.048 136.066 306.234 138.705L307.146 138.295ZM309.688 204.61C309.369 204.864 309.012 205.224 308.639 205.686L309.417 206.314C309.756 205.894 310.063 205.59 310.312 205.391L309.688 204.61ZM308.639 205.686C306.825 207.934 304.5 212.768 304.5 220.5H305.5C305.5 212.965 307.765 208.361 309.417 206.314L308.639 205.686ZM318.547 216.502C316.462 216.304 312.945 216.301 309.877 217.075L310.122 218.045C313.043 217.307 316.438 217.306 318.452 217.498L318.547 216.502ZM309.877 217.075C307.721 217.62 305.683 218.574 304.584 220.223L305.416 220.777C306.306 219.443 308.042 218.57 310.122 218.045L309.877 217.075ZM308.53 206.042L309.502 217.602L310.498 217.518L309.527 205.958L308.53 206.042ZM306.192 138.452C305.559 144.984 304.923 156.539 305.135 169.508L306.135 169.492C305.923 156.559 306.558 145.042 307.187 138.548L306.192 138.452ZM305.135 169.508C305.33 181.428 306.242 194.562 308.538 206.098L309.519 205.902C307.239 194.449 306.329 181.381 306.135 169.492L305.135 169.508ZM305.635 169H298V170H305.635V169ZM298.5 169.5V121.5H297.5V169.5H298.5ZM252.51 121.4C251.171 127.928 248.698 145.172 249.5 162.024L250.499 161.976C249.702 145.229 252.162 128.072 253.49 121.601L252.51 121.4ZM260.499 121.524C260.666 118.116 261.04 112.702 261.622 107.544C261.913 104.964 262.255 102.455 262.648 100.294C263.043 98.1246 263.483 96.34 263.961 95.1924L263.038 94.8078C262.516 96.0602 262.061 97.934 261.664 100.115C261.266 102.306 260.92 104.84 260.628 107.432C260.043 112.615 259.668 118.051 259.5 121.476L260.499 121.524ZM263.5 94.5001C262.39 94.5001 260.714 94.6816 258.869 95.1822L259.131 96.1473C260.896 95.6686 262.483 95.5001 263.5 95.5001V94.5001ZM258.869 95.1822C256.092 95.9353 252.867 97.4284 250.613 100.183L251.387 100.817C253.461 98.282 256.466 96.87 259.131 96.1473L258.869 95.1822ZM260 121H255V122H260V121ZM255 121H253V122H255V121ZM258.515 95.5423C257.181 100.823 254.5 113.433 254.5 121.5H255.5C255.5 113.567 258.152 101.063 259.485 95.7872L258.515 95.5423ZM298.658 97.0258C297.992 96.8036 296.944 96.515 295.605 96.2259L295.394 97.2034C296.708 97.4871 297.719 97.7668 298.342 97.9744L298.658 97.0258ZM298 121H295.5V122H298V121ZM295 96.7147V121.5H296V96.7147H295ZM295.5 121H291V122H295.5V121ZM291 121H260V122H291V121ZM295.605 96.2259C294.334 95.9515 292.796 95.6754 291.063 95.4549L290.937 96.4469C292.64 96.6636 294.15 96.9347 295.394 97.2034L295.605 96.2259ZM291.063 95.4549C288.953 95.1864 286.554 95.0001 284 95.0001V96.0001C286.506 96.0001 288.863 96.183 290.937 96.4469L291.063 95.4549ZM291.5 121.5V95.9509H290.5V121.5H291.5ZM186.853 136.147C186.492 135.785 185.858 135.258 185.101 134.818C184.351 134.382 183.427 134 182.5 134V135C183.172 135 183.915 135.285 184.599 135.682C185.275 136.076 185.841 136.548 186.146 136.854L186.853 136.147ZM182.5 134C181.839 134 181.206 133.414 180.784 132.21C180.377 131.047 180.255 129.508 180.493 128.082L179.507 127.918C179.244 129.492 179.372 131.203 179.84 132.54C180.294 133.836 181.16 135 182.5 135V134ZM180.493 128.082C180.645 127.174 180.344 126.426 179.708 126.017C179.101 125.627 178.299 125.617 177.564 125.911C176.055 126.514 174.739 128.388 175.002 131.542L175.998 131.459C175.761 128.612 176.944 127.236 177.936 126.839C178.451 126.633 178.898 126.685 179.167 126.858C179.406 127.012 179.605 127.327 179.507 127.918L180.493 128.082ZM177.002 136.545C177.087 137.479 177.427 138.831 178.189 139.962C178.962 141.109 180.191 142.049 182.005 142.031L181.995 141.031C180.594 141.045 179.651 140.342 179.018 139.403C178.374 138.446 178.072 137.267 177.998 136.455L177.002 136.545ZM182.005 142.031C182.184 142.029 182.367 142.018 182.555 141.997L182.445 141.003C182.289 141.02 182.139 141.029 181.995 141.031L182.005 142.031ZM182.555 141.997C183.455 141.897 183.979 141.838 184.233 141.808C184.297 141.8 184.345 141.795 184.378 141.79C184.394 141.788 184.409 141.786 184.421 141.785C184.427 141.784 184.435 141.783 184.444 141.781C184.448 141.78 184.456 141.779 184.466 141.777C184.471 141.776 184.479 141.774 184.489 141.771C184.496 141.769 184.519 141.763 184.547 141.752C184.563 141.746 184.602 141.727 184.626 141.713C184.666 141.685 184.771 141.577 184.821 141.489C184.862 141.318 184.782 141.014 184.687 140.906C184.63 140.865 184.535 140.817 184.5 140.806C184.448 140.791 184.404 140.789 184.399 140.788C184.384 140.787 184.372 140.787 184.367 140.787C184.347 140.787 184.329 140.788 184.327 140.788C184.314 140.789 184.3 140.79 184.287 140.791C184.261 140.793 184.223 140.797 184.177 140.801C183.807 140.837 182.779 140.945 181.947 141.034L182.053 142.028C182.887 141.94 183.909 141.832 184.273 141.797C184.319 141.792 184.352 141.789 184.372 141.788C184.384 141.787 184.387 141.786 184.386 141.786C184.385 141.787 184.383 141.787 184.379 141.787C184.377 141.787 184.369 141.787 184.358 141.787C184.352 141.787 184.341 141.787 184.327 141.786C184.322 141.785 184.279 141.783 184.226 141.768C184.192 141.757 184.096 141.71 184.039 141.668C183.945 141.561 183.864 141.257 183.906 141.086C183.956 140.998 184.06 140.89 184.101 140.862C184.124 140.848 184.164 140.829 184.179 140.823C184.207 140.812 184.229 140.806 184.236 140.804C184.246 140.801 184.253 140.8 184.258 140.799C184.266 140.797 184.272 140.796 184.274 140.796C184.279 140.795 184.281 140.794 184.279 140.795C184.275 140.795 184.266 140.796 184.252 140.798C184.223 140.802 184.179 140.807 184.116 140.815C183.866 140.844 183.345 140.903 182.445 141.003L182.555 141.997ZM175.005 131.429C174.928 131.966 174.917 132.758 175.08 133.596L176.062 133.404C175.921 132.681 175.933 132.001 175.995 131.571L175.005 131.429ZM175.08 133.596C175.311 134.777 175.905 136.126 177.243 136.929L177.757 136.071C176.753 135.469 176.262 134.43 176.062 133.404L175.08 133.596ZM175.641 133.005C174.42 132.832 172.57 132.801 171.001 133.298C170.212 133.548 169.461 133.942 168.905 134.55C168.338 135.168 168 135.98 168 137H169C169 136.22 169.251 135.653 169.642 135.225C170.043 134.788 170.618 134.469 171.303 134.252C172.679 133.816 174.365 133.835 175.501 133.995L175.641 133.005ZM168 137C168 137.007 168 137.014 168 137.021C168 137.028 168 137.035 168 137.042C168 137.049 168 137.056 168 137.063C168 137.07 168 137.077 168 137.084C168 137.091 168 137.099 168 137.106C168 137.113 168 137.12 168 137.127C168 137.134 168 137.141 168 137.148C168 137.155 168 137.162 168 137.169C168 137.176 168 137.183 168 137.19C168 137.197 168 137.204 168 137.211C168 137.218 168 137.225 168 137.232C168 137.239 168 137.246 168 137.253C168 137.26 168 137.267 168 137.274C168 137.281 168 137.288 168 137.295C168 137.302 168 137.309 168 137.316C168 137.323 168 137.33 168 137.337C168 137.344 168 137.351 168 137.359C168 137.366 168 137.373 168 137.38C168 137.387 168 137.394 168 137.401C168 137.408 168 137.415 168 137.422C168 137.429 168 137.436 168 137.443C168 137.45 168 137.457 168 137.464C168 137.471 168 137.478 168 137.485C168 137.492 168 137.499 168 137.506C168 137.513 168 137.52 168 137.527C168 137.534 168 137.541 168 137.548C168 137.555 168 137.562 168 137.569C168 137.576 168 137.583 168 137.59C168 137.597 168 137.604 168 137.611C168 137.618 168 137.625 168 137.632C168 137.639 168 137.646 168 137.653C168 137.66 168 137.667 168 137.674C168 137.681 168 137.688 168 137.695C168 137.702 168 137.709 168 137.716C168 137.723 168 137.73 168 137.737C168 137.744 168 137.751 168 137.758C168 137.765 168 137.772 168 137.779C168 137.786 168 137.793 168 137.8C168 137.807 168 137.814 168 137.821C168 137.828 168 137.835 168 137.842C168 137.849 168 137.856 168 137.863C168 137.87 168 137.877 168 137.884C168 137.891 168 137.898 168 137.905C168 137.912 168 137.919 168 137.926C168 137.933 168 137.94 168 137.947C168 137.954 168 137.961 168 137.968C168 137.975 168 137.982 168 137.989C168 137.996 168 138.003 168 138.01C168 138.017 168 138.024 168 138.031C168 138.038 168 138.045 168 138.052C168 138.059 168 138.066 168 138.073C168 138.08 168 138.087 168 138.094C168 138.101 168 138.108 168 138.115C168 138.122 168 138.128 168 138.135C168 138.142 168 138.149 168 138.156C168 138.163 168 138.17 168 138.177C168 138.184 168 138.191 168 138.198C168 138.205 168 138.212 168 138.219C168 138.226 168 138.233 168 138.24C168 138.247 168 138.254 168 138.261C168 138.268 168 138.275 168 138.282C168 138.289 168 138.296 168 138.303C168 138.309 168 138.316 168 138.323C168 138.33 168 138.337 168 138.344C168 138.351 168 138.358 168 138.365C168 138.372 168 138.379 168 138.386C168 138.393 168 138.4 168 138.407C168 138.414 168 138.421 168 138.428C168 138.434 168 138.441 168 138.448C168 138.455 168 138.462 168 138.469C168 138.476 168 138.483 168 138.49C168 138.497 168 138.504 168 138.511C168 138.518 168 138.525 168 138.532C168 138.538 168 138.545 168 138.552C168 138.559 168 138.566 168 138.573C168 138.58 168 138.587 168 138.594C168 138.601 168 138.608 168 138.615C168 138.621 168 138.628 168 138.635C168 138.642 168 138.649 168 138.656C168 138.663 168 138.67 168 138.677C168 138.684 168 138.691 168 138.697C168 138.704 168 138.711 168 138.718C168 138.725 168 138.732 168 138.739C168 138.746 168 138.753 168 138.76C168 138.766 168 138.773 168 138.78C168 138.787 168 138.794 168 138.801C168 138.808 168 138.815 168 138.822C168 138.828 168 138.835 168 138.842C168 138.849 168 138.856 168 138.863C168 138.87 168 138.877 168 138.883C168 138.89 168 138.897 168 138.904C168 138.911 168 138.918 168 138.925C168 138.932 168 138.938 168 138.945C168 138.952 168 138.959 168 138.966C168 138.973 168 138.98 168 138.987C168 138.993 168 139 168 139.007C168 139.014 168 139.021 168 139.028C168 139.034 168 139.041 168 139.048C168 139.055 168 139.062 168 139.069C168 139.076 168 139.082 168 139.089C168 139.096 168 139.103 168 139.11C168 139.117 168 139.123 168 139.13C168 139.137 168 139.144 168 139.151C168 139.158 168 139.164 168 139.171C168 139.178 168 139.185 168 139.192C168 139.199 168 139.205 168 139.212C168 139.219 168 139.226 168 139.233C168 139.239 168 139.246 168 139.253C168 139.26 168 139.267 168 139.274C168 139.28 168 139.287 168 139.294C168 139.301 168 139.308 168 139.314C168 139.321 168 139.328 168 139.335C168 139.342 168 139.348 168 139.355C168 139.362 168 139.369 168 139.376C168 139.382 168 139.389 168 139.396C168 139.403 168 139.409 168 139.416C168 139.423 168 139.43 168 139.437C168 139.443 168 139.45 168 139.457C168 139.464 168 139.47 168 139.477C168 139.484 168 139.491 168 139.498C168 139.504 168 139.511 168 139.518C168 139.525 168 139.531 168 139.538C168 139.545 168 139.552 168 139.558C168 139.565 168 139.572 168 139.579C168 139.585 168 139.592 168 139.599C168 139.606 168 139.612 168 139.619C168 139.626 168 139.633 168 139.639C168 139.646 168 139.653 168 139.659C168 139.666 168 139.673 168 139.68C168 139.686 168 139.693 168 139.7C168 139.707 168 139.713 168 139.72C168 139.727 168 139.733 168 139.74C168 139.747 168 139.754 168 139.76C168 139.767 168 139.774 168 139.78C168 139.787 168 139.794 168 139.8C168 139.807 168 139.814 168 139.821C168 139.827 168 139.834 168 139.841C168 139.847 168 139.854 168 139.861C168 139.867 168 139.874 168 139.881C168 139.887 168 139.894 168 139.901C168 139.907 168 139.914 168 139.921C168 139.927 168 139.934 168 139.941C168 139.947 168 139.954 168 139.961C168 139.967 168 139.974 168 139.981C168 139.987 168 139.994 168 140.001C168 140.007 168 140.014 168 140.021C168 140.027 168 140.034 168 140.041C168 140.047 168 140.054 168 140.06C168 140.067 168 140.074 168 140.08C168 140.087 168 140.094 168 140.1C168 140.107 168 140.114 168 140.12C168 140.127 168 140.133 168 140.14C168 140.147 168 140.153 168 140.16C168 140.166 168 140.173 168 140.18C168 140.186 168 140.193 168 140.199C168 140.206 168 140.213 168 140.219C168 140.226 168 140.232 168 140.239C168 140.246 168 140.252 168 140.259C168 140.265 168 140.272 168 140.278C168 140.285 168 140.292 168 140.298C168 140.305 168 140.311 168 140.318C168 140.324 168 140.331 168 140.338C168 140.344 168 140.351 168 140.357C168 140.364 168 140.37 168 140.377C168 140.383 168 140.39 168 140.397C168 140.403 168 140.41 168 140.416C168 140.423 168 140.429 168 140.436C168 140.442 168 140.449 168 140.455C168 140.462 168 140.468 168 140.475C168 140.481 168 140.488 168 140.494C168 140.501 168 140.508 168 140.514C168 140.521 168 140.527 168 140.534C168 140.54 168 140.547 168 140.553C168 140.56 168 140.566 168 140.573C168 140.579 168 140.585 168 140.592C168 140.598 168 140.605 168 140.611C168 140.618 168 140.624 168 140.631C168 140.637 168 140.644 168 140.65C168 140.657 168 140.663 168 140.67C168 140.676 168 140.683 168 140.689C168 140.695 168 140.702 168 140.708C168 140.715 168 140.721 168 140.728C168 140.734 168 140.741 168 140.747C168 140.753 168 140.76 168 140.766C168 140.773 168 140.779 168 140.786C168 140.792 168 140.798 168 140.805C168 140.811 168 140.818 168 140.824C168 140.831 168 140.837 168 140.843C168 140.85 168 140.856 168 140.863C168 140.869 168 140.875 168 140.882C168 140.888 168 140.894 168 140.901C168 140.907 168 140.914 168 140.92C168 140.926 168 140.933 168 140.939C168 140.946 168 140.952 168 140.958C168 140.965 168 140.971 168 140.977C168 140.984 168 140.99 168 140.996C168 141.003 168 141.009 168 141.015C168 141.022 168 141.028 168 141.034C168 141.041 168 141.047 168 141.053C168 141.06 168 141.066 168 141.072C168 141.079 168 141.085 168 141.091C168 141.098 168 141.104 168 141.11C168 141.117 168 141.123 168 141.129C168 141.136 168 141.142 168 141.148C168 141.154 168 141.161 168 141.167C168 141.173 168 141.18 168 141.186C168 141.192 168 141.198 168 141.205C168 141.211 168 141.217 168 141.224C168 141.23 168 141.236 168 141.242C168 141.249 168 141.255 168 141.261C168 141.267 168 141.274 168 141.28C168 141.286 168 141.292 168 141.299C168 141.305 168 141.311 168 141.317C168 141.324 168 141.33 168 141.336C168 141.342 168 141.349 168 141.355C168 141.361 168 141.367 168 141.373C168 141.38 168 141.386 168 141.392C168 141.398 168 141.404 168 141.411C168 141.417 168 141.423 168 141.429C168 141.435 168 141.442 168 141.448C168 141.454 168 141.46 168 141.466C168 141.472 168 141.479 168 141.485C168 141.491 168 141.497 168 141.503C168 141.509 168 141.516 168 141.522C168 141.528 168 141.534 168 141.54C168 141.546 168 141.552 168 141.559C168 141.565 168 141.571 168 141.577C168 141.583 168 141.589 168 141.595C168 141.601 168 141.608 168 141.614C168 141.62 168 141.626 168 141.632C168 141.638 168 141.644 168 141.65C168 141.656 168 141.663 168 141.669C168 141.675 168 141.681 168 141.687C168 141.693 168 141.699 168 141.705C168 141.711 168 141.717 168 141.723C168 141.729 168 141.735 168 141.742C168 141.748 168 141.754 168 141.76C168 141.766 168 141.772 168 141.778C168 141.784 168 141.79 168 141.796C168 141.802 168 141.808 168 141.814C168 141.82 168 141.826 168 141.832C168 141.838 168 141.844 168 141.85C168 141.856 168 141.862 168 141.868C168 141.874 168 141.88 168 141.886C168 141.892 168 141.898 168 141.904C168 141.91 168 141.916 168 141.922C168 141.928 168 141.934 168 141.94C168 141.946 168 141.952 168 141.958C168 141.964 168 141.97 168 141.976C168 141.982 168 141.988 168 141.994C168 142 168 142.005 168 142.011C168 142.017 168 142.023 168 142.029C168 142.035 168 142.041 168 142.047C168 142.053 168 142.059 168 142.065C168 142.071 168 142.077 168 142.082C168 142.088 168 142.094 168 142.1C168 142.106 168 142.112 168 142.118C168 142.124 168 142.13 168 142.135C168 142.141 168 142.147 168 142.153C168 142.159 168 142.165 168 142.171C168 142.176 168 142.182 168 142.188C168 142.194 168 142.2 168 142.206C168 142.212 168 142.217 168 142.223C168 142.229 168 142.235 168 142.241C168 142.246 168 142.252 168 142.258C168 142.264 168 142.27 168 142.276C168 142.281 168 142.287 168 142.293C168 142.299 168 142.305 168 142.31C168 142.316 168 142.322 168 142.328C168 142.333 168 142.339 168 142.345C168 142.351 168 142.357 168 142.362C168 142.368 168 142.374 168 142.38C168 142.385 168 142.391 168 142.397C168 142.402 168 142.408 168 142.414C168 142.42 168 142.425 168 142.431C168 142.437 168 142.443 168 142.448C168 142.454 168 142.46 168 142.465C168 142.471 168 142.477 168 142.483C168 142.488 168 142.494 168 142.5C168 142.505 168 142.511 168 142.517C168 142.522 168 142.528 168 142.534C168 142.539 168 142.545 168 142.551C168 142.556 168 142.562 168 142.568C168 142.573 168 142.579 168 142.584C168 142.59 168 142.596 168 142.601C168 142.607 168 142.613 168 142.618C168 142.624 168 142.629 168 142.635C168 142.641 168 142.646 168 142.652C168 142.658 168 142.663 168 142.669C168 142.674 168 142.68 168 142.685C168 142.691 168 142.697 168 142.702C168 142.708 168 142.713 168 142.719C168 142.724 168 142.73 168 142.736C168 142.741 168 142.747 168 142.752C168 142.758 168 142.763 168 142.769C168 142.774 168 142.78 168 142.785C168 142.791 168 142.796 168 142.802C168 142.807 168 142.813 168 142.818C168 142.824 168 142.829 168 142.835C168 142.84 168 142.846 168 142.851C168 142.857 168 142.862 168 142.868C168 142.873 168 142.879 168 142.884C168 142.89 168 142.895 168 142.901C168 142.906 168 142.911 168 142.917C168 142.922 168 142.928 168 142.933C168 142.939 168 142.944 168 142.949C168 142.955 168 142.96 168 142.966C168 142.971 168 142.976 168 142.982C168 142.987 168 142.993 168 142.998C168 143.003 168 143.009 168 143.014C168 143.02 168 143.025 168 143.03C168 143.036 168 143.041 168 143.046C168 143.052 168 143.057 168 143.062C168 143.068 168 143.073 168 143.078C168 143.084 168 143.089 168 143.094C168 143.1 168 143.105 168 143.11C168 143.116 168 143.121 168 143.126C168 143.132 168 143.137 168 143.142C168 143.148 168 143.153 168 143.158C168 143.163 168 143.169 168 143.174C168 143.179 168 143.184 168 143.19C168 143.195 168 143.2 168 143.205C168 143.211 168 143.216 168 143.221C168 143.226 168 143.232 168 143.237C168 143.242 168 143.247 168 143.253C168 143.258 168 143.263 168 143.268C168 143.273 168 143.279 168 143.284C168 143.289 168 143.294 168 143.299C168 143.305 168 143.31 168 143.315C168 143.32 168 143.325 168 143.33C168 143.336 168 143.341 168 143.346C168 143.351 168 143.356 168 143.361C168 143.366 168 143.372 168 143.377C168 143.382 168 143.387 168 143.392C168 143.397 168 143.402 168 143.407C168 143.413 168 143.418 168 143.423C168 143.428 168 143.433 168 143.438C168 143.443 168 143.448 168 143.453C168 143.458 168 143.463 168 143.468C168 143.474 168 143.479 168 143.484C168 143.489 168 143.494 168 143.499C168 143.504 168 143.509 168 143.514C168 143.519 168 143.524 168 143.529C168 143.534 168 143.539 168 143.544C168 143.549 168 143.554 168 143.559C168 143.564 168 143.569 168 143.574C168 143.579 168 143.584 168 143.589C168 143.594 168 143.599 168 143.604C168 143.609 168 143.614 168 143.619C168 143.624 168 143.628 168 143.633C168 143.638 168 143.643 168 143.648C168 143.653 168 143.658 168 143.663C168 143.668 168 143.673 168 143.678C168 143.683 168 143.687 168 143.692C168 143.697 168 143.702 168 143.707C168 143.712 168 143.717 168 143.722C168 143.726 168 143.731 168 143.736C168 143.741 168 143.746 168 143.751C168 143.756 168 143.76 168 143.765C168 143.77 168 143.775 168 143.78C168 143.784 168 143.789 168 143.794C168 143.799 168 143.804 168 143.808C168 143.813 168 143.818 168 143.823C168 143.828 168 143.832 168 143.837C168 143.842 168 143.847 168 143.851C168 143.856 168 143.861 168 143.866C168 143.87 168 143.875 168 143.88C168 143.885 168 143.889 168 143.894C168 143.899 168 143.903 168 143.908C168 143.913 168 143.918 168 143.922C168 143.927 168 143.932 168 143.936C168 143.941 168 143.946 168 143.95C168 143.955 168 143.96 168 143.964C168 143.969 168 143.974 168 143.978C168 143.983 168 143.988 168 143.992C168 143.997 168 144.001 168 144.006C168 144.011 168 144.015 168 144.02C168 144.025 168 144.029 168 144.034C168 144.038 168 144.043 168 144.047C168 144.052 168 144.057 168 144.061C168 144.066 168 144.07 168 144.075C168 144.079 168 144.084 168 144.089C168 144.093 168 144.098 168 144.102C168 144.107 168 144.111 168 144.116C168 144.12 168 144.125 168 144.129C168 144.134 168 144.138 168 144.143C168 144.147 168 144.152 168 144.156C168 144.161 168 144.165 168 144.17C168 144.174 168 144.179 168 144.183C168 144.187 168 144.192 168 144.196C168 144.201 168 144.205 168 144.21C168 144.214 168 144.218 168 144.223C168 144.227 168 144.232 168 144.236C168 144.24 168 144.245 168 144.249C168 144.254 168 144.258 168 144.262C168 144.267 168 144.271 168 144.276C168 144.28 168 144.284 168 144.289C168 144.293 168 144.297 168 144.302C168 144.306 168 144.31 168 144.315C168 144.319 168 144.323 168 144.328C168 144.332 168 144.336 168 144.34C168 144.345 168 144.349 168 144.353C168 144.358 168 144.362 168 144.366C168 144.37 168 144.375 168 144.379C168 144.383 168 144.387 168 144.392C168 144.396 168 144.4 168 144.404C168 144.409 168 144.413 168 144.417C168 144.421 168 144.425 168 144.43C168 144.434 168 144.438 168 144.442C168 144.446 168 144.451 168 144.455C168 144.459 168 144.463 168 144.467C168 144.471 168 144.476 168 144.48C168 144.484 168 144.488 168 144.492C168 144.496 168 144.5 168 144.504C168 144.509 168 144.513 168 144.517C168 144.521 168 144.525 168 144.529C168 144.533 168 144.537 168 144.541C168 144.545 168 144.549 168 144.554C168 144.558 168 144.562 168 144.566C168 144.57 168 144.574 168 144.578C168 144.582 168 144.586 168 144.59C168 144.594 168 144.598 168 144.602C168 144.606 168 144.61 168 144.614C168 144.618 168 144.622 168 144.626C168 144.63 168 144.634 168 144.638C168 144.642 168 144.646 168 144.65C168 144.654 168 144.658 168 144.661C168 144.665 168 144.669 168 144.673C168 144.677 168 144.681 168 144.685C168 144.689 168 144.693 168 144.697C168 144.701 168 144.704 168 144.708C168 144.712 168 144.716 168 144.72C168 144.724 168 144.728 168 144.731C168 144.735 168 144.739 168 144.743C168 144.747 168 144.751 168 144.754C168 144.758 168 144.762 168 144.766C168 144.77 168 144.774 168 144.777C168 144.781 168 144.785 168 144.789C168 144.792 168 144.796 168 144.8C168 144.804 168 144.807 168 144.811C168 144.815 168 144.819 168 144.822C168 144.826 168 144.83 168 144.834C168 144.837 168 144.841 168 144.845C168 144.848 168 144.852 168 144.856C168 144.86 168 144.863 168 144.867C168 144.871 168 144.874 168 144.878C168 144.882 168 144.885 168 144.889C168 144.892 168 144.896 168 144.9C168 144.903 168 144.907 168 144.911C168 144.914 168 144.918 168 144.921C168 144.925 168 144.929 168 144.932C168 144.936 168 144.939 168 144.943C168 144.946 168 144.95 168 144.954C168 144.957 168 144.961 168 144.964C168 144.968 168 144.971 168 144.975C168 144.978 168 144.982 168 144.985C168 144.989 168 144.992 168 144.996C168 144.999 168 145.003 168 145.006C168 145.01 168 145.013 168 145.017C168 145.02 168 145.024 168 145.027C168 145.03 168 145.034 168 145.037C168 145.041 168 145.044 168 145.048C168 145.051 168 145.054 168 145.058C168 145.061 168 145.065 168 145.068C168 145.071 168 145.075 168 145.078C168 145.082 168 145.085 168 145.088C168 145.092 168 145.095 168 145.098C168 145.102 168 145.105 168 145.108C168 145.112 168 145.115 168 145.118C168 145.122 168 145.125 168 145.128C168 145.131 168 145.135 168 145.138C168 145.141 168 145.144 168 145.148C168 145.151 168 145.154 168 145.158C168 145.161 168 145.164 168 145.167C168 145.17 168 145.174 168 145.177C168 145.18 168 145.183 168 145.186C168 145.19 168 145.193 168 145.196C168 145.199 168 145.202 168 145.206C168 145.209 168 145.212 168 145.215C168 145.218 168 145.221 168 145.224C168 145.228 168 145.231 168 145.234C168 145.237 168 145.24 168 145.243C168 145.246 168 145.249 168 145.252C168 145.256 168 145.259 168 145.262C168 145.265 168 145.268 168 145.271C168 145.274 168 145.277 168 145.28C168 145.283 168 145.286 168 145.289C168 145.292 168 145.295 168 145.298C168 145.301 168 145.304 168 145.307C168 145.31 168 145.313 168 145.316C168 145.319 168 145.322 168 145.325C168 145.328 168 145.331 168 145.334C168 145.337 168 145.34 168 145.343C168 145.345 168 145.348 168 145.351C168 145.354 168 145.357 168 145.36C168 145.363 168 145.366 168 145.369C168 145.371 168 145.374 168 145.377C168 145.38 168 145.383 168 145.386C168 145.389 168 145.391 168 145.394C168 145.397 168 145.4 168 145.403C168 145.406 168 145.408 168 145.411C168 145.414 168 145.417 168 145.419C168 145.422 168 145.425 168 145.428C168 145.43 168 145.433 168 145.436C168 145.439 168 145.441 168 145.444C168 145.447 168 145.45 168 145.452C168 145.455 168 145.458 168 145.46C168 145.463 168 145.466 168 145.468C168 145.471 168 145.474 168 145.476C168 145.479 168 145.482 168 145.484C168 145.487 168 145.49 168 145.492C168 145.495 168 145.497 168 145.5H169C169 145.497 169 145.495 169 145.492C169 145.49 169 145.487 169 145.484C169 145.482 169 145.479 169 145.476C169 145.474 169 145.471 169 145.468C169 145.466 169 145.463 169 145.46C169 145.458 169 145.455 169 145.452C169 145.45 169 145.447 169 145.444C169 145.441 169 145.439 169 145.436C169 145.433 169 145.43 169 145.428C169 145.425 169 145.422 169 145.419C169 145.417 169 145.414 169 145.411C169 145.408 169 145.406 169 145.403C169 145.4 169 145.397 169 145.394C169 145.391 169 145.389 169 145.386C169 145.383 169 145.38 169 145.377C169 145.374 169 145.371 169 145.369C169 145.366 169 145.363 169 145.36C169 145.357 169 145.354 169 145.351C169 145.348 169 145.345 169 145.343C169 145.34 169 145.337 169 145.334C169 145.331 169 145.328 169 145.325C169 145.322 169 145.319 169 145.316C169 145.313 169 145.31 169 145.307C169 145.304 169 145.301 169 145.298C169 145.295 169 145.292 169 145.289C169 145.286 169 145.283 169 145.28C169 145.277 169 145.274 169 145.271C169 145.268 169 145.265 169 145.262C169 145.259 169 145.256 169 145.252C169 145.249 169 145.246 169 145.243C169 145.24 169 145.237 169 145.234C169 145.231 169 145.228 169 145.224C169 145.221 169 145.218 169 145.215C169 145.212 169 145.209 169 145.206C169 145.202 169 145.199 169 145.196C169 145.193 169 145.19 169 145.186C169 145.183 169 145.18 169 145.177C169 145.174 169 145.17 169 145.167C169 145.164 169 145.161 169 145.158C169 145.154 169 145.151 169 145.148C169 145.144 169 145.141 169 145.138C169 145.135 169 145.131 169 145.128C169 145.125 169 145.122 169 145.118C169 145.115 169 145.112 169 145.108C169 145.105 169 145.102 169 145.098C169 145.095 169 145.092 169 145.088C169 145.085 169 145.082 169 145.078C169 145.075 169 145.071 169 145.068C169 145.065 169 145.061 169 145.058C169 145.054 169 145.051 169 145.048C169 145.044 169 145.041 169 145.037C169 145.034 169 145.03 169 145.027C169 145.024 169 145.02 169 145.017C169 145.013 169 145.01 169 145.006C169 145.003 169 144.999 169 144.996C169 144.992 169 144.989 169 144.985C169 144.982 169 144.978 169 144.975C169 144.971 169 144.968 169 144.964C169 144.961 169 144.957 169 144.954C169 144.95 169 144.946 169 144.943C169 144.939 169 144.936 169 144.932C169 144.929 169 144.925 169 144.921C169 144.918 169 144.914 169 144.911C169 144.907 169 144.903 169 144.9C169 144.896 169 144.892 169 144.889C169 144.885 169 144.882 169 144.878C169 144.874 169 144.871 169 144.867C169 144.863 169 144.86 169 144.856C169 144.852 169 144.848 169 144.845C169 144.841 169 144.837 169 144.834C169 144.83 169 144.826 169 144.822C169 144.819 169 144.815 169 144.811C169 144.807 169 144.804 169 144.8C169 144.796 169 144.792 169 144.789C169 144.785 169 144.781 169 144.777C169 144.774 169 144.77 169 144.766C169 144.762 169 144.758 169 144.754C169 144.751 169 144.747 169 144.743C169 144.739 169 144.735 169 144.731C169 144.728 169 144.724 169 144.72C169 144.716 169 144.712 169 144.708C169 144.704 169 144.701 169 144.697C169 144.693 169 144.689 169 144.685C169 144.681 169 144.677 169 144.673C169 144.669 169 144.665 169 144.661C169 144.658 169 144.654 169 144.65C169 144.646 169 144.642 169 144.638C169 144.634 169 144.63 169 144.626C169 144.622 169 144.618 169 144.614C169 144.61 169 144.606 169 144.602C169 144.598 169 144.594 169 144.59C169 144.586 169 144.582 169 144.578C169 144.574 169 144.57 169 144.566C169 144.562 169 144.558 169 144.554C169 144.549 169 144.545 169 144.541C169 144.537 169 144.533 169 144.529C169 144.525 169 144.521 169 144.517C169 144.513 169 144.509 169 144.504C169 144.5 169 144.496 169 144.492C169 144.488 169 144.484 169 144.48C169 144.476 169 144.471 169 144.467C169 144.463 169 144.459 169 144.455C169 144.451 169 144.446 169 144.442C169 144.438 169 144.434 169 144.43C169 144.425 169 144.421 169 144.417C169 144.413 169 144.409 169 144.404C169 144.4 169 144.396 169 144.392C169 144.387 169 144.383 169 144.379C169 144.375 169 144.37 169 144.366C169 144.362 169 144.358 169 144.353C169 144.349 169 144.345 169 144.34C169 144.336 169 144.332 169 144.328C169 144.323 169 144.319 169 144.315C169 144.31 169 144.306 169 144.302C169 144.297 169 144.293 169 144.289C169 144.284 169 144.28 169 144.276C169 144.271 169 144.267 169 144.262C169 144.258 169 144.254 169 144.249C169 144.245 169 144.24 169 144.236C169 144.232 169 144.227 169 144.223C169 144.218 169 144.214 169 144.21C169 144.205 169 144.201 169 144.196C169 144.192 169 144.187 169 144.183C169 144.179 169 144.174 169 144.17C169 144.165 169 144.161 169 144.156C169 144.152 169 144.147 169 144.143C169 144.138 169 144.134 169 144.129C169 144.125 169 144.12 169 144.116C169 144.111 169 144.107 169 144.102C169 144.098 169 144.093 169 144.089C169 144.084 169 144.079 169 144.075C169 144.07 169 144.066 169 144.061C169 144.057 169 144.052 169 144.047C169 144.043 169 144.038 169 144.034C169 144.029 169 144.025 169 144.02C169 144.015 169 144.011 169 144.006C169 144.001 169 143.997 169 143.992C169 143.988 169 143.983 169 143.978C169 143.974 169 143.969 169 143.964C169 143.96 169 143.955 169 143.95C169 143.946 169 143.941 169 143.936C169 143.932 169 143.927 169 143.922C169 143.918 169 143.913 169 143.908C169 143.903 169 143.899 169 143.894C169 143.889 169 143.885 169 143.88C169 143.875 169 143.87 169 143.866C169 143.861 169 143.856 169 143.851C169 143.847 169 143.842 169 143.837C169 143.832 169 143.828 169 143.823C169 143.818 169 143.813 169 143.808C169 143.804 169 143.799 169 143.794C169 143.789 169 143.784 169 143.78C169 143.775 169 143.77 169 143.765C169 143.76 169 143.756 169 143.751C169 143.746 169 143.741 169 143.736C169 143.731 169 143.726 169 143.722C169 143.717 169 143.712 169 143.707C169 143.702 169 143.697 169 143.692C169 143.687 169 143.683 169 143.678C169 143.673 169 143.668 169 143.663C169 143.658 169 143.653 169 143.648C169 143.643 169 143.638 169 143.633C169 143.628 169 143.624 169 143.619C169 143.614 169 143.609 169 143.604C169 143.599 169 143.594 169 143.589C169 143.584 169 143.579 169 143.574C169 143.569 169 143.564 169 143.559C169 143.554 169 143.549 169 143.544C169 143.539 169 143.534 169 143.529C169 143.524 169 143.519 169 143.514C169 143.509 169 143.504 169 143.499C169 143.494 169 143.489 169 143.484C169 143.479 169 143.474 169 143.468C169 143.463 169 143.458 169 143.453C169 143.448 169 143.443 169 143.438C169 143.433 169 143.428 169 143.423C169 143.418 169 143.413 169 143.407C169 143.402 169 143.397 169 143.392C169 143.387 169 143.382 169 143.377C169 143.372 169 143.366 169 143.361C169 143.356 169 143.351 169 143.346C169 143.341 169 143.336 169 143.33C169 143.325 169 143.32 169 143.315C169 143.31 169 143.305 169 143.299C169 143.294 169 143.289 169 143.284C169 143.279 169 143.273 169 143.268C169 143.263 169 143.258 169 143.253C169 143.247 169 143.242 169 143.237C169 143.232 169 143.226 169 143.221C169 143.216 169 143.211 169 143.205C169 143.2 169 143.195 169 143.19C169 143.184 169 143.179 169 143.174C169 143.169 169 143.163 169 143.158C169 143.153 169 143.148 169 143.142C169 143.137 169 143.132 169 143.126C169 143.121 169 143.116 169 143.11C169 143.105 169 143.1 169 143.094C169 143.089 169 143.084 169 143.078C169 143.073 169 143.068 169 143.062C169 143.057 169 143.052 169 143.046C169 143.041 169 143.036 169 143.03C169 143.025 169 143.02 169 143.014C169 143.009 169 143.003 169 142.998C169 142.993 169 142.987 169 142.982C169 142.976 169 142.971 169 142.966C169 142.96 169 142.955 169 142.949C169 142.944 169 142.939 169 142.933C169 142.928 169 142.922 169 142.917C169 142.911 169 142.906 169 142.901C169 142.895 169 142.89 169 142.884C169 142.879 169 142.873 169 142.868C169 142.862 169 142.857 169 142.851C169 142.846 169 142.84 169 142.835C169 142.829 169 142.824 169 142.818C169 142.813 169 142.807 169 142.802C169 142.796 169 142.791 169 142.785C169 142.78 169 142.774 169 142.769C169 142.763 169 142.758 169 142.752C169 142.747 169 142.741 169 142.736C169 142.73 169 142.724 169 142.719C169 142.713 169 142.708 169 142.702C169 142.697 169 142.691 169 142.685C169 142.68 169 142.674 169 142.669C169 142.663 169 142.658 169 142.652C169 142.646 169 142.641 169 142.635C169 142.629 169 142.624 169 142.618C169 142.613 169 142.607 169 142.601C169 142.596 169 142.59 169 142.584C169 142.579 169 142.573 169 142.568C169 142.562 169 142.556 169 142.551C169 142.545 169 142.539 169 142.534C169 142.528 169 142.522 169 142.517C169 142.511 169 142.505 169 142.5C169 142.494 169 142.488 169 142.483C169 142.477 169 142.471 169 142.465C169 142.46 169 142.454 169 142.448C169 142.443 169 142.437 169 142.431C169 142.425 169 142.42 169 142.414C169 142.408 169 142.402 169 142.397C169 142.391 169 142.385 169 142.38C169 142.374 169 142.368 169 142.362C169 142.357 169 142.351 169 142.345C169 142.339 169 142.333 169 142.328C169 142.322 169 142.316 169 142.31C169 142.305 169 142.299 169 142.293C169 142.287 169 142.281 169 142.276C169 142.27 169 142.264 169 142.258C169 142.252 169 142.246 169 142.241C169 142.235 169 142.229 169 142.223C169 142.217 169 142.212 169 142.206C169 142.2 169 142.194 169 142.188C169 142.182 169 142.176 169 142.171C169 142.165 169 142.159 169 142.153C169 142.147 169 142.141 169 142.135C169 142.13 169 142.124 169 142.118C169 142.112 169 142.106 169 142.1C169 142.094 169 142.088 169 142.082C169 142.077 169 142.071 169 142.065C169 142.059 169 142.053 169 142.047C169 142.041 169 142.035 169 142.029C169 142.023 169 142.017 169 142.011C169 142.005 169 142 169 141.994C169 141.988 169 141.982 169 141.976C169 141.97 169 141.964 169 141.958C169 141.952 169 141.946 169 141.94C169 141.934 169 141.928 169 141.922C169 141.916 169 141.91 169 141.904C169 141.898 169 141.892 169 141.886C169 141.88 169 141.874 169 141.868C169 141.862 169 141.856 169 141.85C169 141.844 169 141.838 169 141.832C169 141.826 169 141.82 169 141.814C169 141.808 169 141.802 169 141.796C169 141.79 169 141.784 169 141.778C169 141.772 169 141.766 169 141.76C169 141.754 169 141.748 169 141.742C169 141.735 169 141.729 169 141.723C169 141.717 169 141.711 169 141.705C169 141.699 169 141.693 169 141.687C169 141.681 169 141.675 169 141.669C169 141.663 169 141.656 169 141.65C169 141.644 169 141.638 169 141.632C169 141.626 169 141.62 169 141.614C169 141.608 169 141.601 169 141.595C169 141.589 169 141.583 169 141.577C169 141.571 169 141.565 169 141.559C169 141.552 169 141.546 169 141.54C169 141.534 169 141.528 169 141.522C169 141.516 169 141.509 169 141.503C169 141.497 169 141.491 169 141.485C169 141.479 169 141.472 169 141.466C169 141.46 169 141.454 169 141.448C169 141.442 169 141.435 169 141.429C169 141.423 169 141.417 169 141.411C169 141.404 169 141.398 169 141.392C169 141.386 169 141.38 169 141.373C169 141.367 169 141.361 169 141.355C169 141.349 169 141.342 169 141.336C169 141.33 169 141.324 169 141.317C169 141.311 169 141.305 169 141.299C169 141.292 169 141.286 169 141.28C169 141.274 169 141.267 169 141.261C169 141.255 169 141.249 169 141.242C169 141.236 169 141.23 169 141.224C169 141.217 169 141.211 169 141.205C169 141.198 169 141.192 169 141.186C169 141.18 169 141.173 169 141.167C169 141.161 169 141.154 169 141.148C169 141.142 169 141.136 169 141.129C169 141.123 169 141.117 169 141.11C169 141.104 169 141.098 169 141.091C169 141.085 169 141.079 169 141.072C169 141.066 169 141.06 169 141.053C169 141.047 169 141.041 169 141.034C169 141.028 169 141.022 169 141.015C169 141.009 169 141.003 169 140.996C169 140.99 169 140.984 169 140.977C169 140.971 169 140.965 169 140.958C169 140.952 169 140.946 169 140.939C169 140.933 169 140.926 169 140.92C169 140.914 169 140.907 169 140.901C169 140.894 169 140.888 169 140.882C169 140.875 169 140.869 169 140.863C169 140.856 169 140.85 169 140.843C169 140.837 169 140.831 169 140.824C169 140.818 169 140.811 169 140.805C169 140.798 169 140.792 169 140.786C169 140.779 169 140.773 169 140.766C169 140.76 169 140.753 169 140.747C169 140.741 169 140.734 169 140.728C169 140.721 169 140.715 169 140.708C169 140.702 169 140.695 169 140.689C169 140.683 169 140.676 169 140.67C169 140.663 169 140.657 169 140.65C169 140.644 169 140.637 169 140.631C169 140.624 169 140.618 169 140.611C169 140.605 169 140.598 169 140.592C169 140.585 169 140.579 169 140.573C169 140.566 169 140.56 169 140.553C169 140.547 169 140.54 169 140.534C169 140.527 169 140.521 169 140.514C169 140.508 169 140.501 169 140.494C169 140.488 169 140.481 169 140.475C169 140.468 169 140.462 169 140.455C169 140.449 169 140.442 169 140.436C169 140.429 169 140.423 169 140.416C169 140.41 169 140.403 169 140.397C169 140.39 169 140.383 169 140.377C169 140.37 169 140.364 169 140.357C169 140.351 169 140.344 169 140.338C169 140.331 169 140.324 169 140.318C169 140.311 169 140.305 169 140.298C169 140.292 169 140.285 169 140.278C169 140.272 169 140.265 169 140.259C169 140.252 169 140.246 169 140.239C169 140.232 169 140.226 169 140.219C169 140.213 169 140.206 169 140.199C169 140.193 169 140.186 169 140.18C169 140.173 169 140.166 169 140.16C169 140.153 169 140.147 169 140.14C169 140.133 169 140.127 169 140.12C169 140.114 169 140.107 169 140.1C169 140.094 169 140.087 169 140.08C169 140.074 169 140.067 169 140.06C169 140.054 169 140.047 169 140.041C169 140.034 169 140.027 169 140.021C169 140.014 169 140.007 169 140.001C169 139.994 169 139.987 169 139.981C169 139.974 169 139.967 169 139.961C169 139.954 169 139.947 169 139.941C169 139.934 169 139.927 169 139.921C169 139.914 169 139.907 169 139.901C169 139.894 169 139.887 169 139.881C169 139.874 169 139.867 169 139.861C169 139.854 169 139.847 169 139.841C169 139.834 169 139.827 169 139.821C169 139.814 169 139.807 169 139.8C169 139.794 169 139.787 169 139.78C169 139.774 169 139.767 169 139.76C169 139.754 169 139.747 169 139.74C169 139.733 169 139.727 169 139.72C169 139.713 169 139.707 169 139.7C169 139.693 169 139.686 169 139.68C169 139.673 169 139.666 169 139.659C169 139.653 169 139.646 169 139.639C169 139.633 169 139.626 169 139.619C169 139.612 169 139.606 169 139.599C169 139.592 169 139.585 169 139.579C169 139.572 169 139.565 169 139.558C169 139.552 169 139.545 169 139.538C169 139.531 169 139.525 169 139.518C169 139.511 169 139.504 169 139.498C169 139.491 169 139.484 169 139.477C169 139.47 169 139.464 169 139.457C169 139.45 169 139.443 169 139.437C169 139.43 169 139.423 169 139.416C169 139.409 169 139.403 169 139.396C169 139.389 169 139.382 169 139.376C169 139.369 169 139.362 169 139.355C169 139.348 169 139.342 169 139.335C169 139.328 169 139.321 169 139.314C169 139.308 169 139.301 169 139.294C169 139.287 169 139.28 169 139.274C169 139.267 169 139.26 169 139.253C169 139.246 169 139.239 169 139.233C169 139.226 169 139.219 169 139.212C169 139.205 169 139.199 169 139.192C169 139.185 169 139.178 169 139.171C169 139.164 169 139.158 169 139.151C169 139.144 169 139.137 169 139.13C169 139.123 169 139.117 169 139.11C169 139.103 169 139.096 169 139.089C169 139.082 169 139.076 169 139.069C169 139.062 169 139.055 169 139.048C169 139.041 169 139.034 169 139.028C169 139.021 169 139.014 169 139.007C169 139 169 138.993 169 138.987C169 138.98 169 138.973 169 138.966C169 138.959 169 138.952 169 138.945C169 138.938 169 138.932 169 138.925C169 138.918 169 138.911 169 138.904C169 138.897 169 138.89 169 138.883C169 138.877 169 138.87 169 138.863C169 138.856 169 138.849 169 138.842C169 138.835 169 138.828 169 138.822C169 138.815 169 138.808 169 138.801C169 138.794 169 138.787 169 138.78C169 138.773 169 138.766 169 138.76C169 138.753 169 138.746 169 138.739C169 138.732 169 138.725 169 138.718C169 138.711 169 138.704 169 138.697C169 138.691 169 138.684 169 138.677C169 138.67 169 138.663 169 138.656C169 138.649 169 138.642 169 138.635C169 138.628 169 138.621 169 138.615C169 138.608 169 138.601 169 138.594C169 138.587 169 138.58 169 138.573C169 138.566 169 138.559 169 138.552C169 138.545 169 138.538 169 138.532C169 138.525 169 138.518 169 138.511C169 138.504 169 138.497 169 138.49C169 138.483 169 138.476 169 138.469C169 138.462 169 138.455 169 138.448C169 138.441 169 138.434 169 138.428C169 138.421 169 138.414 169 138.407C169 138.4 169 138.393 169 138.386C169 138.379 169 138.372 169 138.365C169 138.358 169 138.351 169 138.344C169 138.337 169 138.33 169 138.323C169 138.316 169 138.309 169 138.303C169 138.296 169 138.289 169 138.282C169 138.275 169 138.268 169 138.261C169 138.254 169 138.247 169 138.24C169 138.233 169 138.226 169 138.219C169 138.212 169 138.205 169 138.198C169 138.191 169 138.184 169 138.177C169 138.17 169 138.163 169 138.156C169 138.149 169 138.142 169 138.135C169 138.128 169 138.122 169 138.115C169 138.108 169 138.101 169 138.094C169 138.087 169 138.08 169 138.073C169 138.066 169 138.059 169 138.052C169 138.045 169 138.038 169 138.031C169 138.024 169 138.017 169 138.01C169 138.003 169 137.996 169 137.989C169 137.982 169 137.975 169 137.968C169 137.961 169 137.954 169 137.947C169 137.94 169 137.933 169 137.926C169 137.919 169 137.912 169 137.905C169 137.898 169 137.891 169 137.884C169 137.877 169 137.87 169 137.863C169 137.856 169 137.849 169 137.842C169 137.835 169 137.828 169 137.821C169 137.814 169 137.807 169 137.8C169 137.793 169 137.786 169 137.779C169 137.772 169 137.765 169 137.758C169 137.751 169 137.744 169 137.737C169 137.73 169 137.723 169 137.716C169 137.709 169 137.702 169 137.695C169 137.688 169 137.681 169 137.674C169 137.667 169 137.66 169 137.653C169 137.646 169 137.639 169 137.632C169 137.625 169 137.618 169 137.611C169 137.604 169 137.597 169 137.59C169 137.583 169 137.576 169 137.569C169 137.562 169 137.555 169 137.548C169 137.541 169 137.534 169 137.527C169 137.52 169 137.513 169 137.506C169 137.499 169 137.492 169 137.485C169 137.478 169 137.471 169 137.464C169 137.457 169 137.45 169 137.443C169 137.436 169 137.429 169 137.422C169 137.415 169 137.408 169 137.401C169 137.394 169 137.387 169 137.38C169 137.373 169 137.366 169 137.359C169 137.351 169 137.344 169 137.337C169 137.33 169 137.323 169 137.316C169 137.309 169 137.302 169 137.295C169 137.288 169 137.281 169 137.274C169 137.267 169 137.26 169 137.253C169 137.246 169 137.239 169 137.232C169 137.225 169 137.218 169 137.211C169 137.204 169 137.197 169 137.19C169 137.183 169 137.176 169 137.169C169 137.162 169 137.155 169 137.148C169 137.141 169 137.134 169 137.127C169 137.12 169 137.113 169 137.106C169 137.099 169 137.091 169 137.084C169 137.077 169 137.07 169 137.063C169 137.056 169 137.049 169 137.042C169 137.035 169 137.028 169 137.021C169 137.014 169 137.007 169 137H168ZM168 145.5C168 146.13 168.402 146.897 169.333 147.485C170.265 148.074 171.744 148.5 174 148.5V147.5C171.856 147.5 170.585 147.093 169.867 146.64C169.148 146.186 169 145.704 169 145.5H168ZM174.082 148.493C174.604 148.406 175.393 148.223 176.063 147.951C176.396 147.815 176.729 147.646 176.987 147.437C177.237 147.234 177.5 146.922 177.5 146.5H176.5C176.5 146.478 176.513 146.533 176.356 146.661C176.208 146.781 175.979 146.906 175.687 147.024C175.107 147.26 174.395 147.427 173.918 147.507L174.082 148.493ZM176.776 146.947C177.807 147.462 179.52 148.153 181.34 148.563C183.14 148.968 185.146 149.124 186.697 148.46L186.303 147.541C185.054 148.076 183.31 147.982 181.56 147.587C179.83 147.198 178.193 146.538 177.223 146.053L176.776 146.947ZM177.5 146.5V140H176.5V146.5H177.5ZM177.5 140V138H176.5V140H177.5ZM322.699 311.759L325.699 310.459L325.301 309.541L322.301 310.841L322.699 311.759ZM322.04 311.496L324.04 316.196L324.96 315.804L322.96 311.104L322.04 311.496ZM324.379 316.485C325.336 316.725 326.891 317.282 328.396 318.168C329.908 319.058 331.314 320.247 332.053 321.724L332.947 321.276C332.086 319.553 330.492 318.242 328.904 317.307C327.309 316.368 325.664 315.776 324.621 315.515L324.379 316.485ZM332.053 321.724C332.112 321.843 332.135 322.069 331.747 322.509C331.37 322.938 330.71 323.432 329.788 323.974C327.956 325.052 325.235 326.237 322.11 327.42C315.869 329.783 308.111 332.103 302.87 333.517L303.13 334.483C308.388 333.064 316.181 330.734 322.464 328.355C325.602 327.167 328.387 325.959 330.296 324.836C331.244 324.277 332.014 323.719 332.497 323.17C332.971 322.633 333.287 321.957 332.947 321.276L332.053 321.724ZM303.499 333.974C303.343 331.012 305.295 323.769 314.708 319.455L314.292 318.546C304.505 323.031 302.323 330.655 302.501 334.026L303.499 333.974ZM314.533 319.499C315.807 319.414 317.837 319.16 319.807 318.673C320.793 318.429 321.775 318.124 322.644 317.748C323.508 317.374 324.291 316.916 324.853 316.354L324.146 315.647C323.709 316.084 323.054 316.481 322.247 316.83C321.444 317.178 320.519 317.467 319.567 317.702C317.663 318.173 315.693 318.419 314.467 318.501L314.533 319.499ZM310.699 316.959L313.699 315.659L313.301 314.741L310.301 316.041L310.699 316.959ZM313.699 315.659L322.699 311.759L322.301 310.841L313.301 314.741L313.699 315.659ZM314.983 318.873L313.983 315.073L313.016 315.327L314.016 319.127L314.983 318.873ZM269 318.5H271V317.5H269V318.5ZM268.5 318V324.5H269.5V318H268.5ZM268.671 324.876C269.294 325.422 270.258 326.503 271.064 327.933C271.869 329.362 272.5 331.11 272.5 333H273.5C273.5 330.89 272.797 328.972 271.936 327.442C271.075 325.914 270.039 324.745 269.329 324.124L268.671 324.876ZM273 332.5H242.5V333.5H273V332.5ZM242.947 333.224C244.022 331.074 248.786 326.182 259.057 324.997L258.943 324.003C248.414 325.218 243.311 330.26 242.053 332.776L242.947 333.224ZM258.709 324.907C260.037 325.855 263.853 327.015 269.179 324.967L268.82 324.033C263.747 325.985 260.296 324.811 259.29 324.093L258.709 324.907ZM253 318.5H259V317.5H253V318.5ZM259 318.5H269V317.5H259V318.5ZM259.5 324.5V318H258.5V324.5H259.5ZM263.276 60.5529L261.276 61.5529L261.723 62.4473L263.723 61.4473L263.276 60.5529ZM261.999 61.9707C261.837 59.2173 262.424 55.0271 264.697 51.4429C266.954 47.8852 270.892 44.8897 277.529 44.4992L277.471 43.501C270.508 43.9105 266.279 47.0816 263.853 50.9073C261.443 54.7064 260.829 59.1163 261.001 62.0295L261.999 61.9707ZM277.545 44.498C279.334 44.3354 282.004 44.4369 284.202 45.2444C285.298 45.6469 286.248 46.2139 286.92 46.9825C287.585 47.7416 288 48.7201 288 50.0001H289C289 48.4801 288.498 47.267 287.673 46.3239C286.856 45.3904 285.743 44.745 284.547 44.3058C282.163 43.43 279.332 43.3315 277.455 43.5022L277.545 44.498ZM288.675 50.4683C289.91 50.0053 291.723 49.884 293.212 50.9337C294.689 51.9752 296 54.2783 296 59H297C297 54.1217 295.644 51.4249 293.788 50.1164C291.944 48.8162 289.757 48.9948 288.324 49.5319L288.675 50.4683ZM296 59C296 63.7566 295.255 66.6672 294.369 68.369C293.476 70.0831 292.488 70.5 292 70.5V71.5C293.011 71.5 294.274 70.7169 295.256 68.831C296.244 66.9328 297 63.8434 297 59H296ZM291.501 71.0356C291.579 72.121 291.367 73.8162 290.481 75.3216C289.609 76.8049 288.072 78.1276 285.429 78.5051L285.571 79.4951C288.528 79.0726 290.324 77.562 291.343 75.8286C292.35 74.1173 292.588 72.2124 292.499 70.9644L291.501 71.0356ZM292.459 70.8027C292.281 70.3875 292.013 69.9407 291.656 69.6056C291.295 69.2671 290.8 69.0079 290.208 69.0925C289.631 69.175 289.088 69.5674 288.581 70.2329C288.071 70.9028 287.553 71.9045 287.03 73.3278L287.969 73.6722C288.474 72.2955 288.951 71.3972 289.377 70.839C289.805 70.2764 290.139 70.1125 290.349 70.0825C290.545 70.0546 290.75 70.1267 290.972 70.335C291.198 70.5468 291.397 70.8625 291.54 71.1973L292.459 70.8027ZM287.5 73H285.5V74H287.5V73ZM286 73.5V65.5H285V73.5H286ZM285.757 65.0713C285.111 64.6838 283.5 62.8722 283.5 59H282.5C282.5 63.1278 284.222 65.3162 285.243 65.9287L285.757 65.0713ZM283.5 59V56.5H282.5V59H283.5ZM283.086 56.0074C281.116 55.6649 277.786 55.4892 274.136 56.056C270.485 56.6229 266.475 57.9386 263.185 60.612L263.815 61.3882C266.925 58.8617 270.748 57.594 274.289 57.0442C277.83 56.4943 281.05 56.6685 282.914 56.9926L283.086 56.0074ZM41.8786 191.015C40.7909 191.287 38.8794 191.164 37.3084 189.566L36.5952 190.267C38.4533 192.157 40.7467 192.329 42.1212 191.985L41.8786 191.015ZM37.3084 189.566C36.324 188.565 35.4404 186.953 34.9923 184.413L34.0075 184.587C34.4821 187.276 35.4377 189.09 36.5952 190.267L37.3084 189.566ZM37.433 189.75L37.385 189.667L36.5187 190.166L36.5667 190.25L37.433 189.75ZM127.5 130V110H126.5V130H127.5ZM126.5 130V134.845H127.5V130H126.5ZM169 145.5V137H168V145.5H169ZM116.584 137.223C116.385 137.521 116.273 137.768 116.186 137.96L117.096 138.374C117.181 138.188 117.265 138.004 117.416 137.777L116.584 137.223ZM116.186 137.96C116.081 138.19 116.027 138.299 115.923 138.407C115.815 138.518 115.622 138.658 115.197 138.84C114.332 139.211 112.691 139.687 109.379 140.515L109.621 141.485C112.912 140.663 114.638 140.168 115.591 139.759C116.074 139.552 116.403 139.349 116.641 139.102C116.882 138.854 116.997 138.592 117.096 138.374L116.186 137.96Z" fill="#18376B"/>
</svg>
