<svg width="20" height="14" viewBox="0 0 20 14" fill="none" xmlns="http://www.w3.org/2000/svg">
<path fill-rule="evenodd" clip-rule="evenodd" d="M20 6.88055C20 6.71367 19.9312 6.5543 19.8169 6.4343L13.63 0.184922C13.3856 -0.0619531 12.99 -0.0613281 12.7462 0.184922C12.5019 0.431172 12.5019 0.831172 12.7462 1.07742L17.8669 6.2493H0.625C0.28 6.2493 0 6.5318 0 6.88055C0 7.2293 0.28 7.5118 0.625 7.5118H17.8663L12.7462 12.6837C12.5019 12.9299 12.5025 13.3299 12.7462 13.5762C12.9906 13.8224 13.3863 13.8224 13.63 13.5762L19.8169 7.3268C19.9338 7.20867 19.9981 7.04617 20 6.88055Z" fill="#767676"/>
</svg>
