<svg width="410" height="410" viewBox="0 0 410 410" fill="none" xmlns="http://www.w3.org/2000/svg">
<mask id="path-1-outside-1_8_49" maskUnits="userSpaceOnUse" x="0" y="0" width="410" height="410" fill="black">
<rect fill="white" width="410" height="410"/>
<path d="M205 10C97.3045 10 10 97.3045 10 205C10 216.948 11.0746 228.645 13.1324 240H396.868C398.925 228.645 400 216.948 400 205C400 97.3045 312.696 10 205 10Z"/>
<path d="M396.868 240H13.1324C14.1737 245.746 15.4669 251.405 17 256.964H393C394.533 251.405 395.826 245.746 396.868 240Z"/>
<path d="M68.2374 344C103.433 378.633 151.721 400 205 400C258.279 400 306.567 378.633 341.763 344H68.2374Z"/>
<path d="M393 256.964H17C25.816 288.93 42.5666 317.606 65 340.739H345C367.433 317.606 384.184 288.93 393 256.964Z"/>
<path d="M68.2374 344H341.763C342.854 342.926 343.934 341.839 345 340.739H65C66.0663 341.839 67.1456 342.926 68.2374 344Z"/>
</mask>
<path d="M205 10C97.3045 10 10 97.3045 10 205C10 216.948 11.0746 228.645 13.1324 240H396.868C398.925 228.645 400 216.948 400 205C400 97.3045 312.696 10 205 10Z" fill="#FCEAED"/>
<path d="M396.868 240H13.1324C14.1737 245.746 15.4669 251.405 17 256.964H393C394.533 251.405 395.826 245.746 396.868 240Z" fill="#EEC0C0"/>
<path d="M68.2374 344C103.433 378.633 151.721 400 205 400C258.279 400 306.567 378.633 341.763 344H68.2374Z" fill="#877883"/>
<path d="M393 256.964H17C25.816 288.93 42.5666 317.606 65 340.739H345C367.433 317.606 384.184 288.93 393 256.964Z" fill="#B8B8CF"/>
<path d="M68.2374 344H341.763C342.854 342.926 343.934 341.839 345 340.739H65C66.0663 341.839 67.1456 342.926 68.2374 344Z" fill="#978AC9"/>
<path d="M13.1324 245H396.868V235H13.1324V245ZM393 251.964H17V261.964H393V251.964ZM68.2374 349H341.763V339H68.2374V349ZM345 335.739H65V345.739H345V335.739ZM13.1324 240L22.9721 238.217L13.1324 240ZM396.868 240L387.028 238.217L396.868 240ZM393 256.964L383.36 254.305L393 256.964ZM17 256.964L26.6401 254.305L17 256.964ZM68.2374 344L61.2236 351.128L68.2374 344ZM341.763 344L348.776 351.128L341.763 344ZM345 340.739L337.821 333.777L345 340.739ZM65 340.739L57.8212 347.701L65 340.739ZM20 205C20 102.827 102.827 20 205 20V0C91.7816 0 0 91.7816 0 205H20ZM205 20C307.173 20 390 102.827 390 205H410C410 91.7816 318.218 0 205 0V20ZM22.9721 238.217C21.0204 227.448 20 216.347 20 205H0C0 217.549 1.12872 229.843 3.29265 241.783L22.9721 238.217ZM390 205C390 216.347 388.98 227.448 387.028 238.217L406.707 241.783C408.871 229.843 410 217.549 410 205H390ZM387.028 238.217C386.04 243.667 384.814 249.033 383.36 254.305L402.64 259.622C404.252 253.776 405.612 247.825 406.707 241.783L387.028 238.217ZM26.6401 254.305C25.1862 249.033 23.9598 243.667 22.9721 238.217L3.29265 241.783C4.38765 247.825 5.74752 253.776 7.35988 259.622L26.6401 254.305ZM205 390C154.45 390 108.652 369.739 75.2512 336.872L61.2236 351.128C98.2138 387.526 148.992 410 205 410V390ZM334.749 336.872C301.348 369.739 255.55 390 205 390V410C261.008 410 311.786 387.526 348.776 351.128L334.749 336.872ZM383.36 254.305C375.001 284.615 359.114 311.821 337.821 333.777L352.179 347.701C375.753 323.391 393.367 293.245 402.64 259.622L383.36 254.305ZM337.821 333.777C336.809 334.821 335.785 335.853 334.749 336.872L348.776 351.128C349.924 349.999 351.058 348.856 352.179 347.701L337.821 333.777ZM75.2512 336.872C74.215 335.853 73.1908 334.821 72.1788 333.777L57.8212 347.701C58.9419 348.856 60.0761 349.999 61.2236 351.128L75.2512 336.872ZM72.1788 333.777C50.8863 311.821 34.9994 284.615 26.6401 254.305L7.35988 259.622C16.6326 293.245 34.2468 323.391 57.8212 347.701L72.1788 333.777Z" fill="white" mask="url(#path-1-outside-1_8_49)"/>
<mask id="mask0_8_49" style="mask-type:alpha" maskUnits="userSpaceOnUse" x="10" y="10" width="390" height="390">
<circle cx="205" cy="205" r="195" fill="#FFF0F0"/>
</mask>
<g mask="url(#mask0_8_49)">
<mask id="path-4-outside-2_8_49" maskUnits="userSpaceOnUse" x="5" y="5" width="400" height="400" fill="black">
<rect fill="white" x="5" y="5" width="400" height="400"/>
<path d="M396.868 240H13.1324C14.1737 245.746 15.4669 251.405 17 256.964H393C394.533 251.405 395.826 245.746 396.868 240Z"/>
<path d="M205 10C97.3045 10 10 97.3045 10 205C10 216.948 11.0746 228.645 13.1324 240H396.868C398.925 228.645 400 216.948 400 205C400 97.3045 312.696 10 205 10Z"/>
<path d="M393 256.964H17C25.816 288.93 42.5666 317.606 65 340.739H345C367.433 317.606 384.184 288.93 393 256.964Z"/>
<path d="M68.2374 344H341.763C342.854 342.926 343.934 341.839 345 340.739H65C66.0663 341.839 67.1456 342.926 68.2374 344Z"/>
<path d="M68.2374 344C103.433 378.633 151.721 400 205 400C258.279 400 306.567 378.633 341.763 344H68.2374Z"/>
</mask>
<path d="M396.868 240H13.1324C14.1737 245.746 15.4669 251.405 17 256.964H393C394.533 251.405 395.826 245.746 396.868 240Z" fill="white"/>
<path d="M205 10C97.3045 10 10 97.3045 10 205C10 216.948 11.0746 228.645 13.1324 240H396.868C398.925 228.645 400 216.948 400 205C400 97.3045 312.696 10 205 10Z" fill="#FFE1E6"/>
<path d="M393 256.964H17C25.816 288.93 42.5666 317.606 65 340.739H345C367.433 317.606 384.184 288.93 393 256.964Z" fill="#EDE9E9"/>
<path d="M68.2374 344H341.763C342.854 342.926 343.934 341.839 345 340.739H65C66.0663 341.839 67.1456 342.926 68.2374 344Z" fill="#181EAA"/>
<path d="M68.2374 344C103.433 378.633 151.721 400 205 400C258.279 400 306.567 378.633 341.763 344H68.2374Z" fill="#3778B5"/>
<path d="M13.1324 242.5H396.868V237.5H13.1324V242.5ZM393 254.464H17V259.464H393V254.464ZM68.2374 346.5H341.763V341.5H68.2374V346.5ZM345 338.239H65V343.239H345V338.239ZM13.1324 240L18.0522 239.108L13.1324 240ZM396.868 240L391.948 239.108L396.868 240ZM393 256.964L388.18 255.634L393 256.964ZM17 256.964L21.82 255.634L17 256.964ZM68.2374 344L64.7305 347.564L68.2374 344ZM341.763 344L345.27 347.564L341.763 344ZM345 340.739L341.411 337.258L345 340.739ZM65 340.739L61.4106 344.22L65 340.739ZM15 205C15 100.066 100.066 15 205 15V5C94.5431 5 5 94.5431 5 205H15ZM205 15C309.934 15 395 100.066 395 205H405C405 94.5431 315.457 5 205 5V15ZM18.0522 239.108C16.0475 228.046 15 216.648 15 205H5C5 217.248 6.10165 229.244 8.21251 240.892L18.0522 239.108ZM395 205C395 216.648 393.952 228.046 391.948 239.108L401.787 240.892C403.898 229.244 405 217.249 405 205H395ZM391.948 239.108C390.933 244.707 389.673 250.219 388.18 255.634L397.82 258.293C399.393 252.59 400.719 246.786 401.787 240.892L391.948 239.108ZM21.82 255.634C20.3266 250.219 19.0668 244.707 18.0522 239.108L8.21251 240.892C9.28069 246.786 10.6072 252.59 12.1799 258.293L21.82 255.634ZM205 395C153.086 395 106.043 374.186 71.7443 340.436L64.7305 347.564C100.823 383.08 150.357 405 205 405V395ZM338.256 340.436C303.957 374.186 256.914 395 205 395V405C259.643 405 309.177 383.08 345.27 347.564L338.256 340.436ZM388.18 255.634C379.592 286.773 363.274 314.713 341.411 337.258L348.589 344.22C371.593 320.498 388.776 291.087 397.82 258.293L388.18 255.634ZM341.411 337.258C340.371 338.33 339.32 339.389 338.256 340.436L345.27 347.564C346.389 346.462 347.496 345.347 348.589 344.22L341.411 337.258ZM71.7443 340.436C70.6803 339.389 69.6286 338.33 68.5894 337.258L61.4106 344.22C62.5041 345.347 63.6108 346.462 64.7305 347.564L71.7443 340.436ZM68.5894 337.258C46.7264 314.713 30.4077 286.773 21.82 255.634L12.1799 258.293C21.2243 291.087 38.4067 320.498 61.4106 344.22L68.5894 337.258Z" fill="white" mask="url(#path-4-outside-2_8_49)"/>
<path opacity="0.5" d="M65.5 177C72.3 167 86.6667 166.167 93 167L255 167L262.5 168C270.5 168 279.5 182.667 283 190C283.5 191.833 285.5 195 289.5 193C293.5 191 298.833 190.833 301 191C311.4 191 313.333 201.667 313 207L319.5 164L329.5 114.5C329.833 114 331.2 113 334 113H365.5L367.5 114.5L381 164.5L385.5 204.5C386 206.833 385.7 211.7 380.5 212.5C375.3 213.3 375 217.167 375.5 219C376 221.667 374.8 227.1 366 227.5C357.2 227.9 354.333 223.333 354 221C352.833 218.833 348.5 215.8 340.5 221C332.5 226.2 324.167 220.5 321 217C318.667 217.5 313.8 217.5 313 213.5V227.5C313 238.3 320.667 247.333 324.5 250.5C320 259.5 313 258.5 308 256.5C304 254.9 297.667 254.167 295 254C287.833 253.667 271.5 253.9 263.5 257.5C255.5 261.1 247.167 259 244 257.5C225.6 249.1 206 254 198.5 257.5C190.333 261 170.4 268 156 268C141.6 268 129.667 264 125.5 262C119.667 258.667 105.1 252 93.5 252C81.9 252 74.3333 255.667 72 257.5C67.3333 260.167 55.7 265.4 46.5 265C37.3 264.6 34.3333 259.167 34 256.5C35.6667 254.5 38.2 247 35 233C31.8 219 31.6667 208.5 32 205C32 198.2 35.6667 194.167 37.5 193C44.5 187 52 190.5 55 192C57.4 193.2 58.6667 191.833 59 191L65.5 177Z" fill="white"/>
<path opacity="0.25" d="M203.707 314.014V279M98.9967 315L143.954 280.973M29 299.712L66.5592 279.493M305.003 315L260.046 283.932M375 299.712L337.441 279.493" stroke="black" stroke-linecap="round"/>
<rect x="16" y="63" width="109" height="68" fill="#F99B8B"/>
<path fill-rule="evenodd" clip-rule="evenodd" d="M121 81V74.5H21V81H121ZM21 93.5V87.5H121V93.5H21ZM21 100V106.5H121V100H21ZM21 119.75V112.5H121V119.75H21Z" fill="#FFF2F0"/>
<path d="M21 127H121V119.75H21V127Z" fill="#FFC1C1"/>
<path d="M121 106.5H21V112.5H121V106.5Z" fill="#FFC1C1"/>
<path d="M121 93.5H21V100H121V93.5Z" fill="#FFC1C1"/>
<path d="M121 67H21V74.5H121V67Z" fill="#FFC1C1"/>
<path d="M121 81H21V87.5H121V81Z" fill="#FFC1C1"/>
<path d="M323 267V272H375.5V267H352.5V169.5V164H348V267H323Z" fill="#325670"/>
<path d="M352.5 164H379.5L366 114.5H331L320.5 164H348H352.5Z" fill="#286FB2"/>
<path d="M74.3044 282L82.8503 258.128H67.6576L66.7081 282H74.3044Z" fill="#18354C"/>
<path d="M269.91 282L261.364 258.128H276.557L277.507 282H269.91Z" fill="#18354C"/>
<path d="M64.2149 182.32L55.7883 200.154L76.6782 261.538H268.011L288.426 200.154L275.376 179.6C270.79 172.376 262.827 168 254.271 168H86.8187C77.1488 168 68.346 173.577 64.2149 182.32Z" fill="#F65561"/>
<path d="M55.3136 198.205L51.5154 202.103L75.254 262.026H265.637L293.174 201.128C289.692 199.342 279.975 199.277 268.961 213.308C257.946 227.338 240.316 231.496 232.878 231.821H123.206C91.3012 231.821 80.1599 224.026 78.5773 220.128C69.8416 203.759 59.4282 198.692 55.3136 198.205Z" fill="#EE403B"/>
<path d="M33.4742 207.949L56.2632 262.513L57.6874 264.949H286.527L308.841 214.282C311.532 207.299 313.874 193.041 301.72 191.872C289.566 190.703 283.995 198.53 282.729 202.59L262.789 260.077H81.426L59.1117 198.692C56.0732 189.728 46.1347 190.41 41.5453 191.872C32.4297 195.38 32.3664 204.051 33.4742 207.949Z" fill="#F65561"/>
<path d="M260.415 257.154L268.486 235.231H174.481V257.154H260.415Z" fill="#F65561"/>
<path d="M83.7998 257.154L75.7287 235.231H170.683V257.154H83.7998Z" fill="#F65561"/>
<path opacity="0.5" d="M65.5 177C72.3 167 86.6667 166.167 93 167L255 167L262.5 168C270.5 168 279.5 182.667 283 190C283.5 191.833 285.5 195 289.5 193C293.5 191 298.833 190.833 301 191C311.4 191 313.333 201.667 313 207L319.5 164L329.5 114.5C329.833 114 331.2 113 334 113H365.5L367.5 114.5L381 164.5L385.5 204.5C386 206.833 385.7 211.7 380.5 212.5C375.3 213.3 375 217.167 375.5 219C376 221.667 374.8 227.1 366 227.5C357.2 227.9 354.333 223.333 354 221C352.833 218.833 348.5 215.8 340.5 221C332.5 226.2 324.167 220.5 321 217C318.667 217.5 313.8 217.5 313 213.5V227.5C313 238.3 320.667 247.333 324.5 250.5C320 259.5 313 258.5 308 256.5C304 254.9 297.667 254.167 295 254C287.833 253.667 271.5 253.9 263.5 257.5C255.5 261.1 247.167 259 244 257.5C225.6 249.1 206 254 198.5 257.5C190.333 261 170.4 268 156 268C141.6 268 129.667 264 125.5 262C119.667 258.667 105.1 252 93.5 252C81.9 252 74.3333 255.667 72 257.5C67.3333 260.167 55.7 265.4 46.5 265C37.3 264.6 34.3333 259.167 34 256.5C35.6667 254.5 38.2 247 35 233C31.8 219 31.6667 208.5 32 205C32 198.2 35.6667 194.167 37.5 193C44.5 187 52 190.5 55 192C57.4 193.2 58.6667 191.833 59 191L65.5 177Z" fill="white"/>
<path fill-rule="evenodd" clip-rule="evenodd" d="M247.965 10.1438V78.0368C246.739 79.2631 244.487 83.3211 245.29 89.7425L228.236 107.127H249.472L248.634 91H250.307L262.5 107.127H270.708L251.979 89.7425C252.536 87.7358 252.982 82.5853 250.307 78.0368V10.1438H247.965ZM249.972 85.7291C250.711 85.7291 251.31 84.5312 251.31 83.0535C251.31 81.5758 250.711 80.3779 249.972 80.3779C249.233 80.3779 248.634 81.5758 248.634 83.0535C248.634 84.5312 249.233 85.7291 249.972 85.7291Z" fill="#325670"/>
<path d="M251.31 83.0535C251.31 84.5312 250.711 85.7291 249.972 85.7291C249.233 85.7291 248.634 84.5312 248.634 83.0535C248.634 81.5758 249.233 80.3779 249.972 80.3779C250.711 80.3779 251.31 81.5758 251.31 83.0535Z" fill="#58A4DE"/>
<path d="M248.634 91L249.472 107.127H262.5L250.307 91H248.634Z" fill="#58A4DE"/>
<path d="M89.5 233C103 228 133.4 210.1 147 178.5C140.667 190.167 120.3 217.4 89.5 233Z" fill="white"/>
<path d="M158.5 185.5C153.667 201 147.4 235.3 161 248.5C156.667 243 150.1 222.7 158.5 185.5Z" fill="white"/>
<path d="M193.5 183C194.667 193.5 205.2 217.9 238 231.5C226.667 226 201.9 208.6 193.5 183Z" fill="white"/>
<path d="M229 215C211.8 199.8 215.167 186.333 219 181.5C212.6 195.9 224.667 209.833 231.5 215C240.011 223.029 245.691 229.124 249.387 233.641C253.603 237.981 255.299 240.693 255.508 243.277C255.652 243.862 255.632 244.263 255.5 244.5C255.537 244.092 255.541 243.686 255.508 243.277C255.108 241.651 253.44 238.595 249.387 233.641C245.289 229.424 238.81 223.669 229 215Z" fill="white"/>
<path d="M57 194.5C59.5 202.203 69.5 217.487 89.5 217C82.8333 216.667 67 211.7 57 194.5Z" fill="white"/>
<path d="M287.5 195.5C284.833 202.167 274.7 217.4 255.5 225C261.5 222.5 276.3 213.1 287.5 195.5Z" fill="white"/>
<path d="M364.5 137L375.5 218.5L378 212L364.5 137Z" fill="white"/>
<path d="M352 218.5C350.667 208.333 346 194.7 338 221.5C340.667 219.5 347.2 216.1 352 218.5Z" fill="white"/>
<path d="M335.5 131L319 216L318.5 217C320.5 216.6 321.667 217.5 322 218L335.5 131Z" fill="white"/>
</g>
</svg>
