<svg width="410" height="410" viewBox="0 0 410 410" fill="none" xmlns="http://www.w3.org/2000/svg">
<mask id="path-1-outside-1_8_50" maskUnits="userSpaceOnUse" x="0" y="0" width="410" height="410" fill="black">
<rect fill="white" width="410" height="410"/>
<path d="M205 10C97.3045 10 10 97.3045 10 205C10 216.948 11.0746 228.645 13.1324 240H396.868C398.925 228.645 400 216.948 400 205C400 97.3045 312.696 10 205 10Z"/>
<path d="M396.868 240H13.1324C14.1737 245.746 15.4669 251.405 17 256.964H393C394.533 251.405 395.826 245.746 396.868 240Z"/>
<path d="M68.2374 344C103.433 378.633 151.721 400 205 400C258.279 400 306.567 378.633 341.763 344H68.2374Z"/>
<path d="M393 256.964H17C25.816 288.93 42.5666 317.606 65 340.739H345C367.433 317.606 384.184 288.93 393 256.964Z"/>
<path d="M68.2374 344H341.763C342.854 342.926 343.934 341.839 345 340.739H65C66.0663 341.839 67.1456 342.926 68.2374 344Z"/>
</mask>
<path d="M205 10C97.3045 10 10 97.3045 10 205C10 216.948 11.0746 228.645 13.1324 240H396.868C398.925 228.645 400 216.948 400 205C400 97.3045 312.696 10 205 10Z" fill="#FCEAED"/>
<path d="M396.868 240H13.1324C14.1737 245.746 15.4669 251.405 17 256.964H393C394.533 251.405 395.826 245.746 396.868 240Z" fill="#EEC0C0"/>
<path d="M68.2374 344C103.433 378.633 151.721 400 205 400C258.279 400 306.567 378.633 341.763 344H68.2374Z" fill="#877883"/>
<path d="M393 256.964H17C25.816 288.93 42.5666 317.606 65 340.739H345C367.433 317.606 384.184 288.93 393 256.964Z" fill="#B8B8CF"/>
<path d="M68.2374 344H341.763C342.854 342.926 343.934 341.839 345 340.739H65C66.0663 341.839 67.1456 342.926 68.2374 344Z" fill="#978AC9"/>
<path d="M13.1324 245H396.868V235H13.1324V245ZM393 251.964H17V261.964H393V251.964ZM68.2374 349H341.763V339H68.2374V349ZM345 335.739H65V345.739H345V335.739ZM13.1324 240L22.9721 238.217L13.1324 240ZM396.868 240L387.028 238.217L396.868 240ZM393 256.964L383.36 254.305L393 256.964ZM17 256.964L26.6401 254.305L17 256.964ZM68.2374 344L61.2236 351.128L68.2374 344ZM341.763 344L348.776 351.128L341.763 344ZM345 340.739L337.821 333.777L345 340.739ZM65 340.739L57.8212 347.701L65 340.739ZM20 205C20 102.827 102.827 20 205 20V0C91.7816 0 0 91.7816 0 205H20ZM205 20C307.173 20 390 102.827 390 205H410C410 91.7816 318.218 0 205 0V20ZM22.9721 238.217C21.0204 227.448 20 216.347 20 205H0C0 217.549 1.12872 229.843 3.29265 241.783L22.9721 238.217ZM390 205C390 216.347 388.98 227.448 387.028 238.217L406.707 241.783C408.871 229.843 410 217.549 410 205H390ZM387.028 238.217C386.04 243.667 384.814 249.033 383.36 254.305L402.64 259.622C404.252 253.776 405.612 247.825 406.707 241.783L387.028 238.217ZM26.6401 254.305C25.1862 249.033 23.9598 243.667 22.9721 238.217L3.29265 241.783C4.38765 247.825 5.74752 253.776 7.35988 259.622L26.6401 254.305ZM205 390C154.45 390 108.652 369.739 75.2512 336.872L61.2236 351.128C98.2138 387.526 148.992 410 205 410V390ZM334.749 336.872C301.348 369.739 255.55 390 205 390V410C261.008 410 311.786 387.526 348.776 351.128L334.749 336.872ZM383.36 254.305C375.001 284.615 359.114 311.821 337.821 333.777L352.179 347.701C375.753 323.391 393.367 293.245 402.64 259.622L383.36 254.305ZM337.821 333.777C336.809 334.821 335.785 335.853 334.749 336.872L348.776 351.128C349.924 349.999 351.058 348.856 352.179 347.701L337.821 333.777ZM75.2512 336.872C74.215 335.853 73.1908 334.821 72.1788 333.777L57.8212 347.701C58.9419 348.856 60.0761 349.999 61.2236 351.128L75.2512 336.872ZM72.1788 333.777C50.8863 311.821 34.9994 284.615 26.6401 254.305L7.35988 259.622C16.6326 293.245 34.2468 323.391 57.8212 347.701L72.1788 333.777Z" fill="white" mask="url(#path-1-outside-1_8_50)"/>
<mask id="mask0_8_50" style="mask-type:alpha" maskUnits="userSpaceOnUse" x="10" y="10" width="390" height="390">
<circle cx="205" cy="205" r="195" fill="#FFF0F0"/>
</mask>
<g mask="url(#mask0_8_50)">
<path d="M205 10C97.3045 10 10 97.3045 10 205C10 216.948 11.0746 228.645 13.1324 240H396.868C398.925 228.645 400 216.948 400 205C400 97.3045 312.696 10 205 10Z" fill="#EDE9E9"/>
<path d="M68.2374 344C103.433 378.633 151.721 400 205 400C258.279 400 306.567 378.633 341.763 344H68.2374Z" fill="#FFE1E6"/>
<path d="M393 256.964H17C25.816 288.93 42.5666 317.606 65 340.739H345C367.433 317.606 384.184 288.93 393 256.964Z" fill="#FFE1E6"/>
<path d="M68.2374 344H341.763C342.854 342.926 343.934 341.839 345 340.739H65C66.0663 341.839 67.1456 342.926 68.2374 344Z" fill="#F2B0B0"/>
<path d="M396.868 240H13.1324C14.1737 245.746 15.4669 251.405 17 256.964H393C394.533 251.405 395.826 245.746 396.868 240Z" fill="white"/>
<path d="M398 298.5C398 298.635 397.992 298.77 397.977 298.905C397.097 306.726 370.805 313 338.5 313C305.639 313 279 306.508 279 298.5C279 290.492 305.639 284 338.5 284C371.361 284 398 290.492 398 298.5Z" fill="white"/>
<path d="M338.5 313C305.639 313 279 306.508 279 298.5V401H379.5L393 387.5L397.977 298.905C397.097 306.726 370.805 313 338.5 313Z" fill="#EE403B"/>
<ellipse cx="336" cy="298.185" rx="50" ry="12.1849" fill="#FF9882"/>
<circle cx="298" cy="323" r="5" fill="#153A57"/>
<path d="M296.5 322.5C302 331.667 321.3 351.2 354.5 356" stroke="#325670" stroke-width="3" stroke-linecap="round"/>
<path d="M282.5 145.5L276.562 138.431C273.829 135.178 269.34 134.007 265.366 135.51L245.974 142.848C240.217 145.026 237.776 151.838 240.839 157.177L246.471 166.993C249.598 172.442 246.984 179.391 241.041 181.429L200 195.5" stroke="#153A57" stroke-width="10"/>
<path d="M310 148C310 161.255 299.255 172 286 172C279.203 172 273.067 169.175 268.7 164.635C268.051 163.96 267.441 163.247 266.874 162.5C263.815 158.472 262 153.448 262 148C262 134.745 272.745 124 286 124C294.883 124 302.64 128.826 306.789 136C308.831 139.53 310 143.629 310 148Z" fill="#FE726B"/>
<path d="M310 148C310 161.255 299.255 172 286 172C279.203 172 273.067 169.175 268.7 164.635L313.5 217L332.5 212.5L352.5 189.5L306.789 136C308.831 139.53 310 143.629 310 148Z" fill="#FE726B"/>
<circle cx="332" cy="202" r="24" fill="#EE403B"/>
<circle cx="333" cy="203" r="11.5" fill="#18354C" stroke="white" stroke-width="3"/>
<path d="M203 190.5C203 202.926 192.926 213 180.5 213C168.074 213 158 202.926 158 190.5C158 178.074 168.074 168 180.5 168C192.926 168 203 178.074 203 190.5Z" fill="#18354C"/>
<path d="M206 193.5C206 205.926 195.926 216 183.5 216C171.074 216 161 205.926 161 193.5C161 181.074 171.074 171 183.5 171C195.926 171 206 181.074 206 193.5Z" fill="#325670"/>
<path d="M196 194C196 200.627 190.627 206 184 206C177.373 206 172 200.627 172 194C172 187.373 177.373 182 184 182C190.627 182 196 187.373 196 194Z" fill="#703333"/>
<path fill-rule="evenodd" clip-rule="evenodd" d="M193.5 183.5L173 187.5L112 205L108 196L86.2105 202L99.5 247.05L123 240L120 229L183.5 212.5L197.5 205L193.5 183.5ZM86.2105 251.037L73.5 205.5L4.5 224.5L13 273L86.2105 251.037Z" fill="#3778B5"/>
<path d="M99.5 247.05L86.2105 202L73.5 205.5L86.2105 251.037L99.5 247.05Z" fill="white"/>
<path opacity="0.33" d="M15 261L119 229L116 221.5L177.5 203.5V195.5L114.5 214.5L116 218.5L12 251L15 261Z" fill="#110076"/>
<path d="M147 322.5L151.5 227.5L139.5 321.12C141.631 321.888 144.119 322.401 147 322.5Z" fill="#EE403B"/>
<path d="M161 239.5L177.5 352.5C179.437 351.563 182.059 349.866 184.516 347.5L161 239.5Z" fill="#EE403B"/>
<path fill-rule="evenodd" clip-rule="evenodd" d="M129.5 200L135 198.5C146.2 197.3 147 211 146 218H148C151.351 214.658 151.063 206.941 150.5 203.5C153.3 211.207 151 219.045 149.5 222C151.333 222 154.7 222.4 153.5 224C152.3 225.6 148.667 224.667 147 224L129 311.5C129.877 314.131 133.051 318.795 139.5 321.12L151.5 227.5L147 322.5V365L156 381C162.833 378.667 176.7 369.7 177.5 352.5L161 239.5L184.516 347.5C188.611 343.556 192.25 337.751 191.5 330.5L159 224L153.5 220C155 217.833 157.8 212 157 206C156.333 202.167 153 194.3 145 193.5C143.5 193.167 140.3 193.1 139.5 195.5C136.833 194.167 131.1 193.2 129.5 200Z" fill="#FE726B"/>
<path d="M135 198.5C137.333 198.667 142.3 201.5 143.5 211.5V222L147 224C148.667 224.667 152.3 225.6 153.5 224C154.7 222.4 151.333 222 149.5 222C151 219.045 153.3 211.207 150.5 203.5C151.063 206.941 151.351 214.658 148 218H146C147 211 146.2 197.3 135 198.5Z" fill="#EE403B"/>
<path d="M38.5 149.94L41.5 142.625L38.5 141.752L35.25 149L38.5 149.94Z" fill="#8382A1"/>
<path d="M86.5 163.819L89.5 156.583L85.5 155.42L83 162.807L86.5 163.819Z" fill="#8382A1"/>
<path fill-rule="evenodd" clip-rule="evenodd" d="M17 135.5L14.5 143L35.25 149L38.5 141.752L17 135.5ZM41.5 142.625L38.5 149.94L83 162.807L85.5 155.42L41.5 142.625ZM135 177.843L86.5 163.819L89.5 156.583L137 170.396L135 177.843ZM138.5 178.855L180.5 191C183.333 190.333 188.3 188.1 185.5 184.5L141 171.559L138.5 178.855Z" fill="#33323D"/>
<path d="M138.5 178.855L141 171.559L137 170.396L135 177.843L138.5 178.855Z" fill="#8382A1"/>
<circle cx="192.5" cy="203.5" r="22.5" fill="#18354C"/>
<circle cx="195.5" cy="206.5" r="22.5" fill="#325670"/>
<circle cx="196" cy="207" r="12" fill="#F65561"/>
</g>
</svg>
