<svg width="677" height="677" viewBox="0 0 677 677" fill="none" xmlns="http://www.w3.org/2000/svg">
<g opacity="0.1">
<mask id="mask0_219_2796" style="mask-type:alpha" maskUnits="userSpaceOnUse" x="0" y="0" width="677" height="677">
<circle cx="338.5" cy="338.5" r="338.5" fill="#C4C4C4"/>
</mask>
<g mask="url(#mask0_219_2796)">
<path d="M-90.5957 163.647C-90.5957 163.647 49.6365 137.67 85.8182 46.7526C120.421 -40.4023 262.961 -63.8291 262.961 -63.8291" stroke="#E71C24" stroke-width="2" stroke-miterlimit="10"/>
<path d="M-90.5957 207.345C-90.5957 207.345 81.4473 177.364 125.763 67.631C168.015 -37.1249 342.729 -63.8291 342.729 -63.8291" stroke="#E71C24" stroke-width="2" stroke-miterlimit="10"/>
<path d="M-90.5957 251.166C-90.5957 251.166 113.136 217.057 165.587 88.7522C215.609 -33.9683 422.498 -63.8291 422.498 -63.8291" stroke="#E71C24" stroke-width="2" stroke-miterlimit="10"/>
<path d="M-90.5957 294.865C-90.5957 294.865 144.947 256.75 205.532 109.631C263.204 -30.6909 502.267 -63.8291 502.267 -63.8291" stroke="#E71C24" stroke-width="2" stroke-miterlimit="10"/>
<path d="M-90.5957 338.564C-90.5957 338.564 176.757 296.443 245.477 130.63C310.797 -27.4134 581.914 -63.8291 581.914 -63.8291" stroke="#E71C24" stroke-width="2" stroke-miterlimit="10"/>
<path d="M-90.5957 382.383C-90.5957 382.383 208.446 336.257 285.301 151.629C358.513 -24.2578 661.683 -63.8291 661.683 -63.8291" stroke="#E71C24" stroke-width="2" stroke-miterlimit="10"/>
<path d="M-90.5957 426.082C-90.5957 426.082 240.256 375.828 325.246 172.63C406.107 -20.9803 741.451 -63.8291 741.451 -63.8291" stroke="#E71C24" stroke-width="2" stroke-miterlimit="10"/>
<path d="M-90.5957 469.781C-90.5957 469.781 272.067 415.521 365.069 193.508C453.701 -17.7029 821.221 -63.8291 821.221 -63.8291" stroke="#E71C24" stroke-width="2" stroke-miterlimit="10"/>
<path d="M-90.5957 513.602C-90.5957 513.602 303.755 455.337 405.014 214.628C501.296 -14.5472 900.868 -63.8291 900.868 -63.8291" stroke="#E71C24" stroke-width="2" stroke-miterlimit="10"/>
<path d="M-90.5957 557.297C-90.5957 557.297 335.566 495.03 444.839 235.629C548.889 -11.2697 980.637 -63.8291 980.637 -63.8291" stroke="#E71C24" stroke-width="2" stroke-miterlimit="10"/>
<path d="M-90.5957 601.117C-90.5957 601.117 367.376 534.722 484.784 256.628C596.484 -7.99233 1060.4 -63.8291 1060.4 -63.8291" stroke="#E71C24" stroke-width="2" stroke-miterlimit="10"/>
<path d="M-90.5957 644.82C-90.5957 644.82 399.065 574.416 524.607 277.628C644.078 -4.83577 1140.17 -63.8291 1140.17 -63.8291" stroke="#E71C24" stroke-width="2" stroke-miterlimit="10"/>
<path d="M-90.5957 688.513C-90.5957 688.513 430.875 614.109 564.552 298.506C691.672 -1.55834 1219.94 -63.8291 1219.94 -63.8291" stroke="#E71C24" stroke-width="2" stroke-miterlimit="10"/>
<path d="M-90.5957 732.334C-90.5957 732.334 462.686 653.802 604.497 319.627C739.266 1.71913 1299.59 -63.8291 1299.59 -63.8291" stroke="#E71C24" stroke-width="2" stroke-miterlimit="10"/>
<path d="M-90.5957 776.036C-90.5957 776.036 494.375 693.495 644.321 340.505C786.861 4.87477 1379.36 -63.8291 1379.36 -63.8291" stroke="#E71C24" stroke-width="2" stroke-miterlimit="10"/>
<path d="M-90.5957 819.739C-90.5957 819.739 526.186 733.188 684.266 361.505C834.454 8.15226 1459.13 -63.8291 1459.13 -63.8291" stroke="#E71C24" stroke-width="2" stroke-miterlimit="10"/>
<path d="M-90.5957 863.559C-90.5957 863.559 557.996 773 724.089 382.505C882.048 11.4297 1538.9 -63.8291 1538.9 -63.8291" stroke="#E71C24" stroke-width="2" stroke-miterlimit="10"/>
<path d="M-90.5957 907.253C-90.5957 907.253 589.685 812.575 764.034 403.505C929.643 14.5853 1618.55 -63.8291 1618.55 -63.8291" stroke="#E71C24" stroke-width="2" stroke-miterlimit="10"/>
</g>
</g>
</svg>
