<svg width="410" height="410" viewBox="0 0 410 410" fill="none" xmlns="http://www.w3.org/2000/svg">
<mask id="path-1-outside-1_8_73" maskUnits="userSpaceOnUse" x="0" y="0" width="410" height="410" fill="black">
<rect fill="white" width="410" height="410"/>
<path d="M205 10C97.3045 10 10 97.3045 10 205C10 216.948 11.0746 228.645 13.1324 240H396.868C398.925 228.645 400 216.948 400 205C400 97.3045 312.696 10 205 10Z"/>
<path d="M396.868 240H13.1324C14.1737 245.746 15.4669 251.405 17 256.964H393C394.533 251.405 395.826 245.746 396.868 240Z"/>
<path d="M68.2374 344C103.433 378.633 151.721 400 205 400C258.279 400 306.567 378.633 341.763 344H68.2374Z"/>
<path d="M393 256.964H17C25.816 288.93 42.5666 317.606 65 340.739H345C367.433 317.606 384.184 288.93 393 256.964Z"/>
<path d="M68.2374 344H341.763C342.854 342.926 343.934 341.839 345 340.739H65C66.0663 341.839 67.1456 342.926 68.2374 344Z"/>
</mask>
<path d="M205 10C97.3045 10 10 97.3045 10 205C10 216.948 11.0746 228.645 13.1324 240H396.868C398.925 228.645 400 216.948 400 205C400 97.3045 312.696 10 205 10Z" fill="#FCEAED"/>
<path d="M396.868 240H13.1324C14.1737 245.746 15.4669 251.405 17 256.964H393C394.533 251.405 395.826 245.746 396.868 240Z" fill="#EEC0C0"/>
<path d="M68.2374 344C103.433 378.633 151.721 400 205 400C258.279 400 306.567 378.633 341.763 344H68.2374Z" fill="#877883"/>
<path d="M393 256.964H17C25.816 288.93 42.5666 317.606 65 340.739H345C367.433 317.606 384.184 288.93 393 256.964Z" fill="#B8B8CF"/>
<path d="M68.2374 344H341.763C342.854 342.926 343.934 341.839 345 340.739H65C66.0663 341.839 67.1456 342.926 68.2374 344Z" fill="#978AC9"/>
<path d="M13.1324 245H396.868V235H13.1324V245ZM393 251.964H17V261.964H393V251.964ZM68.2374 349H341.763V339H68.2374V349ZM345 335.739H65V345.739H345V335.739ZM13.1324 240L22.9721 238.217L13.1324 240ZM396.868 240L387.028 238.217L396.868 240ZM393 256.964L383.36 254.305L393 256.964ZM17 256.964L26.6401 254.305L17 256.964ZM68.2374 344L61.2236 351.128L68.2374 344ZM341.763 344L348.776 351.128L341.763 344ZM345 340.739L337.821 333.777L345 340.739ZM65 340.739L57.8212 347.701L65 340.739ZM20 205C20 102.827 102.827 20 205 20V0C91.7816 0 0 91.7816 0 205H20ZM205 20C307.173 20 390 102.827 390 205H410C410 91.7816 318.218 0 205 0V20ZM22.9721 238.217C21.0204 227.448 20 216.347 20 205H0C0 217.549 1.12872 229.843 3.29265 241.783L22.9721 238.217ZM390 205C390 216.347 388.98 227.448 387.028 238.217L406.707 241.783C408.871 229.843 410 217.549 410 205H390ZM387.028 238.217C386.04 243.667 384.814 249.033 383.36 254.305L402.64 259.622C404.252 253.776 405.612 247.825 406.707 241.783L387.028 238.217ZM26.6401 254.305C25.1862 249.033 23.9598 243.667 22.9721 238.217L3.29265 241.783C4.38765 247.825 5.74752 253.776 7.35988 259.622L26.6401 254.305ZM205 390C154.45 390 108.652 369.739 75.2512 336.872L61.2236 351.128C98.2138 387.526 148.992 410 205 410V390ZM334.749 336.872C301.348 369.739 255.55 390 205 390V410C261.008 410 311.786 387.526 348.776 351.128L334.749 336.872ZM383.36 254.305C375.001 284.615 359.114 311.821 337.821 333.777L352.179 347.701C375.753 323.391 393.367 293.245 402.64 259.622L383.36 254.305ZM337.821 333.777C336.809 334.821 335.785 335.853 334.749 336.872L348.776 351.128C349.924 349.999 351.058 348.856 352.179 347.701L337.821 333.777ZM75.2512 336.872C74.215 335.853 73.1908 334.821 72.1788 333.777L57.8212 347.701C58.9419 348.856 60.0761 349.999 61.2236 351.128L75.2512 336.872ZM72.1788 333.777C50.8863 311.821 34.9994 284.615 26.6401 254.305L7.35988 259.622C16.6326 293.245 34.2468 323.391 57.8212 347.701L72.1788 333.777Z" fill="white" mask="url(#path-1-outside-1_8_73)"/>
<mask id="mask0_8_73" style="mask-type:alpha" maskUnits="userSpaceOnUse" x="10" y="10" width="390" height="390">
<circle cx="205" cy="205" r="195" fill="#FFF0F0"/>
</mask>
<g mask="url(#mask0_8_73)">
<path d="M205 10C97.3045 10 10 97.3045 10 205C10 216.948 11.0746 228.645 13.1324 240H396.868C398.925 228.645 400 216.948 400 205C400 97.3045 312.696 10 205 10Z" fill="#FFE1E6"/>
<path d="M68.2374 344C103.433 378.633 151.721 400 205 400C258.279 400 306.567 378.633 341.763 344H68.2374Z" fill="#EDE9E9"/>
<path d="M393 256.964H17C25.816 288.93 42.5666 317.606 65 340.739H345C367.433 317.606 384.184 288.93 393 256.964Z" fill="#EDE9E9"/>
<path d="M68.2374 344H341.763C342.854 342.926 343.934 341.839 345 340.739H65C66.0663 341.839 67.1456 342.926 68.2374 344Z" fill="#F2B0B0"/>
<path d="M396.868 240H13.1324C14.1737 245.746 15.4669 251.405 17 256.964H393C394.533 251.405 395.826 245.746 396.868 240Z" fill="white"/>
<circle cx="167.5" cy="18.5" r="32.5" fill="#FFF2F0" stroke="#FFAEA0" stroke-width="3"/>
<path d="M226.287 368L238.553 333.738H216.748L215.385 368H226.287Z" fill="#18354C"/>
<path d="M507.027 368L494.761 333.738H516.566L517.929 368H507.027Z" fill="#18354C"/>
<path d="M214.752 218.704L199.713 250.532L229.695 338.633H504.301L533.602 250.532L511.666 215.984C507.08 208.76 499.117 204.384 490.561 204.384H237.355C227.685 204.384 218.883 209.96 214.752 218.704Z" fill="#F05C67"/>
<path opacity="0.75" d="M199.031 247.735L193.58 253.329L227.65 339.332H500.894L540.416 251.93C535.419 249.367 521.473 249.273 505.664 269.411C489.855 289.548 464.552 295.515 453.877 295.981H296.472C250.682 295.981 234.691 284.794 232.42 279.2C219.882 255.706 204.937 248.434 199.031 247.735Z" fill="#C3222D"/>
<path d="M167.687 261.719L200.394 340.031L202.438 343.527H530.876L562.902 270.809C566.763 260.787 570.125 240.323 552.681 238.645C535.237 236.967 527.242 248.201 525.425 254.028L496.806 336.535H236.509L204.482 248.434C200.121 235.569 185.857 236.548 179.271 238.645C166.188 243.68 166.097 256.126 167.687 261.719Z" fill="#F05C67"/>
<path d="M493.399 332.34L504.982 300.875H370.064V332.34H493.399Z" fill="#F05C67"/>
<path d="M239.916 332.34L228.332 300.875H364.613V332.34H239.916Z" fill="#F05C67"/>
<rect x="246" y="77" width="203" height="91" fill="#F68F7D"/>
<path d="M251 139V163H377.5L352.5 148.458L301 118.5L251 139Z" fill="#FFCECE"/>
<path d="M251 82V103C262.833 99.6667 291.1 95 309.5 103C327.9 111 343.833 92.3333 349.5 82H251Z" fill="white"/>
<path fill-rule="evenodd" clip-rule="evenodd" d="M251 103V139L301 118.5L352.5 148.458L386 126.5L454 138V82H349.5C343.833 92.3333 327.9 111 309.5 103C291.1 95 262.833 99.6667 251 103Z" fill="#FFECEC"/>
<path d="M377.5 163H454V138L386 126.5L352.5 148.458L377.5 163Z" fill="#FFB5B5"/>
<path d="M134.5 103.5L138 102.5L139 103C140 102.667 142.5 102.5 144.5 104.5C144.833 105 146 106 148 106C149.667 105.167 153 102.2 153 97C153.098 95.5344 152.806 93.1752 151.5 91.3932C150.578 90.1356 149.152 89.1655 147 89H130H127C124.333 89.1667 119 90.8 119 96C119 102.5 122 105 126.5 105.5C130.1 105.9 133.333 104.333 134.5 103.5Z" fill="white"/>
<path d="M153.5 380C140.7 376.8 137.167 371.667 137 369.5L115.5 370.844L113 376C109.8 380.2 111.667 384.417 113 386H161C161 382 156 380.333 153.5 380Z" fill="#4F5464"/>
<path d="M136.5 68.5C129.833 67 114.5 67.3 106.5 80.5C105.194 83.0254 103.669 87.7438 103.481 93.5C103.385 96.4464 103.638 99.6647 104.451 103C105.089 105.62 106.072 108.311 107.5 111C107.758 111.446 108.095 111.981 108.5 112.566C110.365 115.26 113.66 119.014 117.166 120C116.699 118.48 116.598 116.74 117 115C117.88 111.185 120.429 109.828 122.514 109.507C116.526 108.313 113.01 100.672 112 97C106.4 74.2 126 68.5 136.5 68.5Z" fill="#EE403B"/>
<path d="M89.5 122C87.5 123.833 83.5 130.4 83.5 142C83.3524 147.43 84.6242 158.105 89.5293 169C90.5067 171.171 91.6285 173.351 92.9121 175.5C94.8753 178.787 97.217 182.001 100 185C101.859 186.722 105.289 189.41 110 192.396C112.749 194.139 115.935 195.983 119.5 197.795C122.152 199.143 125.013 200.473 128.06 201.731C130.886 202.898 133.873 204.002 137 205C126.5 199.167 104.1 185.1 98.5 175.5C93.2931 165.5 85.1915 141.2 94.4397 124C92.9226 123.158 91.2771 122.474 89.5 122Z" fill="#EE403B"/>
<path fill-rule="evenodd" clip-rule="evenodd" d="M127 125.5C126.951 125.524 126.898 125.548 126.84 125.572C123.484 127.053 116.173 128.625 112.5 123.535C108.767 118.364 100.611 116.69 97 116.5C104.283 120.667 116.765 132.6 108.425 147C108.484 152.602 109.441 160.007 110 163.5C112.8 175.5 122.873 185.167 128.06 188C129.581 184.697 131.624 180.459 133.5 176.62C136.17 171.156 138.5 166.5 138.5 166.5C143.3 157.7 144.833 146.5 145 142C145 133.2 141.333 126.024 139.5 123.535C139.177 123.707 138.844 123.863 138.5 124C132.5 126.4 129.707 125 129.06 124C128.483 124.584 127.802 125.099 127 125.5Z" fill="#F65561"/>
<path d="M119.984 124C118.702 123.167 117.697 121.726 117.166 120C113.66 119.014 110.365 115.26 108.5 112.566C105.7 112.619 99.6667 115.211 97 116.5C100.611 116.69 108.767 118.364 112.5 123.535C116.173 128.625 123.484 127.053 126.84 125.572C125.715 126.032 123.017 126.283 119.984 124Z" fill="#EE403B"/>
<path d="M100 185C97.217 182.001 94.8753 178.787 92.9121 175.5L83.5 179.28L83.49 179.3C79.9457 186.448 72.524 201.418 70.7414 223C70.3417 227.839 70.2255 233.01 70.5 238.5L74.0229 296.041C76.0676 294.451 78.0732 292.615 80 290.5C77.6666 265 78.4 208.2 100 185Z" fill="#EE403B"/>
<path d="M78 361V373.5H80V320.5V300.485C78.3173 301.801 76.4943 303.033 74.5203 304.165L78 361Z" fill="#EE403B"/>
<path d="M106 230.5L103.935 266L114 366L106 230.5Z" fill="#EE403B"/>
<path d="M128.06 188C134.285 192.491 145 198.5 145 198.5C144.492 197.398 143.847 196.025 143.115 194.5C140.249 188.524 136.049 180.202 133.5 176.62C131.624 180.459 129.581 184.697 128.06 188Z" fill="#EE403B"/>
<path fill-rule="evenodd" clip-rule="evenodd" d="M151.5 91.3932C152.833 85.2622 151.7 72.1 136.5 68.5C126 68.5 106.4 74.2 112 97C113.01 100.672 116.526 108.313 122.514 109.507C123.271 109.391 123.967 109.411 124.5 109.5C124.604 109.5 124.712 109.502 124.823 109.507C125.595 109.542 126.546 109.701 127.5 110.05L134.5 103.5C133.333 104.333 130.1 105.9 126.5 105.5C122 105 119 102.5 119 96C119 90.8 124.333 89.1667 127 89H130H147C149.152 89.1655 150.578 90.1356 151.5 91.3932ZM139 103L148 110.05V106C146 106 144.833 105 144.5 104.5C142.5 102.5 140 102.667 139 103ZM110 163.5C112.8 175.5 122.873 185.167 128.06 188C134.285 192.491 145 198.5 145 198.5L153.5 199.5C156.1 199.5 157.975 200.167 159.263 201C160.55 201.833 161.25 202.833 161.5 203.5C159.1 203.1 156.167 204.333 155 205C151.4 207.8 153.5 212.167 155 214C147.4 214.8 141.5 209.333 139.5 206.5L137 205C126.5 199.167 104.1 185.1 98.5 175.5C93.2931 165.5 85.1915 141.2 94.4397 124C103.167 128.842 107.648 138.889 108.5 144C108.435 144.906 108.413 145.919 108.425 147C108.484 152.602 109.441 160.007 110 163.5ZM119.5 197.795C122.152 199.143 125.013 200.473 128.06 201.731V241C128.06 262.6 132.353 330 134.5 361L136.5 362.5L139.5 366L137 369.5L115.5 370.844L113 371L112.5 369.5L114 366L106 230.5L103.935 266L98 368V371.5L92 373.5H80V320.5V300.485C105.536 280.509 98.7577 241.091 97 234.5C95.4 228.5 95.3333 220.667 95.5 217.5C95.1 203.9 111.333 198.697 119.5 197.795ZM89.5 236.5C86.3624 223.264 86.0698 195.914 110 192.396C105.289 189.41 101.859 186.722 100 185C78.4 208.2 77.6666 265 80 290.5C86.3333 283.5 97.1 262.9 89.5 236.5Z" fill="#F65561"/>
<path d="M145 198.5L153.5 199.5C156.1 199.5 157.975 200.167 159.263 201C158.673 196.6 154.508 195.833 152.5 196C147.7 197.2 144.244 195.5 143.115 194.5C143.847 196.025 144.492 197.398 145 198.5Z" fill="#EE403B"/>
<path d="M57 103H99H104.451C103.638 99.6647 103.385 96.4464 103.481 93.5H57V103Z" fill="#2D6397"/>
<path d="M70.5 184.5L71 170.5L81.0076 169.69C81.21 166.356 80.932 163.476 80.5 161.5C78.108 153.1 79.5033 140.333 80.5 135C82.9 118.2 95.8333 112 102 111L99 103H57H39.5L36.5 223H44.5H49.5H60.1207C60.2172 208.6 67.0805 196.598 70.5 192.396C74.2023 189.064 76.6953 185.224 78.3258 181.357L70.5 184.5Z" fill="#3778B5"/>
<path d="M89.5 122C90 120.667 92.2 117.7 97 116.5C99.6667 115.211 105.7 112.619 108.5 112.566C108.095 111.981 107.758 111.446 107.5 111C106.072 108.311 105.089 105.62 104.451 103H99L102 111C95.8333 112 82.9 118.2 80.5 135C79.5033 140.333 78.108 153.1 80.5 161.5C80.932 163.476 81.21 166.356 81.0076 169.69L89.5293 169C84.6242 158.105 83.3524 147.43 83.5 142C83.5 130.4 87.5 123.833 89.5 122Z" fill="#2D6397"/>
<path d="M83.49 179.3L83.5 179.28L78.3258 181.357C76.6953 185.224 74.2023 189.064 70.5 192.396C67.0805 196.598 60.2172 208.6 60.1207 223H70.7414C72.524 201.418 79.9457 186.448 83.49 179.3Z" fill="#2D6397"/>
<path d="M127.5 110.05C129.741 110.869 132 112.736 132 116.5C132 118.232 131.361 121.669 129.06 124C129.707 125 132.5 126.4 138.5 124C138.844 123.863 139.177 123.707 139.5 123.535C140.512 122.997 141.424 122.3 142.242 121.5C145.184 118.622 146.904 114.415 147.673 111.5C147.813 110.968 147.922 110.48 148 110.05L139 103L138 102.5L134.5 103.5L127.5 110.05Z" fill="#325670"/>
<path fill-rule="evenodd" clip-rule="evenodd" d="M126.84 125.572C126.895 125.548 126.948 125.524 127 125.5C126.951 125.524 126.898 125.548 126.84 125.572Z" fill="#F65561"/>
<path d="M126.5 123C124.145 125.141 121.79 125.173 119.984 124C123.017 126.283 125.715 126.032 126.84 125.572C126.895 125.548 126.948 125.524 127 125.5C127.802 125.099 128.483 124.584 129.06 124C131.361 121.669 132 118.232 132 116.5C132 112.736 129.741 110.869 127.5 110.05C126.546 109.701 125.595 109.542 124.823 109.507C127.806 109.871 131.805 118.177 126.5 123Z" fill="#325670"/>
<path d="M119.984 124C121.79 125.173 124.145 125.141 126.5 123C131.805 118.177 127.806 109.871 124.823 109.507C124.712 109.502 124.604 109.5 124.5 109.5C123.967 109.411 123.271 109.391 122.514 109.507C120.429 109.828 117.88 111.185 117 115C116.598 116.74 116.699 118.48 117.166 120C117.697 121.726 118.702 123.167 119.984 124Z" fill="#18354C"/>
<path d="M150.5 113L144.5 123L143.5 124.5L147 126L155 113.5L151.5 111L150.5 113Z" fill="#18354C"/>
<path d="M150.5 113L147.673 111.5C146.904 114.415 145.184 118.622 142.242 121.5L144.5 123L150.5 113Z" fill="#18354C"/>
<path d="M97 116.5C92.2 117.7 90 120.667 89.5 122C91.2771 122.474 92.9226 123.158 94.4397 124C103.167 128.842 107.648 138.889 108.5 144C108.435 144.906 108.413 145.919 108.425 147C116.765 132.6 104.283 120.667 97 116.5Z" fill="#18354C"/>
<path d="M71 170.5L70.5 184.5L78.3258 181.357C80.0298 177.316 80.7918 173.245 81.0076 169.69L71 170.5Z" fill="#18354C"/>
<path d="M92.9121 175.5C91.6285 173.351 90.5067 171.171 89.5293 169L81.0076 169.69C80.7918 173.245 80.0298 177.316 78.3258 181.357L83.5 179.28L92.9121 175.5Z" fill="#18354C"/>
<path d="M95.5 217.5C95.1 203.9 111.333 198.697 119.5 197.795C115.935 195.983 112.749 194.139 110 192.396C86.0698 195.914 86.3624 223.264 89.5 236.5C97.1 262.9 86.3333 283.5 80 290.5C78.0732 292.615 76.0676 294.451 74.0229 296.041L74.5203 304.165C76.4943 303.033 78.3173 301.801 80 300.485C105.536 280.509 98.7577 241.091 97 234.5C95.4 228.5 95.3333 220.667 95.5 217.5Z" fill="#325670"/>
<path d="M22.5 271.5C10.1 315.9 47.3333 314 67.5 307.5C70.0294 306.52 72.3649 305.402 74.5203 304.165L74.0229 296.041C61.371 305.878 47.2236 306.291 41 305C24.2 301.769 23.6667 286.32 25.5 279C29.9 262.2 43.3333 234.333 49.5 223H44.5C34.9 235.8 25.8333 261 22.5 271.5Z" fill="#325670"/>
<path d="M248.5 259.5L172.5 212.923L169.368 217.5L245 263.5L248.5 259.5Z" fill="#325670"/>
<path d="M155 205C151.4 207.8 153.5 212.167 155 214L168 219.5L169.368 217.5L172.5 212.923L174.5 210L161.5 203.5C159.1 203.1 156.167 204.333 155 205Z" fill="#18354C"/>
<path d="M264.5 263.5L248.5 259.5L245 263.5L253 275.5L264.5 263.5Z" fill="#18354C"/>
<path d="M262.5 269C287.5 287.667 348.5 333.5 348.5 333.5M265.5 266.5C293.333 280.667 351.2 310.7 360 317.5M255.5 276C273.333 299.833 316.5 360 316.5 360M259.5 273L332 345.5" stroke="white" stroke-width="2" stroke-linecap="round" stroke-dasharray="5 5"/>
</g>
</svg>
