<svg width="38" height="38" viewBox="0 0 38 38" fill="none" xmlns="http://www.w3.org/2000/svg">
<path d="M20.6483 2.00761V4.02282C23.3791 4.02282 25.9513 4.70177 28.2054 5.90009L29.213 4.52662L30.7244 5.53423L29.7168 6.81324C29.2313 6.48237 28.7268 6.17733 28.2054 5.90009C25.9513 4.70177 23.3791 4.02282 20.6483 4.02282V2.00761H18.6331V1H22.6635V2.00761H20.6483Z" fill="#162D65"/>
<path d="M4.52662 20.1445L5.17741 19.3853L4.52662 18.8274L3.87583 19.3853L4.52662 20.1445ZM8.07474 8.52297C7.69978 8.92846 7.72453 9.56114 8.13002 9.9361C8.53551 10.3111 9.16819 10.2863 9.54315 9.88082L8.07474 8.52297ZM7.40245 23.9266C7.82177 24.286 8.45307 24.2374 8.8125 23.8181C9.17192 23.3988 9.12336 22.7675 8.70403 22.4081L7.40245 23.9266ZM0.349209 22.4081C-0.0701171 22.7675 -0.118679 23.3988 0.240743 23.8181C0.600165 24.2374 1.23147 24.286 1.65079 23.9266L0.349209 22.4081ZM22.6635 2.00761V3.00761H23.6635V2.00761H22.6635ZM22.6635 1H23.6635V0H22.6635V1ZM18.6331 1V0H17.6331V1H18.6331ZM18.6331 2.00761H17.6331V3.00761H18.6331V2.00761ZM28.2054 5.90009L27.7359 6.78307V6.78307L28.2054 5.90009ZM29.213 4.52662L29.7677 3.69457L28.9722 3.16425L28.4067 3.93511L29.213 4.52662ZM30.7244 5.53423L31.5099 6.15306L32.1798 5.30268L31.2791 4.70218L30.7244 5.53423ZM35.77 20.1445C35.77 28.496 28.9998 35.2662 20.6483 35.2662V37.2662C30.1044 37.2662 37.77 29.6006 37.77 20.1445H35.77ZM20.6483 35.2662C12.2968 35.2662 5.52662 28.496 5.52662 20.1445H3.52662C3.52662 29.6006 11.1923 37.2662 20.6483 37.2662V35.2662ZM9.54315 9.88082C12.3069 6.89199 16.2586 5.02282 20.6483 5.02282V3.02282C15.678 3.02282 11.2012 5.14193 8.07474 8.52297L9.54315 9.88082ZM3.87583 20.9038L7.40245 23.9266L8.70403 22.4081L5.17741 19.3853L3.87583 20.9038ZM3.87583 19.3853L0.349209 22.4081L1.65079 23.9266L5.17741 20.9038L3.87583 19.3853ZM21.6483 4.02282V2.00761H19.6483V4.02282H21.6483ZM20.6483 3.00761H22.6635V1.00761H20.6483V3.00761ZM23.6635 2.00761V1H21.6635V2.00761H23.6635ZM22.6635 0H18.6331V2H22.6635V0ZM17.6331 1V2.00761H19.6331V1H17.6331ZM18.6331 3.00761H20.6483V1.00761H18.6331V3.00761ZM20.6483 5.02282C23.2115 5.02282 25.6229 5.65972 27.7359 6.78307L28.6748 5.01711C26.2797 3.74383 23.5467 3.02282 20.6483 3.02282V5.02282ZM29.0116 6.4916L30.0193 5.11813L28.4067 3.93511L27.3991 5.30858L29.0116 6.4916ZM28.6583 5.35867L30.1697 6.36628L31.2791 4.70218L29.7677 3.69457L28.6583 5.35867ZM27.7359 6.78307C28.225 7.04307 28.6982 7.32918 29.1536 7.63957L30.28 5.98691C29.7645 5.63557 29.2287 5.3116 28.6748 5.01711L27.7359 6.78307ZM29.1536 7.63957C33.1496 10.3631 35.77 14.948 35.77 20.1445H37.77C37.77 14.2587 34.7992 9.06707 30.28 5.98691L29.1536 7.63957ZM29.9388 4.91539L28.9312 6.19441L30.5023 7.43207L31.5099 6.15306L29.9388 4.91539Z" fill="#162D65"/>
<path d="M26.5336 12.3354H15.3125L14.3507 13.9385H18.8391C19.4426 14.1971 20.5328 14.9564 20.9318 16.1827H15.3125L14.3507 17.7857H21.0191C20.6275 19.6878 18.4616 20.9917 14.9919 20.9917V22.5947L21.4039 29.9685H24.2894L17.5567 21.9535C19.461 21.8533 23.1512 20.8695 23.6026 17.7857H25.5718L26.5336 16.1827H23.5179C23.2513 15.3494 22.6174 14.3849 21.7245 13.9385H25.5718L26.5336 12.3354Z" fill="#162D65"/>
</svg>
