<svg width="39" height="39" viewBox="0 0 39 39" fill="none" xmlns="http://www.w3.org/2000/svg">
<path d="M12.3537 25.9479L13.0536 25.2337L12.3537 25.9479ZM13.4561 26.9245L14.0807 26.1436L13.4561 26.9245ZM11.3559 24.8667L12.124 24.2263L11.3559 24.8667ZM1.61221 34.6104L0.905108 33.9033H0.905108L1.61221 34.6104ZM3.69121 36.6894L2.9841 35.9823L3.69121 36.6894ZM20.1132 6.54399L20.8203 5.83688L20.1132 5.12978L19.4061 5.83688L20.1132 6.54399ZM26.6967 13.1275L27.4038 13.8346L28.1109 13.1275L27.4038 12.4204L26.6967 13.1275ZM16.9947 22.8295L16.2876 23.5366L16.9947 24.2437L17.7018 23.5366L16.9947 22.8295ZM10.4112 16.246L9.70408 15.5389L8.99698 16.246L9.70408 16.9531L10.4112 16.246ZM30.7387 10.99L31.7235 10.8163L31.5498 9.83151L30.565 10.0052L30.7387 10.99ZM32.3554 20.159L32.529 21.1438L33.5139 20.9701L33.3402 19.9853L32.3554 20.159ZM18.8432 22.5415L17.8584 22.7152L18.032 23.7L19.0168 23.5264L18.8432 22.5415ZM36.0916 15.553C36.0916 23.0381 30.0238 29.1059 22.5387 29.1059V31.1059C31.1283 31.1059 38.0916 24.1426 38.0916 15.553H36.0916ZM8.98569 15.553C8.98569 8.06787 15.0536 2 22.5387 2V0C13.949 0 6.98569 6.9633 6.98569 15.553H8.98569ZM22.5387 2C30.0238 2 36.0916 8.06787 36.0916 15.553H38.0916C38.0916 6.9633 31.1283 0 22.5387 0V2ZM22.5387 29.1059C19.3382 29.1059 16.3993 27.9978 14.0807 26.1436L12.8315 27.7055C15.4919 29.8331 18.868 31.1059 22.5387 31.1059V29.1059ZM14.0807 26.1436C13.7231 25.8576 13.3803 25.5538 13.0536 25.2337L11.6538 26.6622C12.0284 27.0292 12.4215 27.3775 12.8315 27.7055L14.0807 26.1436ZM4.39832 37.3965L14.1632 27.6316L12.749 26.2174L2.9841 35.9823L4.39832 37.3965ZM13.0536 25.2337C12.7272 24.9138 12.4168 24.5776 12.124 24.2263L10.5879 25.5071C10.9237 25.9099 11.2795 26.2954 11.6538 26.6622L13.0536 25.2337ZM12.124 24.2263C10.164 21.8756 8.98569 18.8532 8.98569 15.553H6.98569C6.98569 19.3384 8.33932 22.8103 10.5879 25.5071L12.124 24.2263ZM2.31932 35.3175L12.063 25.5738L10.6488 24.1596L0.905108 33.9033L2.31932 35.3175ZM2.31932 35.9823C2.13575 35.7987 2.13575 35.5011 2.31932 35.3175L0.905108 33.9033C-0.0595156 34.8679 -0.0595146 36.4319 0.905108 37.3965L2.31932 35.9823ZM0.905108 37.3965C1.86973 38.3612 3.43369 38.3612 4.39832 37.3965L2.9841 35.9823C2.80053 36.1659 2.5029 36.1659 2.31932 35.9823L0.905108 37.3965ZM17.7018 22.1223L11.1183 15.5389L9.70408 16.9531L16.2876 23.5366L17.7018 22.1223ZM29.7538 11.1636L31.3706 20.3326L33.3402 19.9853L31.7235 10.8163L29.7538 11.1636ZM32.1818 19.1742L18.6695 21.5567L19.0168 23.5264L32.529 21.1438L32.1818 19.1742ZM11.1183 16.9531L20.8203 7.2511L19.4061 5.83688L9.70408 15.5389L11.1183 16.9531ZM25.6591 12.9011L30.9123 11.9748L30.565 10.0052L25.3118 10.9314L25.6591 12.9011ZM19.4061 7.2511L24.7783 12.6234L26.1925 11.2091L20.8203 5.83688L19.4061 7.2511ZM24.7783 12.6234L25.9895 13.8346L27.4038 12.4204L26.1925 11.2091L24.7783 12.6234ZM19.828 22.3679L19.5941 21.0412L17.6244 21.3885L17.8584 22.7152L19.828 22.3679ZM25.9895 12.4204L17.9021 20.5078L19.3164 21.922L27.4038 13.8346L25.9895 12.4204ZM17.9021 20.5078L16.2876 22.1223L17.7018 23.5366L19.3164 21.922L17.9021 20.5078Z" fill="#162D65"/>
</svg>
