<svg width="20" height="20" viewBox="0 0 20 20" fill="none" xmlns="http://www.w3.org/2000/svg">
<path fill-rule="evenodd" clip-rule="evenodd" d="M2.02832 18.0431L3.15082 13.9452C2.45832 12.746 2.09415 11.3852 2.09457 9.99141C2.09665 5.631 5.64499 2.0835 10.0058 2.0835C12.1221 2.08433 14.1079 2.90808 15.6017 4.40266C17.095 5.89766 17.9175 7.88433 17.9167 9.99766C17.915 14.3581 14.3658 17.906 10.0058 17.906C10.0054 17.906 10.0058 17.906 10.0058 17.906H10.0025C8.67874 17.9056 7.37749 17.5735 6.22207 16.9431L2.02832 18.0431Z" fill="white"/>
<path fill-rule="evenodd" clip-rule="evenodd" d="M2.02846 18.2513C1.97346 18.2513 1.92013 18.2296 1.88055 18.1896C1.82846 18.1367 1.80805 18.0596 1.82763 17.9883L2.92721 13.9733C2.24555 12.7625 1.88596 11.3875 1.8868 9.99167C1.88846 5.51583 5.53055 1.875 10.006 1.875C12.1768 1.87583 14.2164 2.72125 15.7493 4.25542C17.2822 5.79 18.126 7.82917 18.1251 9.9975C18.1235 14.4729 14.481 18.1142 10.006 18.1142C8.67721 18.1138 7.36263 17.7858 6.19596 17.1654L2.08138 18.2442C2.06388 18.2492 2.04638 18.2513 2.02846 18.2513Z" fill="white"/>
<path fill-rule="evenodd" clip-rule="evenodd" d="M10.0057 2.08317C12.1219 2.084 14.1077 2.90775 15.6015 4.40234C17.0948 5.89734 17.9173 7.884 17.9165 9.99734C17.9148 14.3578 14.3657 17.9057 10.0057 17.9057H10.0023C8.67858 17.9053 7.37733 17.5732 6.22192 16.9428L2.02817 18.0428L3.15067 13.9448C2.45817 12.7457 2.094 11.3848 2.09442 9.99109C2.0965 5.63067 5.64483 2.08317 10.0057 2.08317ZM10.0057 1.6665C5.41567 1.6665 1.67983 5.40067 1.67775 9.99109C1.67733 11.394 2.0315 12.7765 2.70317 14.0003L1.62608 17.9332C1.58692 18.0769 1.62692 18.2303 1.73192 18.3361C1.81108 18.4161 1.91817 18.4598 2.02817 18.4598C2.06358 18.4598 2.099 18.4553 2.134 18.4461L6.17025 17.3878C7.34858 17.9994 8.66942 18.3223 10.0023 18.3228C14.5957 18.3228 18.3315 14.5882 18.3336 9.99776C18.3344 7.77317 17.469 5.6815 15.8969 4.10817C14.324 2.53442 12.2319 1.66734 10.0057 1.6665Z" fill="#CFD8DC"/>
<path fill-rule="evenodd" clip-rule="evenodd" d="M14.6568 5.34644C13.4152 4.10394 11.7648 3.41936 10.0081 3.41895C6.38143 3.41895 3.43184 6.36728 3.43018 9.99144C3.42976 11.2335 3.77726 12.4427 4.43559 13.4898L4.59226 13.7385L3.92768 16.1639L6.41643 15.5114L6.65684 15.6539C7.66601 16.2531 8.82351 16.5698 10.0035 16.5702H10.006C13.6302 16.5702 16.5798 13.6214 16.581 9.99686C16.5814 8.24061 15.8985 6.58894 14.6568 5.34644Z" fill="#40C351"/>
<path fill-rule="evenodd" clip-rule="evenodd" d="M8.02827 6.68561C7.88035 6.35645 7.72452 6.34978 7.58327 6.34395C7.46785 6.33895 7.33618 6.33936 7.20452 6.33936C7.07285 6.33936 6.85868 6.38895 6.67743 6.58686C6.49618 6.78478 5.98535 7.2627 5.98535 8.2352C5.98535 9.2077 6.69368 10.1477 6.79243 10.2794C6.89118 10.411 8.15993 12.4706 10.1691 13.2631C11.8387 13.9214 12.1787 13.7906 12.5412 13.7577C12.9037 13.7248 13.7108 13.2798 13.8753 12.8181C14.0399 12.3564 14.0399 11.961 13.9908 11.8785C13.9412 11.796 13.8095 11.7469 13.612 11.6477C13.4145 11.5485 12.4424 11.0706 12.2612 11.0048C12.0799 10.9389 11.9483 10.906 11.8162 11.1039C11.6845 11.3014 11.3058 11.7469 11.1904 11.8785C11.0749 12.0106 10.9595 12.0273 10.762 11.9281C10.5645 11.8289 9.92785 11.6206 9.17243 10.9473C8.58493 10.4235 8.18827 9.77645 8.07285 9.57853C7.95743 9.38103 8.06035 9.27395 8.15952 9.1752C8.24827 9.08645 8.35702 8.94436 8.45618 8.82895C8.55493 8.71353 8.58785 8.63103 8.65368 8.49936C8.71952 8.36728 8.6866 8.25186 8.63702 8.15311C8.58827 8.05395 8.2041 7.07645 8.02827 6.68561Z" fill="white"/>
</svg>
